<?xml version="1.0" encoding="UTF-8"?>
<svg xmlns="http://www.w3.org/2000/svg" xmlns:xlink="http://www.w3.org/1999/xlink" width="916.04pt" height="93.22pt" viewBox="0 0 916.04 93.22" version="1.1">
<defs>
<clipPath id="clip1">
  <path d="M 895 12 L 916.039063 12 L 916.039063 33 L 895 33 Z M 895 12 "/>
</clipPath>
<clipPath id="clip2">
  <path d="M 21 52 L 93 52 L 93 93.21875 L 21 93.21875 Z M 21 52 "/>
</clipPath>
</defs>
<g id="surface1">
<g clip-path="url(#clip1)" clip-rule="nonzero">
<path style=" stroke:none;fill-rule:nonzero;fill:rgb(4.699707%,45.498657%,73.699951%);fill-opacity:1;" d="M 905.859375 19.085938 L 904.898438 19.085938 L 904.898438 21.949219 L 905.535156 21.949219 C 906.953125 21.949219 907.449219 21.128906 907.449219 20.355469 C 907.449219 19.496094 907.035156 19.085938 905.859375 19.085938 M 907.484375 27.71875 L 905.078125 23.398438 L 904.898438 23.398438 L 904.898438 27.71875 L 902.675781 27.71875 L 902.675781 17.355469 L 906.265625 17.355469 C 908.8125 17.355469 909.804688 18.449219 909.804688 20.082031 C 909.804688 21.757813 908.851563 22.765625 907.402344 23.035156 C 907.636719 23.316406 907.949219 23.855469 908.257813 24.402344 L 910.214844 27.71875 Z M 898.761719 22.539063 C 898.761719 26.542969 901.996094 30 906.035156 30 C 910.089844 30 913.316406 26.675781 913.316406 22.671875 C 913.316406 18.621094 910.089844 15.214844 906.035156 15.214844 C 901.996094 15.214844 898.761719 18.492188 898.761719 22.539063 M 916.035156 22.585938 C 916.035156 28.035156 911.5 32.539063 906.035156 32.539063 C 900.394531 32.539063 895.992188 28.167969 895.992188 22.585938 C 895.992188 17.078125 900.488281 12.625 906.035156 12.625 C 911.621094 12.625 916.035156 16.992188 916.035156 22.585938 "/>
</g>
<path style=" stroke:none;fill-rule:nonzero;fill:rgb(4.699707%,45.498657%,73.699951%);fill-opacity:1;" d="M 39.160156 24.851563 C 2.308594 45.15625 68.304688 33.136719 91.609375 40.351563 C 92.058594 40.5 92.472656 40.660156 92.871094 40.804688 C 90 17.800781 70.386719 -0.00390625 46.609375 -0.00390625 C 35.390625 -0.00390625 25.097656 3.957031 17.050781 10.578125 C 40.457031 12.816406 53.875 16.753906 39.160156 24.851563 "/>
<path style=" stroke:none;fill-rule:nonzero;fill:rgb(4.699707%,45.498657%,73.699951%);fill-opacity:1;" d="M 70.292969 46.289063 C 46.128906 36.746094 -13.351563 46.324219 22.765625 25.832031 C 37.128906 17.6875 30.148438 14.378906 15.394531 11.988281 C 5.945313 20.519531 0 32.871094 0 46.605469 C 0 62.28125 7.738281 76.15625 19.597656 84.589844 C 63.601563 67.941406 86.652344 52.75 70.292969 46.289063 "/>
<g clip-path="url(#clip2)" clip-rule="nonzero">
<path style=" stroke:none;fill-rule:nonzero;fill:rgb(4.699707%,45.498657%,73.699951%);fill-opacity:1;" d="M 46.609375 93.21875 C 70.445313 93.21875 90.097656 75.316406 92.878906 52.234375 C 83.464844 61.855469 57.515625 75.050781 21.539063 85.90625 C 28.777344 90.527344 37.386719 93.21875 46.609375 93.21875 "/>
</g>
<path style=" stroke:none;fill-rule:nonzero;fill:rgb(4.699707%,45.498657%,73.699951%);fill-opacity:1;" d="M 126.605469 62.140625 L 159.898438 62.140625 C 163.90625 62.140625 166.597656 61.21875 166.597656 57.707031 C 166.597656 53.605469 163.90625 52.683594 159.898438 52.683594 L 126.605469 52.683594 Z M 126.605469 40.136719 L 159.480469 40.136719 C 162.90625 40.136719 164.921875 38.875 164.921875 35.460938 C 164.921875 31.945313 162.90625 30.683594 159.480469 30.683594 L 126.605469 30.683594 Z M 108.03125 16.125 L 161.488281 16.125 C 176.300781 16.125 183.492188 20.140625 183.492188 32.027344 C 183.492188 42.394531 179.726563 44.398438 174.542969 45.90625 L 174.542969 46.160156 C 182.65625 47.167969 185.664063 51.515625 185.664063 60.636719 C 185.664063 73.941406 177.800781 76.695313 167.175781 76.695313 L 108.03125 76.695313 L 108.03125 16.125 "/>
<path style=" stroke:none;fill-rule:nonzero;fill:rgb(4.699707%,45.498657%,73.699951%);fill-opacity:1;" d="M 196.859375 16.125 L 263.121094 16.125 L 263.121094 30.183594 L 215.4375 30.183594 L 215.4375 39.878906 L 260.609375 39.878906 L 260.609375 52.433594 L 215.4375 52.433594 L 215.4375 62.140625 L 264.210938 62.140625 L 264.210938 76.695313 L 196.859375 76.695313 L 196.859375 16.125 "/>
<path style=" stroke:none;fill-rule:nonzero;fill:rgb(4.699707%,45.498657%,73.699951%);fill-opacity:1;" d="M 302.601563 52.933594 L 326.363281 52.933594 L 314.308594 30.183594 Z M 302.269531 16.117188 L 326.445313 16.117188 L 359.734375 76.699219 L 339.070313 76.699219 L 333.292969 65.988281 L 295.660156 65.988281 L 290.214844 76.699219 L 269.46875 76.699219 L 302.269531 16.117188 "/>
<path style=" stroke:none;fill-rule:nonzero;fill:rgb(4.699707%,45.498657%,73.699951%);fill-opacity:1;" d="M 362.734375 37.375 C 362.734375 19.636719 372.6875 15.453125 389.414063 15.453125 L 411.261719 15.453125 C 437.695313 15.453125 441.113281 21.144531 440.957031 38.296875 L 422.378906 38.296875 L 422.378906 36.617188 C 422.378906 32.273438 419.195313 31.011719 413.679688 31.011719 L 393.4375 31.011719 C 383.652344 31.011719 381.808594 35.617188 381.808594 43.15625 L 381.808594 49.675781 C 381.808594 58.453125 383.652344 61.800781 392.433594 61.800781 L 412.265625 61.800781 C 420.621094 61.800781 423.136719 60.96875 423.136719 53.445313 L 441.714844 53.445313 L 441.714844 59.125 C 441.714844 69.335938 438.03125 77.363281 419.371094 77.363281 L 389.414063 77.363281 C 372.6875 77.363281 362.734375 73.175781 362.734375 55.445313 L 362.734375 37.375 "/>
<path style=" stroke:none;fill-rule:nonzero;fill:rgb(4.699707%,45.498657%,73.699951%);fill-opacity:1;" d="M 452.910156 16.125 L 471.476563 16.125 L 471.476563 37.71875 L 510.632813 37.71875 L 510.632813 16.125 L 529.199219 16.125 L 529.199219 76.695313 L 510.632813 76.695313 L 510.632813 53.769531 L 471.476563 53.769531 L 471.476563 76.695313 L 452.910156 76.695313 L 452.910156 16.125 "/>
<path style=" stroke:none;fill-rule:nonzero;fill:rgb(4.699707%,45.498657%,73.699951%);fill-opacity:1;" d="M 560.308594 62.140625 L 593.605469 62.140625 C 597.628906 62.140625 600.296875 61.21875 600.296875 57.707031 C 600.296875 53.605469 597.628906 52.683594 593.605469 52.683594 L 560.308594 52.683594 Z M 560.308594 40.136719 L 593.191406 40.136719 C 596.617188 40.136719 598.625 38.875 598.625 35.460938 C 598.625 31.945313 596.617188 30.683594 593.191406 30.683594 L 560.308594 30.683594 Z M 541.742188 16.125 L 595.199219 16.125 C 610.003906 16.125 617.199219 20.140625 617.199219 32.027344 C 617.199219 42.394531 613.429688 44.398438 608.253906 45.90625 L 608.253906 46.160156 C 616.355469 47.167969 619.375 51.515625 619.375 60.636719 C 619.375 73.941406 611.515625 76.695313 600.882813 76.695313 L 541.742188 76.695313 L 541.742188 16.125 "/>
<path style=" stroke:none;fill-rule:nonzero;fill:rgb(4.699707%,45.498657%,73.699951%);fill-opacity:1;" d="M 648.300781 49.675781 C 648.300781 58.453125 650.140625 61.808594 658.925781 61.808594 L 682.6875 61.808594 C 691.46875 61.808594 693.3125 58.453125 693.3125 49.675781 L 693.3125 43.148438 C 693.3125 35.617188 691.46875 31.011719 681.691406 31.011719 L 659.929688 31.011719 C 650.144531 31.011719 648.304688 35.617188 648.304688 43.148438 L 648.304688 49.675781 Z M 629.226563 37.375 C 629.226563 19.636719 639.191406 15.453125 655.921875 15.453125 L 685.703125 15.453125 C 702.433594 15.453125 712.386719 19.636719 712.386719 37.375 L 712.386719 55.445313 C 712.386719 73.1875 702.433594 77.359375 685.703125 77.359375 L 655.921875 77.359375 C 639.191406 77.359375 629.226563 73.1875 629.226563 55.445313 L 629.226563 37.375 "/>
<path style=" stroke:none;fill-rule:nonzero;fill:rgb(4.699707%,45.498657%,73.699951%);fill-opacity:1;" d="M 742.828125 61.132813 L 775.785156 61.132813 C 783.734375 61.132813 786.832031 58.878906 786.832031 50.253906 L 786.832031 42.0625 C 786.832031 33.453125 783.734375 31.179688 775.785156 31.179688 L 742.828125 31.179688 Z M 724.253906 16.125 L 780.304688 16.125 C 798.878906 16.125 805.394531 22.230469 805.394531 37.203125 L 805.394531 55.613281 C 805.394531 70.589844 798.878906 76.695313 780.304688 76.695313 L 724.253906 76.695313 L 724.253906 16.125 "/>
<path style=" stroke:none;fill-rule:nonzero;fill:rgb(4.699707%,45.498657%,73.699951%);fill-opacity:1;" d="M 839.738281 55.613281 L 806.1875 16.125 L 828.597656 16.125 L 849.015625 40.890625 L 869.4375 16.125 L 891.851563 16.125 L 858.304688 55.613281 L 858.304688 76.695313 L 839.738281 76.695313 L 839.738281 55.613281 "/>
</g>
</svg>
