<svg id="svg" version="1.1" xmlns="http://www.w3.org/2000/svg" xmlns:xlink="http://www.w3.org/1999/xlink" width="400" height="88.55" viewBox="0, 0, 400,88.55"><g id="svgg"><path id="path0" d="M138.083 5.343 C 122.603 6.519,108.626 18.180,104.332 33.500 C 100.126 48.504,106.228 66.116,118.739 75.083 C 118.994 75.267,119.290 75.492,119.395 75.583 C 119.987 76.100,124.489 78.833,124.749 78.833 C 124.778 78.833,125.510 79.164,126.374 79.568 C 127.723 80.198,130.249 81.093,132.333 81.679 C 133.455 81.994,134.998 82.259,138.132 82.673 C 143.524 83.385,151.525 82.110,156.917 79.680 C 165.606 75.763,171.641 70.164,175.526 62.417 L 176.529 60.417 168.367 60.373 L 160.205 60.330 158.566 61.992 C 152.566 68.077,146.196 70.483,138.667 69.510 C 124.672 67.703,113.904 51.577,117.680 38.083 C 122.007 22.621,135.014 14.976,149.250 19.527 C 150.825 20.030,154.908 22.295,155.834 23.178 C 155.971 23.309,156.453 23.713,156.904 24.076 C 157.866 24.850,159.863 26.843,160.457 27.622 L 160.873 28.167 168.853 28.167 C 174.842 28.167,176.833 28.118,176.833 27.971 C 176.833 27.558,174.803 23.778,173.690 22.118 C 171.490 18.839,169.408 16.583,165.770 13.534 C 162.025 10.396,155.863 7.395,150.833 6.259 C 150.146 6.104,149.283 5.907,148.917 5.822 C 146.866 5.346,141.294 5.099,138.083 5.343 " stroke="none" fill="#04c404" fill-rule="evenodd"></path><path id="path1" d="M351.500 43.750 L 351.500 82.835 371.625 82.792 L 391.750 82.750 391.794 75.958 L 391.837 69.167 378.669 69.167 L 365.500 69.167 365.500 60.083 L 365.500 51.000 372.917 51.000 L 380.333 51.000 380.333 44.167 L 380.333 37.333 372.917 37.333 L 365.500 37.333 365.500 27.918 L 365.500 18.502 378.625 18.459 L 391.750 18.417 391.750 11.583 L 391.750 4.750 371.625 4.708 L 351.500 4.665 351.500 43.750 M180.667 43.833 L 180.667 82.833 187.667 82.833 L 194.667 82.833 194.667 66.500 L 194.667 50.167 208.000 50.167 L 221.333 50.167 221.333 66.500 L 221.333 82.833 228.167 82.833 L 235.000 82.833 235.000 43.833 L 235.000 4.833 221.667 4.833 L 208.333 4.833 208.333 11.667 L 208.333 18.500 214.833 18.500 L 221.333 18.500 221.333 27.500 L 221.333 36.500 208.000 36.500 L 194.667 36.500 194.667 20.667 L 194.667 4.833 187.667 4.833 L 180.667 4.833 180.667 43.833 M239.333 11.666 L 239.333 18.500 245.750 18.500 L 252.167 18.500 252.167 43.833 L 252.167 69.167 245.750 69.167 L 239.333 69.167 239.333 76.000 L 239.333 82.833 259.083 82.833 L 278.833 82.833 278.833 76.000 L 278.833 69.167 272.417 69.167 L 266.000 69.167 266.000 43.833 L 266.000 18.500 272.419 18.500 L 278.837 18.500 278.794 11.708 L 278.750 4.917 259.042 4.874 L 239.333 4.832 239.333 11.666 M283.000 43.835 L 283.000 82.837 289.358 82.794 L 295.716 82.750 296.572 81.500 C 297.043 80.813,299.370 77.362,301.743 73.833 C 304.117 70.304,306.520 66.742,307.083 65.917 C 307.647 65.092,309.746 61.979,311.749 59.000 C 313.751 56.021,316.527 51.896,317.917 49.833 C 319.307 47.771,321.633 44.321,323.084 42.167 C 324.536 40.012,326.561 37.012,327.584 35.500 C 328.607 33.987,330.856 30.650,332.582 28.083 C 338.028 19.985,345.370 9.098,346.743 7.083 C 347.118 6.533,347.598 5.802,347.809 5.458 L 348.194 4.833 339.639 4.841 L 331.083 4.848 329.982 6.549 C 328.989 8.084,327.767 9.955,324.082 15.583 C 323.422 16.592,322.073 18.654,321.083 20.167 C 320.094 21.679,318.670 23.854,317.918 25.000 C 317.167 26.146,315.941 28.021,315.194 29.167 C 314.447 30.313,313.760 31.363,313.667 31.500 C 313.574 31.637,313.108 32.350,312.631 33.083 C 311.759 34.426,307.975 40.201,307.663 40.667 C 307.304 41.203,301.723 49.731,299.645 52.917 C 298.928 54.017,298.278 54.993,298.200 55.086 C 298.123 55.179,297.852 55.610,297.597 56.044 C 297.343 56.478,297.105 56.833,297.067 56.833 C 297.030 56.833,297.000 48.171,297.000 37.583 L 297.000 18.333 303.333 18.333 L 309.667 18.333 309.667 11.583 L 309.667 4.833 296.333 4.833 L 283.000 4.833 283.000 43.835 M35.833 58.586 L 35.833 82.005 40.375 81.961 L 44.917 81.917 45.002 70.833 C 45.096 58.774,45.056 59.280,46.048 57.500 C 48.450 53.192,55.172 52.733,57.031 56.750 L 57.417 57.583 57.500 69.750 L 57.583 81.917 62.167 81.917 L 66.750 81.917 66.793 69.417 C 66.842 55.161,66.829 54.969,65.644 52.518 C 62.419 45.848,51.134 44.649,45.862 50.417 L 45.000 51.360 45.000 43.263 L 45.000 35.167 40.417 35.167 L 35.833 35.167 35.833 58.586 M8.500 60.917 L 8.500 82.833 12.958 82.828 L 17.417 82.823 20.427 79.870 C 22.082 78.246,25.529 74.871,28.086 72.372 L 32.734 67.827 31.635 66.705 C 31.031 66.088,29.561 64.574,28.370 63.340 L 26.203 61.097 21.935 65.371 L 17.667 69.645 17.667 62.323 L 17.667 55.000 25.000 55.000 L 32.333 55.000 32.333 51.500 L 32.333 48.000 25.000 48.000 L 17.667 48.000 17.667 43.500 L 17.667 39.000 13.083 39.000 L 8.500 39.000 8.500 60.917 M84.417 46.772 C 74.806 47.493,69.177 54.437,69.549 65.116 C 69.682 68.916,70.403 72.822,71.175 73.917 C 71.240 74.008,71.348 74.264,71.416 74.485 C 73.788 82.203,88.082 85.575,95.774 80.230 C 98.423 78.389,101.102 74.696,101.602 72.198 L 101.708 71.667 97.015 71.667 L 92.321 71.667 92.018 72.375 C 90.818 75.172,86.249 76.360,82.935 74.737 C 80.746 73.665,79.015 70.830,78.809 67.978 L 78.757 67.250 90.488 67.207 L 102.219 67.164 102.113 64.608 C 101.607 52.340,95.275 45.958,84.417 46.772 M87.404 54.250 C 90.395 54.884,92.833 58.035,92.833 61.268 C 92.833 61.304,89.721 61.333,85.917 61.333 C 79.439 61.333,79.000 61.315,79.003 61.042 C 79.045 56.713,83.195 53.359,87.404 54.250 " stroke="none" fill="#242424" fill-rule="evenodd"></path><path id="path2" d="" stroke="none" fill="#2c2c2c" fill-rule="evenodd"></path><path id="path3" d="" stroke="none" fill="#18c818" fill-rule="evenodd"></path><path id="path4" d="M309.743 11.583 C 309.743 15.342,309.765 16.903,309.791 15.053 C 309.818 13.203,309.818 10.128,309.792 8.219 C 309.765 6.311,309.743 7.825,309.743 11.583 M369.220 37.292 C 371.311 37.318,374.686 37.318,376.720 37.291 C 378.753 37.265,377.042 37.243,372.917 37.243 C 368.792 37.243,367.128 37.265,369.220 37.292 M51.544 54.120 C 51.797 54.158,52.172 54.157,52.377 54.117 C 52.582 54.078,52.375 54.046,51.917 54.048 C 51.458 54.049,51.291 54.081,51.544 54.120 M85.458 54.118 C 85.665 54.157,86.002 54.157,86.208 54.118 C 86.415 54.078,86.246 54.045,85.833 54.045 C 85.421 54.045,85.252 54.078,85.458 54.118 M102.197 66.208 L 102.167 67.167 90.510 67.167 C 84.099 67.167,78.818 67.223,78.776 67.292 C 78.733 67.360,83.982 67.397,90.439 67.373 C 100.169 67.336,102.194 67.290,102.266 67.102 C 102.314 66.977,102.325 66.509,102.290 66.062 L 102.227 65.250 102.197 66.208 M20.409 79.875 L 19.750 80.583 20.458 79.925 C 21.117 79.312,21.243 79.167,21.117 79.167 C 21.090 79.167,20.771 79.485,20.409 79.875 " stroke="none" fill="#2c2418" fill-rule="evenodd"></path></g></svg>