<svg xmlns="http://www.w3.org/2000/svg" xml:space="preserve" id="prefix__layer" x="0" y="0" enable-background="new 0 0 652 652" version="1.1" viewBox="0 0 652 652"><polygon points="28.2 222.7 46.4 265.4 23.2 265.4 30.9 284.2 77.9 284.2" class="prefix__st0"/><polygon points="90 378.2 82.2 359.4 71.5 359.4 56.1 323.2 46.5 323.2 61.8 359.4 34.5 359.4 85 420.9 66.8 378.2" class="prefix__st0"/><path d="M96.2 303c.6 0 1.9-.7 1.9-7.2s-1.3-7.2-1.9-7.2H63.9L70 303h26.2zM77.4 320.4h21.7c.6 0 1.9-.7 1.9-7.2s-1.3-7.2-1.9-7.2H71.2l6.2 14.4zM96.2 340.6H67l6.1 14.5h23.1c.6 0 1.9-.7 1.9-7.2 0-6.6-1.3-7.3-1.9-7.3M99.1 323.2H59.6l6.1 14.5H99c.6 0 1.9-.7 1.9-7.2.1-6.6-1.2-7.3-1.8-7.3" class="prefix__st1"/><path d="M96.2 340.6H67l6.1 14.5h23.1c.6 0 1.9-.7 1.9-7.2 0-6.6-1.3-7.3-1.9-7.3M99.1 323.2H59.6l6.1 14.5H99c.6 0 1.9-.7 1.9-7.2.1-6.6-1.2-7.3-1.8-7.3" class="prefix__st1"/><path d="M54.9 320.3 47.5 303H51l7.4 17.4H74l-13.5-31.8H26.8c-2.6 0-4 0-5.2 3.8-1.4 4.5-1.6 13-1.6 29.5s.2 25 1.6 29.5c1.2 3.8 2.6 3.8 5.2 3.8h29.6l-14.7-34.7 13.2-.2zM223.9 292.9H208l-23.1 59.2h16.2l4.1-10.1h21.1l3.8 10.1h16.3l-22.5-59.2zm-14.5 37.6 6.3-19h.2l6.2 19h-12.7zM163.5 292.9h-23.4v59.3H156V332h8c13.3 0 20.8-5.8 20.8-19.7 0-13.6-8.7-19.4-21.3-19.4m-5.6 27.4h-2v-14.5h2c5.9 0 11-.1 11 7.3 0 7.2-5.4 7.2-11 7.2" class="prefix__st1"/><polygon points="462.5 329 478.4 329 478.4 316 462.5 316 462.5 305.9 484.1 305.9 484.1 292.9 446.6 292.9 446.6 352.2 484.1 352.2 484.1 337.7 462.5 337.7" class="prefix__st1"/><polygon points="323.7 308.8 338.1 308.8 338.2 352.1 354 352.1 354 308.8 368.5 308.8 368.5 292.9 323.7 292.9" class="prefix__st1"/><polygon points="417.6 316 396 316 396 292.9 380 292.9 380 352.1 396 352.1 396 329 417.6 329 417.6 352.1 433.5 352.1 433.5 292.9 417.6 292.9" class="prefix__st1"/><path d="M522.5 308.8c7.6 0 13.7 6.2 13.7 13.7 0 7.6-6.2 13.7-13.7 13.7-7.6 0-13.7-6.2-13.7-13.7-.1-7.6 6.1-13.7 13.7-13.7m0-15.9c-16.4 0-29.6 13.3-29.6 29.6s13.3 29.6 29.6 29.6c16.4 0 29.6-13.3 29.6-29.6s-13.3-29.6-29.6-29.6" class="prefix__st1"/><polygon points="604.1 326.1 578.6 292.9 563.7 292.9 563.7 352.2 579.6 352.2 579.6 318.9 603.9 352.2 620.1 352.2 620.1 292.9 604.1 292.9" class="prefix__st1"/><polygon points="296.1 326.1 270.7 292.9 255.7 292.9 255.7 352.2 271.7 352.2 271.6 318.9 296 352.2 312.1 352.2 312.1 292.9 296.2 292.9" class="prefix__st1"/></svg>