<svg xmlns="http://www.w3.org/2000/svg" viewBox="0 0 174 40" width="104" height="24"><g transform="translate(56 7)"><path fill="currentColor" d="M98.062 0l-4.624 7.503h7.024V26h8.62V7.503H117V0H98.062zm-25.75 0v26h8.778v-8.022h8.93v-7.28h-8.93V7.502h9.283L95.063 0h-22.75zM60.126 26h8.938V0h-8.938v26zm-11.1-26L47.15 13.895 43.783 0h-7.129l-3.368 13.895L31.415 0H22.75l4.278 26h9.561l3.63-11.674L43.85 26h9.562l4.276-26h-8.663zM.604 0v7.504h7.49L0 20.523V26h21.545v-7.502H11.243L22.75 0H.605z"></path></g><path fill="currentColor" d="M30.866 26.667h-4.49L42.565 0H6.615C2.961 0 0 2.985 0 6.667s2.962 6.666 6.615 6.666h4.469L.955 30.018S0 31.421 0 33.443C0 37.065 2.913 40 6.506 40h24.36c3.654 0 6.615-2.985 6.615-6.667 0-3.681-2.961-6.666-6.615-6.666"></path></svg>