<svg width="518" height="306" viewBox="0 0 518 306" fill="none" xmlns="http://www.w3.org/2000/svg">
  <g clip-path="url(#clip0_232_278)">
    <path
      d="M476.228 172.935C489.053 172.935 499.45 159.458 499.45 142.833C499.45 126.209 489.053 112.731 476.228 112.731C463.402 112.731 453.005 126.209 453.005 142.833C453.005 159.458 463.402 172.935 476.228 172.935Z"
      fill="#9C7EFF" />
    <path
      d="M476.228 150.755C479.603 150.755 482.339 147.208 482.339 142.833C482.339 138.458 479.603 134.912 476.228 134.912C472.852 134.912 470.116 138.458 470.116 142.833C470.116 147.208 472.852 150.755 476.228 150.755Z"
      fill="#E6E6E6" />
    <path
      d="M475.111 143.003C477.685 145.725 478.47 150.015 477.991 154.158C477.402 158.702 475.584 162.825 472.861 165.788C469.8 169.315 466.066 171.698 462.463 174.138C459.153 176.328 455.971 178.831 452.945 181.628C441.357 192.544 432.603 208.088 427.593 225.434C422.592 242.75 421.25 262.405 425.05 280.352C426.931 289.231 430.735 298.812 437.822 302.153C443.471 304.816 451.183 303.1 454.06 295.554C457.149 287.447 452.838 278.334 447.286 274.31C440.088 269.093 431.49 272.905 425.016 278.186C417.888 283.999 412.158 292.342 404.717 297.553C401.367 299.972 397.64 301.382 393.812 301.676C390.297 301.855 386.788 301.153 383.479 299.607C376.612 296.364 370.701 290.416 366.574 282.598C361.848 273.692 359.732 262.775 359.346 252.08C358.483 228.152 365.775 205.767 371.626 183.577C374.77 172.021 377.126 160.131 378.665 148.041C380.129 135.89 380.65 123.58 380.221 111.294C379.834 100.431 379.007 89.0711 375.308 79.1494C372.055 70.4251 366.111 63.2848 358.596 61.4846C355.208 60.6228 351.698 61.1455 348.549 62.9805C347.477 63.6144 348.408 65.6632 349.475 65.0325C356.125 61.0998 363.986 64.9263 368.899 71.2761C374.635 78.6912 376.741 89.6413 377.677 99.7452C379.779 123.69 378.122 147.94 372.807 171.034C367.706 193.493 359.683 215.015 357.831 238.546C356.986 249.283 357.42 260.383 360.068 270.679C362.34 279.851 366.599 287.981 372.338 294.1C377.742 299.762 384.39 303.62 391.388 304.05C399.243 304.533 406.132 299.993 412.227 293.954C418.754 287.487 424.76 279.506 432.667 275.88C436.272 274.227 440.378 273.455 444.079 275.047C447.254 276.453 449.947 279.26 451.689 282.978C453.296 286.442 453.889 290.774 452.422 294.497C451.043 297.996 448.351 300.02 445.437 300.713C442.351 301.42 439.171 300.72 436.438 298.731C433.246 296.368 430.91 292.401 429.273 288.21C426.01 279.854 424.913 269.906 424.747 260.63C424.601 251.57 425.497 242.532 427.404 233.813C431.199 216.177 438.861 200.346 449.459 188.241C452.129 185.226 454.985 182.5 457.999 180.091C461.287 177.464 464.796 175.365 468.148 172.887C471.446 170.448 474.696 167.534 476.968 163.521C478.904 160.081 479.949 155.935 479.954 151.677C479.989 149.719 479.689 147.775 479.076 145.985C478.462 144.195 477.551 142.603 476.408 141.322C475.501 140.363 474.196 142.035 475.111 143.003Z"
      fill="#617389" />
    <path
      d="M258.313 281.46C266.433 288.264 275.827 292.081 285.49 292.503C285.318 293.033 285.124 293.552 284.909 294.056C283.785 296.747 282.195 299.065 280.265 300.829C277.979 302.914 275.296 304.145 272.508 304.388C269.719 304.632 266.933 303.878 264.453 302.209C261.972 300.54 259.893 298.02 258.442 294.924C256.991 291.828 256.223 288.275 256.223 284.653V281.46H258.313Z"
      fill="#DCD3FB" />
    <path
      d="M315.313 282.395V284.653C315.314 289.048 314.185 293.319 312.105 296.79C310.025 300.261 307.112 302.735 303.827 303.82C300.541 304.906 297.07 304.542 293.962 302.785C290.853 301.028 288.285 297.979 286.663 294.119C286.44 293.603 286.238 293.071 286.058 292.527C286.504 292.543 286.944 292.551 287.391 292.551C297.242 292.566 306.905 289.051 315.313 282.395Z"
      fill="#DCD3FB" />
    <path
      d="M335.871 43.6556C335.413 43.5685 334.948 43.513 334.484 43.4734C339.761 59.2396 340.127 77.0415 335.504 93.1494C335.969 93.0781 336.427 92.9831 336.886 92.8722C341.361 91.7481 345.384 88.6018 348.237 83.9934C351.091 79.3851 352.59 73.6137 352.468 67.7066C352.347 61.7995 350.612 56.1401 347.572 51.7359C344.533 47.3316 340.386 44.4683 335.871 43.6556Z"
      fill="#DCD3FB" />
    <path
      d="M240.297 43.4734C239.833 43.513 239.368 43.5684 238.91 43.6556C234.395 44.4682 230.248 47.3316 227.209 51.7358C224.17 56.1401 222.435 61.7995 222.313 67.7066C222.191 73.6136 223.69 79.3851 226.544 83.9935C229.398 88.6018 233.42 91.7481 237.896 92.8722C238.354 92.9831 238.812 93.0781 239.277 93.1494C234.654 77.0415 235.02 59.2396 240.297 43.4734Z"
      fill="#DCD3FB" />
    <path
      d="M335.871 43.6555C330.836 28.0658 321.511 15.4585 309.706 8.28281C297.902 1.10716 284.461 -0.124458 271.995 4.82723C259.528 9.77893 248.927 20.5604 242.251 35.077C235.575 49.5936 233.299 66.8089 235.867 83.3783C238.436 99.9478 245.663 114.688 256.147 124.736C266.631 134.784 279.622 139.422 292.596 137.749C305.57 136.075 317.601 128.21 326.352 115.682C335.103 103.153 339.948 86.8556 339.947 69.955C339.945 60.9252 338.559 51.9859 335.871 43.6555ZM335.504 93.1493C331.034 108.726 322.227 121.57 310.818 129.153C299.408 136.735 286.223 138.508 273.856 134.121C261.489 129.734 250.836 119.506 243.995 105.45C237.154 91.3932 234.62 74.5267 236.891 58.1697C239.162 41.8127 246.075 27.1502 256.267 17.0678C266.46 6.9855 279.195 2.21374 291.966 3.69173C304.737 5.16971 316.619 12.7904 325.272 25.0538C333.926 37.3173 338.725 53.3353 338.725 69.955C338.723 77.8731 337.632 85.7273 335.504 93.1493Z"
      fill="#DCD3FB" />
    <path
      d="M314.28 54.5081H260.501C257.665 54.5081 254.945 55.9686 252.939 58.5684C250.933 61.1681 249.807 64.6942 249.807 68.3708C249.807 72.0474 250.933 75.5734 252.939 78.1732C254.945 80.7729 257.665 82.2335 260.501 82.2335H314.28C317.116 82.2335 319.837 80.7729 321.842 78.1732C323.848 75.5734 324.975 72.0474 324.975 68.3708C324.975 64.6942 323.848 61.1681 321.842 58.5684C319.837 55.9686 317.116 54.5081 314.28 54.5081Z"
      fill="#9C7EFF" />
    <path
      d="M287.391 151.547C273.023 151.556 259.229 158.851 248.958 171.874C238.687 184.896 232.755 202.611 232.431 221.23C232.106 239.849 237.416 257.893 247.223 271.502C257.03 285.112 270.557 293.207 284.909 294.056C285.49 294.095 286.077 294.119 286.663 294.119C286.908 294.135 287.146 294.135 287.391 294.135C301.978 294.135 315.968 286.624 326.282 273.254C336.597 259.883 342.392 241.749 342.392 222.841C342.392 203.933 336.597 185.799 326.282 172.429C315.968 159.058 301.978 151.547 287.391 151.547ZM315.313 282.395C306.905 289.051 297.242 292.566 287.391 292.551C286.944 292.551 286.504 292.543 286.058 292.527C285.869 292.527 285.679 292.519 285.49 292.503C272.576 291.921 260.255 285.335 250.778 273.948C241.301 262.562 235.302 247.135 233.877 230.487C232.452 213.839 235.697 197.083 243.017 183.28C250.337 169.478 261.245 159.551 273.747 155.314C286.248 151.076 299.509 152.812 311.105 160.203C322.7 167.595 331.857 180.148 336.901 195.569C341.945 210.99 342.539 228.249 338.575 244.191C334.612 260.133 326.354 273.694 315.313 282.395Z"
      fill="#DCD3FB" />
    <path
      d="M325.993 205.282H301.956C300.281 205.282 298.675 204.419 297.49 202.884C296.306 201.349 295.641 199.267 295.641 197.096C295.641 194.925 296.306 192.843 297.49 191.308C298.675 189.773 300.281 188.91 301.956 188.91H325.993C327.668 188.91 329.274 189.773 330.459 191.308C331.643 192.843 332.308 194.925 332.308 197.096C332.308 199.267 331.643 201.349 330.459 202.884C329.274 204.419 327.668 205.282 325.993 205.282Z"
      fill="#DCD3FB" />
    <path
      d="M303.558 201.25C305.328 201.25 306.763 199.39 306.763 197.096C306.763 194.802 305.328 192.942 303.558 192.942C301.788 192.942 300.353 194.802 300.353 197.096C300.353 199.39 301.788 201.25 303.558 201.25Z"
      fill="#DCD3FB" />
    <path
      d="M313.974 201.25C315.744 201.25 317.179 199.39 317.179 197.096C317.179 194.802 315.744 192.942 313.974 192.942C312.204 192.942 310.769 194.802 310.769 197.096C310.769 199.39 312.204 201.25 313.974 201.25Z"
      fill="#DCD3FB" />
    <path
      d="M324.391 201.25C326.161 201.25 327.596 199.39 327.596 197.096C327.596 194.802 326.161 192.942 324.391 192.942C322.621 192.942 321.186 194.802 321.186 197.096C321.186 199.39 322.621 201.25 324.391 201.25Z"
      fill="#9C7EFF" />
    <path
      d="M100.606 302.364C106.102 296.344 109.44 286.836 108.565 277.579C107.689 268.322 102.267 259.812 95.234 257.847C88.2008 255.881 80.1835 261.322 78.0473 270.228C76.8716 253.058 75.5169 235.169 68.4746 220.548C62.0979 207.308 51.0535 197.835 39.0838 196.14C27.1141 194.446 14.5116 200.847 7.04653 213.093C-0.418525 225.339 -2.24632 243.142 2.98201 257.202C6.83354 267.559 13.9294 275.267 21.3641 281.538C45.0834 301.544 74.5072 308.303 102.504 302.963L100.606 302.364Z"
      fill="#152B70" />
    <path
      d="M18.8832 201.201C28.7596 211.629 37.8203 223.291 45.934 236.02C54.049 248.735 61.1934 262.441 67.2668 276.945C70.6616 285.08 73.7111 293.45 76.402 302.017C76.9506 303.76 74.7675 304.519 74.225 302.795C69.4589 287.692 63.5623 273.231 56.6199 259.618C49.7111 246.055 41.8037 233.393 33.0086 221.81C28.0341 215.261 22.7856 209.072 17.2868 203.27C16.1597 202.081 17.7654 200.021 18.8832 201.201Z"
      fill="#DCD3FB" />
    <path
      d="M98.7432 52.2823C109.206 52.2823 117.688 41.2879 117.688 27.7255C117.688 14.1632 109.206 3.1687 98.7432 3.1687C88.2802 3.1687 79.7983 14.1632 79.7983 27.7255C79.7983 41.2879 88.2802 52.2823 98.7432 52.2823Z"
      fill="#3F3D56" />
    <path
      d="M169.399 117.644C169.036 118.352 168.594 118.985 168.086 119.524C167.355 120.305 166.505 120.877 165.592 121.202C164.679 121.528 163.722 121.6 162.786 121.413C161.85 121.226 160.955 120.785 160.159 120.118C159.363 119.452 158.686 118.575 158.17 117.545C158.05 117.305 157.941 117.057 157.841 116.802L127.988 113.069C125.632 112.762 123.415 111.479 121.666 109.41C119.917 107.341 118.729 104.596 118.279 101.583L116.585 90.0037L128.235 87.6543L130.326 96.9292L159.433 106.197C159.658 105.94 159.897 105.705 160.148 105.492C161.446 104.399 162.996 103.921 164.534 104.138C166.073 104.355 167.507 105.253 168.594 106.681C169.681 108.109 170.355 109.98 170.502 111.977C170.649 113.974 170.259 115.976 169.399 117.644Z"
      fill="#FFB8B8" />
    <path
      d="M131.042 95.5293L118.027 100.086C117.323 100.332 116.573 100.205 115.941 99.7344C115.308 99.2635 114.846 98.4868 114.655 97.5747L110.097 75.7018C109.609 73.3589 109.807 70.8646 110.653 68.6999C111.5 66.5351 112.934 64.8533 114.681 63.9786C116.427 63.104 118.362 63.0985 120.111 63.9631C121.861 64.8278 123.301 66.5015 124.155 68.6613L132.772 90.4624C132.959 90.9351 133.062 91.4559 133.074 91.9868C133.085 92.5177 133.005 93.0453 132.839 93.5309C132.674 94.0166 132.426 94.4481 132.115 94.7938C131.804 95.1395 131.437 95.3908 131.042 95.5293Z"
      fill="#3F3D56" />
    <path d="M123.503 296.371H130.995L134.56 258.912L123.501 258.913L123.503 296.371Z" fill="#FFB8B8" />
    <path
      d="M145.445 305.388L121.898 305.39L121.897 293.597L136.347 293.596C138.759 293.596 141.074 294.838 142.78 297.05C144.486 299.261 145.445 302.261 145.445 305.388Z"
      fill="#3F3D56" />
    <path d="M56.7256 286.907L63.7352 290.337L77.2789 256.925L66.9338 251.863L56.7256 286.907Z" fill="#FFB8B8" />
    <path
      d="M74.7954 305.39L52.7663 294.608L55.98 283.576L69.4978 290.192C71.7551 291.296 73.5814 293.518 74.5749 296.368C75.5684 299.219 75.6477 302.464 74.7954 305.39Z"
      fill="#3F3D56" />
    <path
      d="M123.266 287.671C122.686 287.67 122.12 287.431 121.65 286.988C121.181 286.545 120.832 285.92 120.653 285.204L101.544 208.71C101.488 208.483 101.38 208.284 101.235 208.137C101.09 207.991 100.914 207.905 100.73 207.89C100.547 207.875 100.364 207.931 100.206 208.053C100.047 208.174 99.9209 208.354 99.8426 208.57L73.3599 281.607C73.073 282.397 72.5729 283.023 71.954 283.367C71.3351 283.711 70.6405 283.749 70.0015 283.473L59.5716 278.966C58.9091 278.678 58.3558 278.075 58.0236 277.278C57.6914 276.481 57.6052 275.551 57.7824 274.674L74.0043 195.026C75.7017 186.589 76.9278 178.004 77.6731 169.339C78.8107 155.069 83.9719 141.846 92.167 132.205C95.7452 127.955 98.0713 122.224 98.7463 115.995L98.79 115.597L122.547 120.459L137.595 279.625C137.672 280.477 137.512 281.336 137.142 282.048C136.772 282.759 136.218 283.274 135.58 283.5L123.984 287.547C123.75 287.629 123.509 287.671 123.266 287.671Z"
      fill="#3F3D56" />
    <path
      d="M106.269 52.1652C114.559 52.1652 121.279 43.4544 121.279 32.7091C121.279 21.9637 114.559 13.2529 106.269 13.2529C97.9794 13.2529 91.2593 21.9637 91.2593 32.7091C91.2593 43.4544 97.9794 52.1652 106.269 52.1652Z"
      fill="#FFB8B8" />
    <path
      d="M121.07 123.852C121.023 123.852 120.976 123.851 120.929 123.848L97.3787 122.322C96.7214 122.283 96.0968 121.939 95.6195 121.352C95.1422 120.764 94.8442 119.974 94.7802 119.125L91.563 78.4652C91.3275 75.4876 91.6573 72.4806 92.5236 69.706C93.39 66.9315 94.7667 64.4737 96.5337 62.5468C98.3007 60.6199 100.404 59.2823 102.662 58.6507C104.919 58.019 107.261 58.1124 109.484 58.9228C111.325 59.5766 113.042 60.721 114.523 62.2829C131.089 79.918 125.748 111.87 123.716 121.243C123.557 121.994 123.211 122.656 122.733 123.127C122.255 123.599 121.671 123.854 121.07 123.852Z"
      fill="#9C7EFF" />
    <path
      d="M100.582 151.155C99.9268 151.155 99.2748 151.028 98.648 150.779C97.7414 150.423 96.903 149.822 96.1879 149.017C95.4728 148.211 94.8971 147.219 94.4984 146.105C94.0998 144.991 93.8872 143.781 93.8747 142.553C93.8621 141.325 94.0499 140.108 94.4256 138.981C94.5136 138.719 94.6121 138.463 94.7209 138.215L80.5824 103.929C79.474 101.217 79.0699 98.1135 79.4301 95.0799C79.7903 92.0462 80.8956 89.2439 82.5818 87.089L89.0804 78.8464L97.043 90.1184L92.2439 97.5124L102.414 134.058C102.704 134.159 102.988 134.286 103.263 134.439C104.684 135.235 105.849 136.642 106.563 138.423C107.276 140.203 107.493 142.249 107.178 144.213C106.863 146.177 106.035 147.94 104.833 149.205C103.632 150.47 102.13 151.158 100.582 151.155Z"
      fill="#FFB8B8" />
    <path
      d="M93.5394 97.5094L83.4033 85.9885C82.8557 85.3646 82.5213 84.4846 82.4736 83.5416C82.4258 82.5985 82.6686 81.6694 83.1487 80.9581L94.6726 63.9228C95.907 62.098 97.6189 60.9303 99.4781 60.6447C101.337 60.3591 103.212 60.9759 104.742 62.3762C106.271 63.7765 107.346 65.8611 107.76 68.228C108.173 70.5949 107.896 73.0765 106.982 75.1944L97.7524 96.5701C97.5523 97.0336 97.2749 97.4333 96.9403 97.74C96.6058 98.0466 96.2226 98.2525 95.8188 98.3425C95.4149 98.4325 95.0007 98.4044 94.6064 98.2603C94.212 98.1161 93.8475 97.8596 93.5394 97.5094Z"
      fill="#3F3D56" />
    <path
      d="M96.6102 51.6084C97.9797 52.2379 99.6587 52.7928 100.736 51.4874C101.788 50.2129 101.597 47.8822 100.977 46.1653C100.357 44.4483 99.396 42.9203 99.1013 41.0515C98.6789 38.3731 99.771 35.5906 101.33 33.8444C102.889 32.0982 104.851 31.1809 106.767 30.2982L117.274 25.4568C119.875 24.2584 122.677 22.8506 124.133 19.6969C126.239 15.1336 124.313 8.61059 120.859 5.94781C117.405 3.28504 113.041 3.7811 109.314 5.65344C107.253 6.68899 105.292 8.11598 103.161 8.84495C98.9534 10.2836 94.1698 8.99298 90.4727 12.0678C87.2544 14.7444 85.7617 20.2059 85.8701 25.3161C85.9785 30.4262 87.4301 35.2929 88.9611 39.9664C89.872 42.7468 90.8451 45.5592 92.3879 47.7706C93.9308 49.982 96.1603 51.5291 98.3874 51.1221L96.6102 51.6084Z"
      fill="#3F3D56" />
    <path
      d="M82.8539 31.6862C89.6042 31.6862 95.0764 24.593 95.0764 15.8431C95.0764 7.0932 89.6042 0 82.8539 0C76.1037 0 70.6315 7.0932 70.6315 15.8431C70.6315 24.593 76.1037 31.6862 82.8539 31.6862Z"
      fill="#3F3D56" />
    <path
      d="M181.985 107.298L181.768 107.259L182.585 99.5571C182.711 98.3748 182.468 97.1764 181.912 96.2255C181.356 95.2746 180.531 94.649 179.619 94.4865L167.03 92.2434C166.118 92.0808 165.193 92.3946 164.46 93.1157C163.726 93.8368 163.244 94.9061 163.118 96.0884L158.637 138.342C158.512 139.525 158.754 140.723 159.31 141.674C159.866 142.625 160.691 143.25 161.603 143.413L174.192 145.656C175.104 145.819 176.029 145.505 176.763 144.784C177.496 144.063 177.979 142.993 178.104 141.811L181.187 112.741L181.404 112.78L181.985 107.298Z"
      fill="#DCD3FB" />
    <path
      d="M179.223 96.7462L177.656 96.4669C177.704 96.7088 177.705 96.9623 177.659 97.2049C177.614 97.4476 177.523 97.672 177.394 97.8583C177.266 98.0447 177.105 98.1873 176.924 98.2736C176.743 98.3599 176.549 98.3873 176.358 98.3532L169.479 97.1275C169.288 97.0935 169.106 96.9991 168.95 96.8528C168.794 96.7064 168.668 96.5126 168.584 96.2883C168.499 96.064 168.458 95.8161 168.465 95.5665C168.471 95.317 168.525 95.0733 168.621 94.8571L167.158 94.5963C166.836 94.5389 166.509 94.5643 166.194 94.6709C165.88 94.7775 165.585 94.9633 165.327 95.2177C165.068 95.472 164.85 95.7899 164.686 96.1532C164.522 96.5165 164.415 96.9181 164.371 97.3351L160.103 137.58C160.014 138.422 160.186 139.276 160.583 139.953C160.979 140.631 161.566 141.076 162.216 141.192L174.282 143.342C174.931 143.458 175.59 143.234 176.112 142.72C176.635 142.207 176.979 141.445 177.068 140.603L181.336 100.358C181.425 99.5158 181.253 98.6622 180.857 97.9848C180.46 97.3075 179.873 96.8619 179.223 96.7462Z"
      fill="#DCD3FB" />
    <path
      d="M170.666 130.159C174.379 130.159 177.388 126.258 177.388 121.445C177.388 116.633 174.379 112.731 170.666 112.731C166.953 112.731 163.944 116.633 163.944 121.445C163.944 126.258 166.953 130.159 170.666 130.159Z"
      fill="#9C7EFF" />
    <path
      d="M170 124.769C169.848 124.77 169.701 124.706 169.58 124.589L169.573 124.581L167.993 123.014C167.919 122.941 167.858 122.851 167.811 122.747C167.765 122.644 167.734 122.529 167.722 122.41C167.71 122.292 167.716 122.171 167.739 122.055C167.763 121.94 167.804 121.831 167.86 121.736C167.917 121.641 167.987 121.561 168.067 121.501C168.147 121.441 168.235 121.403 168.327 121.387C168.418 121.372 168.512 121.38 168.601 121.411C168.69 121.442 168.774 121.496 168.847 121.569L169.87 122.586L172.288 118.499C172.344 118.404 172.414 118.324 172.494 118.264C172.574 118.205 172.662 118.166 172.753 118.15C172.845 118.135 172.937 118.142 173.026 118.173C173.116 118.204 173.199 118.257 173.272 118.33C173.42 118.477 173.517 118.694 173.541 118.934C173.565 119.173 173.516 119.415 173.402 119.606L170.558 124.414C170.492 124.525 170.408 124.615 170.311 124.676C170.214 124.738 170.108 124.77 170 124.769Z"
      fill="#DCD3FB" />
    <path
      d="M517.272 306H4.36038C4.16776 305.999 3.98322 305.9 3.84721 305.723C3.71121 305.546 3.63483 305.306 3.63483 305.057C3.63483 304.807 3.71121 304.568 3.84721 304.391C3.98322 304.214 4.16776 304.114 4.36038 304.114H517.272C517.465 304.114 517.65 304.213 517.787 304.39C517.923 304.567 518 304.807 518 305.057C518 305.307 517.923 305.547 517.787 305.724C517.65 305.901 517.465 306 517.272 306Z"
      fill="#617389" />
  </g>
  <defs>
    <clipPath id="clip0_232_278">
      <rect width="518" height="306" fill="white" />
    </clipPath>
  </defs>
</svg>