<svg width="603" height="326" viewBox="0 0 603 326" fill="none" xmlns="http://www.w3.org/2000/svg">
  <g clip-path="url(#clip0_232_320)">
    <path
      d="M389.897 73.904C401.316 73.904 410.572 66.482 410.572 57.3265C410.572 48.171 401.316 40.749 389.897 40.749C378.479 40.749 369.223 48.171 369.223 57.3265C369.223 66.482 378.479 73.904 389.897 73.904Z"
      fill="#DCD3FB" />
    <path d="M469.469 173.573L115.653 0L-4.19905e-06 151.572L353.816 325.145L469.469 173.573Z" fill="#051245" />
    <path
      d="M438.03 221.651C434.8 215.693 429.825 210.461 419.876 206.058C414.733 203.727 409.209 201.983 403.465 200.877C407.33 199.437 410.885 197.514 413.996 195.179C418.57 191.9 422.037 187.748 424.075 183.108C425.951 178.393 426.718 173.439 426.336 168.499C425.626 159.796 423.494 151.352 417.808 145.291C412.123 139.23 404.111 134.567 393.515 131.304C385.375 128.817 377.04 127.263 364.119 126.693V93.5898L338.276 106.541V126.745H317.601V105.505L291.112 93.5898V126.745H234.838L252.929 151.611C258.517 151.616 262.303 152.031 264.235 152.803C266.038 153.421 267.521 154.519 268.434 155.911C269.274 157.206 269.662 160.262 269.662 164.977V254.702C269.662 259.365 269.274 262.37 268.434 263.716C267.595 265.063 267.142 266.255 265.139 266.98C263.137 267.705 263.072 267.654 257.516 267.654H257.451L234.838 292.52H291.047V325.675H317.536V292.52H338.211V325.675H364.054V292.313C380.852 291.639 392.805 289.878 402.431 286.977C414.901 283.247 424.463 277.807 431.311 270.658C438.16 263.509 440.938 252.578 441.519 244.134C441.971 236.623 440.938 226.935 438.03 221.651ZM317.536 154.719H317.543V154.03H335.607C345.77 154.03 379.638 151.316 380.2 173.493C380.768 195.671 335.607 194.764 335.607 194.764H317.543V193.055H317.536V154.719ZM317.536 217.921H338.211C342.411 217.921 356.857 218.434 362.116 218.626C364.26 218.688 366.383 218.992 368.422 219.527C369.165 219.729 369.869 219.957 370.631 220.211C373.818 221.037 376.824 222.257 379.541 223.827C381.312 224.765 382.87 225.939 384.147 227.298C384.701 227.911 385.21 228.549 385.672 229.209C386.895 230.869 387.803 232.666 388.366 234.54C388.982 236.35 389.301 238.217 389.316 240.094C389.316 244.129 388.386 247.47 386.092 250.299C382.984 254.474 377.887 257.433 372.15 259.52C357.316 264.929 338.211 264.545 338.211 264.545H317.536V217.921Z"
      fill="#DCD3FB" />
    <path opacity="0.3"
      d="M395.492 58.0242C395.296 57.6359 394.936 57.3155 394.474 57.1192C394.187 56.9843 393.877 56.883 393.554 56.8186C393.772 56.7345 393.971 56.6228 394.145 56.4879C394.403 56.2956 394.597 56.0548 394.71 55.7873C394.815 55.5131 394.858 55.2259 394.837 54.9395C394.835 54.4638 394.669 53.9977 394.359 53.5926C394.012 53.2223 393.539 52.9404 392.997 52.7808C392.47 52.6171 391.913 52.5266 391.349 52.5132V50.592L389.9 51.3437V52.5162H388.741V51.2835L387.256 50.592V52.5162H384.101L385.115 53.9593C385.33 53.9475 385.546 53.9711 385.749 54.0285C385.851 54.0651 385.934 54.1288 385.985 54.2089C386.046 54.3796 386.07 54.5578 386.054 54.735V59.9423C386.069 60.1186 386.046 60.2957 385.985 60.4655C385.938 60.5436 385.912 60.6128 385.8 60.6549C385.688 60.697 385.684 60.694 385.373 60.694H385.369L384.101 62.1371H387.252V64.0613H388.737V62.1371H389.896V64.0613H391.345V62.1251C392.078 62.1146 392.805 62.0101 393.497 61.8154C394.139 61.6314 394.701 61.3025 395.115 60.8683C395.477 60.4064 395.675 59.8742 395.688 59.329C395.726 58.8881 395.66 58.4453 395.492 58.0242ZM388.737 54.1398L388.738 54.0998H389.75C390.32 54.0998 392.219 53.9422 392.25 55.2293C392.282 56.5164 389.75 56.4638 389.75 56.4638H388.738V56.3646L388.737 54.1398ZM388.737 57.8077H389.896C390.132 57.8077 390.942 57.8375 391.236 57.8486C391.357 57.8523 391.476 57.8699 391.59 57.9009C391.632 57.9127 391.671 57.9259 391.714 57.9406C391.893 57.9888 392.062 58.0597 392.213 58.1505C392.313 58.2053 392.4 58.2734 392.472 58.3519C392.581 58.4795 392.661 58.6218 392.708 58.7722C392.743 58.8774 392.76 58.9857 392.761 59.0945C392.773 59.3018 392.71 59.5074 392.581 59.6868C392.395 59.9252 392.122 60.112 391.799 60.222C391.195 60.4201 390.548 60.5193 389.896 60.5136H388.737V57.8077Z"
      fill="#9C7EFF" />
    <path
      d="M515.656 246.483C519.841 246.483 523.234 243.762 523.234 240.407C523.234 237.051 519.841 234.33 515.656 234.33C511.471 234.33 508.078 237.051 508.078 240.407C508.078 243.762 511.471 246.483 515.656 246.483Z"
      fill="#FF6584" />
    <path d="M575.396 306.551V237.366" stroke="#3F3D56" stroke-width="2" stroke-miterlimit="10" />
    <path
      d="M575.396 247.15C582.135 247.15 587.598 242.77 587.598 237.366C587.598 231.963 582.135 227.583 575.396 227.583C568.657 227.583 563.194 231.963 563.194 237.366C563.194 242.77 568.657 247.15 575.396 247.15Z"
      fill="#3F3D56" />
    <path
      d="M551.365 276.103C533.741 297.776 538.57 325.34 538.57 325.34C538.57 325.34 571.974 317.767 589.599 296.094C607.224 274.422 602.395 246.858 602.395 246.858C602.395 246.858 568.99 254.431 551.365 276.103Z"
      fill="#3F3D56" />
    <path
      d="M538.476 325.088C538.476 325.088 538.047 325.033 537.257 324.905C536.627 324.802 535.76 324.656 534.701 324.455C525.234 322.665 500.066 316.615 483.611 300.709C463.016 280.792 463.884 252.966 463.884 252.966C463.884 252.966 495.374 257.068 516.124 274.954C517.023 275.723 517.898 276.52 518.748 277.344C536.668 294.674 538.339 317.991 538.471 323.756C538.49 324.619 538.476 325.088 538.476 325.088Z"
      fill="#9C7EFF" />
    <path
      d="M525.774 276.103C543.399 297.776 538.57 325.34 538.57 325.34C538.57 325.34 505.165 317.767 487.54 296.094C469.915 274.422 474.745 246.858 474.745 246.858C474.745 246.858 508.149 254.431 525.774 276.103Z"
      stroke="#3F3D56" stroke-width="2" stroke-miterlimit="10" />
    <path opacity="0.1"
      d="M538.471 323.756C538.006 324.206 537.595 324.59 537.257 324.905C536.509 325.589 536.084 325.948 536.084 325.948C536.084 325.948 535.568 325.428 534.701 324.455C529.941 319.133 514.627 300.211 515.809 278.354C515.873 277.209 515.978 276.075 516.124 274.954C517.023 275.723 517.898 276.52 518.748 277.344C536.669 294.674 538.339 317.991 538.471 323.756Z"
      fill="black" />
    <path
      d="M564.604 279.935C563.211 305.784 539.281 325.948 539.281 325.948C539.281 325.948 517.609 304.204 519.002 278.355C520.396 252.506 544.326 232.342 544.326 232.342C544.326 232.342 565.997 254.086 564.604 279.935Z"
      fill="#9C7EFF" />
    <path d="M539.281 325.216L544.542 233.396" stroke="#3F3D56" stroke-width="2" stroke-miterlimit="10" />
    <path d="M37.1313 325.317H583.728" stroke="#3F3D56" stroke-width="2" stroke-miterlimit="10" />
    <path
      d="M153.221 213.339C168.468 213.339 180.828 203.428 180.828 191.203C180.828 178.978 168.468 169.067 153.221 169.067C137.975 169.067 125.615 178.978 125.615 191.203C125.615 203.428 137.975 213.339 153.221 213.339Z"
      fill="#9C7EFF" />
    <path
      d="M106.297 265.436C121.544 265.436 133.904 255.525 133.904 243.3C133.904 231.075 121.544 221.164 106.297 221.164C91.0501 221.164 78.6901 231.075 78.6901 243.3C78.6901 255.525 91.0501 265.436 106.297 265.436Z"
      fill="#9C7EFF" />
    <path
      d="M48.5436 307.041C63.7905 307.041 76.1505 297.13 76.1505 284.905C76.1505 272.68 63.7905 262.769 48.5436 262.769C33.2968 262.769 20.9368 272.68 20.9368 284.905C20.9368 297.13 33.2968 307.041 48.5436 307.041Z"
      fill="#9C7EFF" />
    <path d="M48.519 324.937V284.783" stroke="#3F3D56" stroke-width="2" stroke-miterlimit="10" />
    <path
      d="M48.5191 290.462C52.4302 290.462 55.6008 287.919 55.6008 284.783C55.6008 281.647 52.4302 279.105 48.5191 279.105C44.608 279.105 41.4374 281.647 41.4374 284.783C41.4374 287.919 44.608 290.462 48.5191 290.462Z"
      fill="#3F3D56" />
    <path d="M48.5191 309.531C48.5191 309.531 47.5074 292.084 26.7682 294.112L48.5191 309.531Z" fill="#3F3D56" />
    <path d="M153.239 325.219V191.284" stroke="#3F3D56" stroke-width="2" stroke-miterlimit="10" />
    <path
      d="M153.239 196.899C157.15 196.899 160.32 194.357 160.32 191.221C160.32 188.085 157.15 185.543 153.239 185.543C149.328 185.543 146.157 188.085 146.157 191.221C146.157 194.357 149.328 196.899 153.239 196.899Z"
      fill="#3F3D56" />
    <path
      d="M131.488 293.802C135.399 293.802 138.57 291.259 138.57 288.123C138.57 284.987 135.399 282.445 131.488 282.445C127.577 282.445 124.406 284.987 124.406 288.123C124.406 291.259 127.577 293.802 131.488 293.802Z"
      fill="#3F3D56" />
    <path d="M153.239 220.226C153.239 220.226 152.227 202.779 131.488 204.807L153.239 220.226Z" fill="#3F3D56" />
    <path d="M153.239 269.686C153.239 269.686 152.227 252.239 131.488 254.267L153.239 269.686Z" fill="#3F3D56" />
    <path d="M153.239 323.658C153.239 323.658 157.791 289.746 131.488 288.123" stroke="#3F3D56" stroke-width="2"
      stroke-miterlimit="10" />
    <path
      d="M174.993 293.802C178.904 293.802 182.075 291.259 182.075 288.123C182.075 284.987 178.904 282.445 174.993 282.445C171.082 282.445 167.911 284.987 167.911 288.123C167.911 291.259 171.082 293.802 174.993 293.802Z"
      fill="#3F3D56" />
    <path d="M153.242 323.658C153.242 323.658 148.689 289.746 174.993 288.123" stroke="#3F3D56" stroke-width="2"
      stroke-miterlimit="10" />
    <path
      d="M175.424 240.537C179.335 240.537 182.506 237.995 182.506 234.859C182.506 231.722 179.335 229.18 175.424 229.18C171.513 229.18 168.342 231.722 168.342 234.859C168.342 237.995 171.513 240.537 175.424 240.537Z"
      fill="#3F3D56" />
    <path d="M153.673 268.584C153.673 268.584 149.121 236.481 175.424 234.859" stroke="#3F3D56" stroke-width="2"
      stroke-miterlimit="10" />
    <path d="M106.322 325.03V243.275" stroke="#3F3D56" stroke-width="2" stroke-miterlimit="10" />
    <path
      d="M106.322 248.953C110.233 248.953 113.404 246.411 113.404 243.275C113.404 240.139 110.233 237.597 106.322 237.597C102.411 237.597 99.2404 240.139 99.2404 243.275C99.2404 246.411 102.411 248.953 106.322 248.953Z"
      fill="#3F3D56" />
    <path d="M106.322 266.4C106.322 266.4 105.31 248.953 84.5712 250.981L106.322 266.4Z" fill="#3F3D56" />
    <path d="M106.322 323.469C106.322 323.469 110.875 289.919 84.5712 288.296" stroke="#3F3D56" stroke-width="2"
      stroke-miterlimit="10" />
    <path
      d="M84.5711 293.975C88.4822 293.975 91.6528 291.432 91.6528 288.296C91.6528 285.16 88.4822 282.618 84.5711 282.618C80.66 282.618 77.4894 285.16 77.4894 288.296C77.4894 291.432 80.66 293.975 84.5711 293.975Z"
      fill="#3F3D56" />
    <path
      d="M495.208 200.826C501.631 200.826 506.838 196.651 506.838 191.501C506.838 186.351 501.631 182.176 495.208 182.176C488.786 182.176 483.579 186.351 483.579 191.501C483.579 196.651 488.786 200.826 495.208 200.826Z"
      fill="#DCD3FB" />
    <path opacity="0.1"
      d="M372.15 259.52C357.316 264.929 338.211 264.545 338.211 264.545H317.536V261.38C325.961 259.494 337.61 258.329 350.487 258.329C357.734 258.309 364.974 258.707 372.15 259.52Z"
      fill="black" />
    <path opacity="0.1"
      d="M397.004 268.69C397.004 274.414 376.175 279.051 350.487 279.051C324.798 279.051 303.969 274.414 303.969 268.69C303.969 265.835 309.15 263.25 317.537 261.38V264.545H338.211C338.211 264.545 357.316 264.929 372.15 259.52C386.926 261.251 397.004 264.706 397.004 268.69Z"
      fill="black" />
    <path d="M356.428 204.177H336.635V220.076H356.428V204.177Z" fill="#2F2E41" />
    <path
      d="M343.996 215.42C343.996 215.42 345.634 220.018 342.767 220.346C340.988 220.569 339.302 221.132 337.852 221.988L343.177 227.571H353.006L359.15 222.645C359.15 222.645 350.959 217.719 352.597 214.764C354.235 211.808 343.996 215.42 343.996 215.42Z"
      fill="#FFB9B9" />
    <path opacity="0.1"
      d="M343.996 215.42C343.996 215.42 345.634 220.018 342.767 220.346C340.988 220.569 339.302 221.132 337.852 221.988L343.177 227.571H353.006L359.15 222.645C359.15 222.645 350.959 217.719 352.597 214.764C354.235 211.808 343.996 215.42 343.996 215.42Z"
      fill="black" />
    <path d="M346.453 272.563L355.874 275.19L362.426 275.519L362.017 270.921L348.501 267.716L346.453 272.563Z"
      fill="#FFB9B9" />
    <path
      d="M358.536 271.578C358.536 271.578 358.536 276.176 359.355 276.176C360.174 276.176 371.232 275.19 374.509 276.176C377.785 277.161 382.7 273.548 380.243 271.578C377.785 269.607 373.777 266.652 371.276 267.309C368.775 267.965 358.536 269.607 358.536 269.607L358.536 271.578Z"
      fill="#2F2E41" />
    <path
      d="M328.432 267.309C328.432 267.309 323.517 275.19 326.794 275.847C330.07 276.504 333.757 275.519 334.166 275.19C334.576 274.862 340.31 273.548 341.129 274.205C341.948 274.862 341.948 271.578 341.948 271.578L328.432 267.309Z"
      fill="#2F2E41" />
    <path
      d="M332.528 256.471C332.528 256.471 324.746 265.01 330.48 267.309C336.214 269.607 363.655 269.607 365.703 267.309C367.751 265.01 368.57 257.785 365.703 257.128C362.836 256.471 332.528 256.471 332.528 256.471Z"
      fill="#2F2E41" />
    <path opacity="0.2"
      d="M332.528 256.471C332.528 256.471 324.746 265.01 330.48 267.309C336.214 269.607 363.655 269.607 365.703 267.309C367.751 265.01 368.57 257.785 365.703 257.128C362.836 256.471 332.528 256.471 332.528 256.471Z"
      fill="black" />
    <path
      d="M347.272 217.719C352.475 217.719 356.693 214.337 356.693 210.166C356.693 205.994 352.475 202.612 347.272 202.612C342.07 202.612 337.852 205.994 337.852 210.166C337.852 214.337 342.07 217.719 347.272 217.719Z"
      fill="#FFB9B9" />
    <path
      d="M332.528 221.988L340.719 220.675C340.719 220.675 342.767 225.929 349.32 224.944C355.873 223.959 357.512 220.675 357.512 220.675C357.512 220.675 362.427 222.317 362.836 222.317C363.246 222.317 368.57 223.959 368.57 224.944C368.57 225.929 362.426 235.782 362.426 235.782L363.246 253.515L332.937 252.859L334.985 235.453L332.528 221.988Z"
      fill="#9C7EFF" />
    <path
      d="M328.023 230.527C328.023 230.527 325.565 247.933 327.203 249.246C328.842 250.56 335.395 254.172 335.395 254.172V250.232L332.118 245.305L335.395 233.811L328.023 230.527Z"
      fill="#FFB9B9" />
    <path
      d="M370.413 230.034C370.413 230.034 368.98 247.933 368.98 248.589C368.98 249.246 365.293 251.545 364.065 251.545C362.836 251.545 362.017 249.903 362.017 249.903L364.884 247.276L362.836 233.811L370.413 230.034Z"
      fill="#FFB9B9" />
    <path
      d="M366.522 255.158C366.522 255.158 384.953 246.947 385.362 255.158C385.772 263.368 375.942 266.652 375.942 266.652C375.942 266.652 350.549 272.757 349.525 270.526C348.501 268.294 346.453 264.681 348.091 264.353C349.73 264.024 351.778 263.368 352.597 264.024C353.416 264.681 363.655 259.098 363.655 259.098L366.522 255.158Z"
      fill="#2F2E41" />
    <path opacity="0.2"
      d="M375.123 254.172C375.123 254.172 371.437 255.486 370.208 256.471C368.98 257.456 363.655 259.098 363.655 259.098"
      stroke="black" stroke-width="2" stroke-miterlimit="10" />
    <path
      d="M334.985 222.645L332.528 221.989C332.528 221.989 323.517 229.542 326.384 231.512C329.251 233.483 330.89 234.14 331.709 234.796C332.528 235.453 336.624 235.782 336.624 235.782L334.985 222.645Z"
      fill="#9C7EFF" />
    <path
      d="M364.884 224.287L368.57 224.944C368.57 224.944 371.437 229.87 372.256 230.527C373.075 231.184 371.027 230.856 369.799 232.169C368.57 233.483 367.341 235.782 364.884 235.782C362.426 235.782 359.15 232.498 359.15 232.498L364.884 224.287Z"
      fill="#9C7EFF" />
    <path
      d="M333.347 258.113C333.347 258.113 317.783 249.246 312.459 255.814C307.134 262.382 335.395 271.249 339.491 272.563C343.586 273.877 347.272 275.19 347.272 275.19C347.272 275.19 350.959 267.965 350.959 266.652C350.959 265.338 348.092 265.338 347.272 265.338C346.453 265.338 342.767 264.681 341.948 263.696C341.129 262.711 333.347 258.113 333.347 258.113Z"
      fill="#2F2E41" />
    <path opacity="0.2"
      d="M324.746 255.814C324.746 255.814 328.842 258.442 332.528 259.098C336.214 259.755 337.443 261.397 337.443 261.397"
      stroke="black" stroke-width="2" stroke-miterlimit="10" />
    <path
      d="M330.522 243.466L330.849 257.371C330.86 257.831 331.096 258.268 331.508 258.588C331.919 258.908 332.471 259.084 333.044 259.079L365.315 258.788C365.865 258.783 366.392 258.611 366.79 258.307C367.187 258.002 367.426 257.588 367.458 257.148L368.438 243.534C368.455 243.297 368.411 243.06 368.31 242.838C368.209 242.615 368.052 242.411 367.849 242.239C367.646 242.066 367.401 241.929 367.13 241.835C366.858 241.741 366.566 241.693 366.27 241.693H332.692C332.404 241.693 332.118 241.739 331.852 241.829C331.586 241.918 331.345 242.049 331.143 242.214C330.941 242.379 330.782 242.575 330.675 242.79C330.568 243.005 330.516 243.235 330.522 243.466Z"
      fill="#575A89" />
    <path
      d="M326.789 222.071C327.668 220.516 328.849 219.057 329.412 217.41C330.086 215.436 329.824 213.348 329.743 211.303C329.615 209.494 329.808 207.679 330.314 205.913C330.829 204.139 331.985 202.526 333.637 201.275C337.929 198.203 345.784 197.983 351.025 199.262C353.091 199.766 355.292 200.726 355.805 202.408C355.882 202.662 355.917 202.924 356.003 203.176C356.432 204.429 358.03 205.221 358.607 206.435C359.353 208.005 358.203 209.713 358.052 211.388C357.877 213.345 359.076 215.193 360.259 216.91C360.961 217.931 361.692 219.018 361.622 220.183C361.564 220.82 361.322 221.438 360.917 221.987C360.163 222.984 359.107 223.81 357.846 224.39C356.585 224.969 355.162 225.283 353.709 225.3C352.764 225.361 351.82 225.182 351.009 224.789C349.73 224.083 349.355 222.661 349.622 221.434C349.888 220.207 350.665 219.098 351.273 217.952C351.46 217.601 351.629 217.243 351.784 216.882C353.671 216.038 355.125 214.686 355.889 213.065C356.654 211.444 356.679 209.659 355.961 208.025C355.244 206.39 353.829 205.012 351.967 204.133C350.104 203.254 347.915 202.93 345.784 203.22C343.654 203.51 341.719 204.394 340.323 205.716C338.926 207.039 338.157 208.714 338.152 210.447C338.146 212.18 338.905 213.858 340.293 215.186C341.681 216.514 343.61 217.406 345.738 217.704C346.197 219.558 345.989 221.478 345.137 223.24C344.363 224.673 343.391 226.033 342.238 227.292C341.767 227.938 341.139 228.502 340.392 228.949C339.899 229.183 339.37 229.364 338.819 229.488C336.505 230.085 334.069 230.565 331.662 230.296C329.255 230.028 326.871 228.864 326.051 227.03C325.333 225.423 325.91 223.626 326.789 222.071Z"
      fill="#2F2E41" />
    <path
      d="M346.816 210.467C352.337 210.467 356.813 208.433 356.813 205.925C356.813 203.416 352.337 201.382 346.816 201.382C341.295 201.382 336.819 203.416 336.819 205.925C336.819 208.433 341.295 210.467 346.816 210.467Z"
      fill="#2F2E41" />
    <path opacity="0.3"
      d="M499.556 192.043C499.404 191.741 499.124 191.492 498.765 191.34C498.542 191.235 498.301 191.156 498.05 191.106C498.219 191.041 498.374 190.954 498.509 190.849C498.709 190.7 498.86 190.513 498.948 190.305C499.03 190.092 499.063 189.868 499.047 189.646C499.045 189.276 498.917 188.914 498.675 188.599C498.406 188.311 498.038 188.092 497.617 187.968C497.208 187.841 496.775 187.771 496.336 187.76V186.268L495.21 186.852V187.763H494.31V186.805L493.156 186.268V187.763H490.705L491.493 188.884C491.66 188.875 491.827 188.893 491.985 188.938C492.064 188.966 492.129 189.016 492.168 189.078C492.216 189.211 492.234 189.349 492.222 189.487V193.533C492.234 193.67 492.216 193.808 492.168 193.94C492.132 194.001 492.112 194.054 492.025 194.087C491.937 194.12 491.935 194.117 491.692 194.117H491.69L490.705 195.239H493.153V196.734H494.307V195.239H495.208V196.734H496.333V195.229C496.903 195.221 497.468 195.14 498.005 194.989C498.504 194.846 498.941 194.59 499.263 194.253C499.544 193.894 499.698 193.48 499.708 193.057C499.738 192.714 499.686 192.37 499.556 192.043ZM494.307 189.024L494.307 188.993H495.094C495.537 188.993 497.012 188.871 497.037 189.871C497.062 190.871 495.094 190.83 495.094 190.83H494.307V190.753L494.307 189.024ZM494.307 191.875H495.208C495.391 191.875 496.02 191.898 496.249 191.906C496.343 191.909 496.435 191.923 496.524 191.947C496.556 191.956 496.587 191.966 496.62 191.978C496.759 192.015 496.89 192.07 497.008 192.141C497.086 192.184 497.154 192.236 497.209 192.297C497.294 192.397 497.356 192.507 497.393 192.624C497.419 192.706 497.433 192.79 497.434 192.875C497.443 193.036 497.394 193.195 497.293 193.335C497.149 193.52 496.937 193.665 496.686 193.751C496.217 193.905 495.714 193.982 495.208 193.977H494.307V191.875Z"
      fill="#9C7EFF" />
    <path
      d="M41.6604 233.463C48.0832 233.463 53.2899 229.288 53.2899 224.138C53.2899 218.988 48.0832 214.813 41.6604 214.813C35.2377 214.813 30.031 218.988 30.031 224.138C30.031 229.288 35.2377 233.463 41.6604 233.463Z"
      fill="#DCD3FB" />
    <path opacity="0.3"
      d="M46.0079 224.68C45.8557 224.378 45.5756 224.129 45.2171 223.977C44.9939 223.872 44.7532 223.793 44.5022 223.743C44.6713 223.678 44.8262 223.591 44.9609 223.486C45.1614 223.337 45.3123 223.149 45.4 222.942C45.4818 222.728 45.5151 222.505 45.4985 222.283C45.497 221.913 45.3685 221.551 45.127 221.236C44.8575 220.948 44.49 220.729 44.0687 220.605C43.6597 220.478 43.2267 220.408 42.7882 220.397V218.905L41.6624 219.489V220.4H40.7618V219.442L39.6079 218.905V220.4H37.1565L37.9445 221.521C38.1116 221.512 38.2792 221.53 38.4371 221.575C38.5163 221.603 38.5809 221.653 38.62 221.715C38.668 221.848 38.6861 221.986 38.6735 222.124V226.17C38.6857 226.307 38.6676 226.445 38.62 226.577C38.5834 226.638 38.5637 226.691 38.4765 226.724C38.3892 226.757 38.3864 226.754 38.1444 226.754H38.1416L37.1565 227.876H39.6051V229.371H40.759V227.876H41.6596V229.371H42.7854V227.866C43.3551 227.858 43.9195 227.777 44.4572 227.626C44.9562 227.483 45.3931 227.227 45.7152 226.89C45.996 226.531 46.1497 226.117 46.1599 225.694C46.1896 225.351 46.138 225.007 46.0079 224.68ZM40.759 221.661L40.7593 221.63H41.5462C41.9889 221.63 43.4642 221.508 43.4887 222.508C43.5135 223.508 41.5462 223.467 41.5462 223.467H40.7593V223.39L40.759 221.661ZM40.759 224.512H41.6596C41.8426 224.512 42.4719 224.535 42.701 224.543C42.7945 224.546 42.887 224.56 42.9757 224.584C43.008 224.593 43.0387 224.603 43.0719 224.615C43.2113 224.652 43.3423 224.707 43.46 224.778C43.5376 224.82 43.6055 224.873 43.6607 224.934C43.746 225.034 43.8083 225.144 43.8445 225.261C43.8713 225.343 43.8852 225.427 43.8858 225.511C43.8951 225.673 43.8464 225.832 43.7454 225.972C43.6009 226.157 43.3889 226.302 43.138 226.388C42.6691 226.542 42.1664 226.619 41.6596 226.614H40.759L40.759 224.512Z"
      fill="#9C7EFF" />
  </g>
  <defs>
    <clipPath id="clip0_232_320">
      <rect width="603" height="326" fill="white" />
    </clipPath>
  </defs>
</svg>