<svg width="473" height="344" viewBox="0 0 473 344" fill="none" xmlns="http://www.w3.org/2000/svg">
  <g clip-path="url(#clip0_232_449)">
    <rect width="473" height="344" fill="#050D3C" />
    <path
      d="M63.7334 325.887C63.1907 325.909 62.6536 325.782 62.1946 325.525C61.7357 325.268 61.3772 324.891 61.1676 324.447C60.9581 324.003 60.9076 323.513 61.0232 323.043C61.1387 322.572 61.4145 322.145 61.8134 321.818C61.8802 321.583 61.9281 321.414 61.9949 321.179C61.971 321.128 61.947 321.076 61.9228 321.025C61.3762 319.881 60.4602 318.906 59.2899 318.222C58.1196 317.537 56.7472 317.175 55.3451 317.179C53.943 317.184 52.5737 317.556 51.4092 318.248C50.2447 318.94 49.3369 319.921 48.7999 321.069C46.6536 325.649 43.921 330.237 43.2481 335.08C42.9518 337.22 43.0768 339.39 43.6176 341.493C38.5765 331.75 35.9588 321.16 35.9419 310.441C35.9408 307.752 36.1095 305.064 36.4471 302.391C36.7261 300.2 37.1131 298.024 37.6083 295.864C40.3102 284.144 46.1113 273.159 54.5353 263.811C58.6125 261.84 61.9097 258.809 63.9828 255.126C64.7338 253.802 65.2646 252.389 65.5586 250.931C65.0987 250.984 64.6312 251.018 64.1713 251.044C64.028 251.051 63.8773 251.058 63.734 251.064L63.6799 251.066C63.1745 251.087 62.6732 250.977 62.2365 250.75C61.7998 250.524 61.4463 250.19 61.2185 249.79C60.9908 249.39 60.8985 248.94 60.9527 248.494C61.007 248.048 61.2054 247.626 61.5243 247.278C61.7229 247.061 61.9216 246.845 62.1204 246.628C62.4221 246.294 62.7312 245.967 63.0327 245.633C63.0676 245.601 63.1003 245.568 63.1308 245.533C63.4777 245.152 63.8244 244.778 64.1713 244.397C63.5382 243.526 62.6867 242.797 61.6831 242.266C58.2072 240.462 53.4119 241.711 50.901 244.497C48.3827 247.283 47.9077 251.191 48.7823 254.672C49.6424 257.633 51.0652 260.444 52.9896 262.982C52.8011 263.196 52.605 263.403 52.4165 263.617C48.9708 267.543 45.9676 271.759 43.4499 276.203C44.0622 271.224 43.3315 266.187 41.3178 261.506C39.277 257.144 35.4519 253.47 32.0834 249.699C28.0373 245.17 19.7403 247.146 19.0275 252.888C19.0206 252.944 19.0138 253 19.0072 253.055C19.5076 253.305 19.9973 253.571 20.4765 253.851C21.0785 254.208 21.545 254.717 21.8148 255.312C22.0846 255.908 22.1452 256.561 21.9886 257.187C21.832 257.814 21.4655 258.384 20.9372 258.822C20.4089 259.261 19.7433 259.548 19.0278 259.645L18.9545 259.656C19.1327 261.253 19.4478 262.837 19.897 264.392C21.1985 268.734 23.4984 272.791 26.6526 276.309C29.8067 279.827 33.747 282.729 38.2265 284.835C38.5206 284.968 38.8072 285.102 39.1012 285.229C36.5717 291.58 34.9851 298.196 34.3812 304.91C34.0393 308.871 34.0595 312.85 34.4415 316.808L34.4189 316.668C33.4537 312.266 30.8038 308.295 26.9167 305.424C21.1433 301.222 12.9866 299.675 6.75816 296.297C6.09623 295.921 5.32655 295.72 4.53993 295.718C3.75331 295.716 2.98256 295.914 2.31856 296.288C1.65456 296.661 1.12501 297.195 0.792386 297.827C0.459762 298.459 0.33793 299.161 0.441255 299.852C0.449599 299.901 0.458103 299.951 0.46674 300C1.39521 300.335 2.29921 300.721 3.17351 301.155C3.67385 301.405 4.16364 301.671 4.64283 301.952C5.24483 302.308 5.71129 302.817 5.9811 303.413C6.25091 304.008 6.31147 304.661 6.15487 305.288C5.99826 305.914 5.63179 306.484 5.10347 306.922C4.57514 307.361 3.9096 307.648 3.19405 307.746L3.12073 307.756C3.06794 307.762 3.02271 307.769 2.97001 307.776C4.55644 311.132 6.78303 314.221 9.55229 316.908C12.9733 320.161 17.108 322.76 21.7029 324.546C26.2978 326.332 31.2561 327.268 36.2737 327.297H36.2813C37.6434 332.541 39.6169 337.646 42.17 342.528H63.2062C63.2817 342.321 63.3495 342.107 63.4174 341.9C61.4702 342.009 59.5154 341.906 57.5965 341.593C59.1573 339.896 60.7181 338.186 62.2788 336.489C62.3137 336.457 62.3464 336.424 62.3769 336.389C63.1685 335.52 63.9678 334.659 64.7595 333.79L64.7599 333.789C64.8021 331.127 64.4573 328.471 63.734 325.887L63.7334 325.887Z"
      fill="#DCD3FB" />
    <path
      d="M409.117 325.887C409.659 325.909 410.196 325.782 410.655 325.525C411.114 325.268 411.473 324.891 411.682 324.447C411.892 324.003 411.942 323.513 411.827 323.043C411.711 322.572 411.435 322.145 411.037 321.818C410.97 321.583 410.922 321.414 410.855 321.179C410.879 321.128 410.903 321.076 410.927 321.025C411.474 319.881 412.39 318.906 413.56 318.222C414.73 317.537 416.103 317.175 417.505 317.179C418.907 317.184 420.276 317.556 421.441 318.248C422.605 318.94 423.513 319.921 424.05 321.069C426.196 325.649 428.929 330.237 429.602 335.08C429.898 337.22 429.773 339.39 429.232 341.493C434.273 331.75 436.891 321.16 436.908 310.441C436.909 307.752 436.74 305.064 436.403 302.391C436.124 300.2 435.737 298.024 435.242 295.864C432.54 284.144 426.739 273.159 418.315 263.811C414.237 261.84 410.94 258.809 408.867 255.126C408.116 253.802 407.585 252.389 407.291 250.931C407.751 250.984 408.219 251.018 408.679 251.044C408.822 251.051 408.973 251.058 409.116 251.064L409.17 251.066C409.675 251.087 410.177 250.977 410.613 250.75C411.05 250.524 411.404 250.19 411.631 249.79C411.859 249.39 411.951 248.94 411.897 248.494C411.843 248.048 411.644 247.626 411.326 247.278C411.127 247.061 410.928 246.845 410.729 246.628C410.428 246.294 410.119 245.967 409.817 245.633C409.782 245.601 409.75 245.568 409.719 245.533C409.372 245.152 409.025 244.778 408.679 244.397C409.312 243.526 410.163 242.797 411.167 242.266C414.643 240.462 419.438 241.711 421.949 244.497C424.467 247.283 424.942 251.191 424.068 254.672C423.208 257.633 421.785 260.444 419.86 262.982C420.049 263.196 420.245 263.403 420.433 263.617C423.879 267.543 426.882 271.759 429.4 276.203C428.788 271.224 429.518 266.187 431.532 261.506C433.573 257.144 437.398 253.47 440.767 249.699C444.813 245.17 453.11 247.146 453.822 252.888C453.829 252.944 453.836 253 453.843 253.055C453.342 253.305 452.853 253.571 452.373 253.851C451.771 254.208 451.305 254.717 451.035 255.312C450.765 255.908 450.705 256.561 450.861 257.187C451.018 257.814 451.384 258.384 451.913 258.822C452.441 259.261 453.107 259.548 453.822 259.645L453.895 259.656C453.717 261.253 453.402 262.837 452.953 264.392C451.651 268.734 449.352 272.791 446.197 276.309C443.043 279.827 439.103 282.729 434.623 284.835C434.329 284.968 434.043 285.102 433.749 285.229C436.278 291.58 437.865 298.196 438.469 304.91C438.811 308.871 438.79 312.85 438.408 316.808L438.431 316.668C439.396 312.266 442.046 308.295 445.933 305.424C451.707 301.222 459.863 299.675 466.092 296.297C466.754 295.921 467.523 295.72 468.31 295.718C469.097 295.716 469.867 295.914 470.531 296.288C471.195 296.661 471.725 297.195 472.058 297.827C472.39 298.459 472.512 299.161 472.409 299.852C472.4 299.901 472.392 299.95 472.383 300C471.455 300.335 470.551 300.721 469.676 301.155C469.176 301.405 468.686 301.671 468.207 301.952C467.605 302.308 467.139 302.817 466.869 303.413C466.599 304.008 466.538 304.661 466.695 305.288C466.852 305.914 467.218 306.484 467.746 306.922C468.275 307.361 468.94 307.648 469.656 307.746L469.729 307.756C469.782 307.762 469.827 307.769 469.88 307.776C468.294 311.132 466.067 314.221 463.298 316.908C459.877 320.161 455.742 322.76 451.147 324.546C446.552 326.332 441.594 327.268 436.576 327.296H436.569C435.207 332.541 433.233 337.645 430.68 342.528H409.644C409.568 342.321 409.5 342.107 409.433 341.9C411.38 342.009 413.335 341.906 415.253 341.593C413.693 339.896 412.132 338.186 410.571 336.489C410.536 336.457 410.504 336.424 410.473 336.389C409.681 335.52 408.882 334.658 408.09 333.79L408.09 333.789C408.048 331.127 408.393 328.471 409.117 325.887Z"
      fill="#DCD3FB" />
    <path d="M148.632 334.194H153.725L156.148 316.788H148.632V334.194Z" fill="#9E616A" />
    <path
      d="M146.969 331.103L155.106 330.673V333.762L162.842 338.495C163.224 338.729 163.512 339.065 163.663 339.454C163.815 339.843 163.822 340.265 163.684 340.657C163.545 341.05 163.269 341.394 162.895 341.637C162.521 341.881 162.069 342.013 161.605 342.013H151.917L150.248 338.957L149.596 342.013H145.943L146.969 331.103Z"
      fill="#2F2E41" />
    <path d="M84.7986 330.36L89.5306 332.029L99.0473 316.652L92.0637 314.188L84.7986 330.36Z" fill="#9E616A" />
    <path
      d="M84.5441 326.944L92.2835 329.21L90.9942 332.08L96.2056 339.013C96.4631 339.356 96.5902 339.762 96.5686 340.173C96.5469 340.584 96.3775 340.978 96.0852 341.298C95.7929 341.617 95.3928 341.846 94.9436 341.95C94.4943 342.054 94.0193 342.028 93.5879 341.876L84.5876 338.701L84.3116 335.315L82.4306 337.94L79.0371 336.744L84.5441 326.944Z"
      fill="#2F2E41" />
    <path
      d="M138.365 282.401L129.873 247.284L116.611 286.302L95.6114 323.3L95.5001 323.496L88.8482 320.323C87.9095 305.3 90.1391 291.222 98.2939 278.912L102.155 245.124C102.274 243.97 105.154 216.866 114.275 212.06L116.946 206.663L143.513 200.849L143.609 200.946C146.164 203.49 147.852 206.624 148.476 209.984L156.414 252.594L156.419 252.618L154.29 282.343L157.202 326.198H146.667C140.149 315.333 137.382 300.733 138.365 282.401Z"
      fill="#2F2E41" />
    <path
      d="M400.14 49.5821H67.0596C66.7132 49.5755 66.3834 49.449 66.1411 49.2296C65.8987 49.0103 65.7629 48.7155 65.7629 48.4085C65.7629 48.1015 65.8987 47.8067 66.1411 47.5873C66.3834 47.3679 66.7132 47.2414 67.0596 47.2349H400.14C400.486 47.2414 400.816 47.3679 401.058 47.5873C401.301 47.8067 401.437 48.1015 401.437 48.4085C401.437 48.7155 401.301 49.0103 401.058 49.2296C400.816 49.449 400.486 49.5755 400.14 49.5821Z"
      fill="#222549" />
    <path
      d="M86.9668 38.6944C91.254 38.6944 94.7294 35.5465 94.7294 31.6633C94.7294 27.78 91.254 24.6321 86.9668 24.6321C82.6797 24.6321 79.2042 27.78 79.2042 31.6633C79.2042 35.5465 82.6797 38.6944 86.9668 38.6944Z"
      fill="#3F3D56" />
    <path
      d="M113.783 38.6944C118.07 38.6944 121.546 35.5465 121.546 31.6633C121.546 27.78 118.07 24.6321 113.783 24.6321C109.496 24.6321 106.02 27.78 106.02 31.6633C106.02 35.5465 109.496 38.6944 113.783 38.6944Z"
      fill="#3F3D56" />
    <path
      d="M140.599 38.6944C144.886 38.6944 148.362 35.5465 148.362 31.6633C148.362 27.78 144.886 24.6321 140.599 24.6321C136.312 24.6321 132.837 27.78 132.837 31.6633C132.837 35.5465 136.312 38.6944 140.599 38.6944Z"
      fill="#3F3D56" />
    <path
      d="M381.228 26.3749H362.179C361.802 26.3815 361.442 26.5191 361.178 26.758C360.913 26.9969 360.765 27.3182 360.765 27.6528C360.765 27.9875 360.913 28.3087 361.178 28.5477C361.442 28.7866 361.802 28.9242 362.179 28.9308H381.228C381.606 28.9242 381.966 28.7866 382.23 28.5477C382.494 28.3087 382.642 27.9875 382.642 27.6528C382.642 27.3182 382.494 26.9969 382.23 26.758C381.966 26.5191 381.606 26.3815 381.228 26.3749Z"
      fill="#3F3D56" />
    <path
      d="M381.228 31.1719H362.18C361.802 31.1785 361.442 31.3161 361.178 31.555C360.914 31.794 360.766 32.1152 360.766 32.4498C360.766 32.7844 360.914 33.1057 361.178 33.3446C361.442 33.5836 361.802 33.7211 362.18 33.7278H381.228C381.606 33.7211 381.966 33.5836 382.23 33.3446C382.494 33.1057 382.642 32.7844 382.642 32.4498C382.642 32.1152 382.494 31.794 382.23 31.555C381.966 31.3161 381.606 31.1785 381.228 31.1719Z"
      fill="#3F3D56" />
    <path
      d="M381.228 35.9628H362.18C361.802 35.9694 361.442 36.107 361.178 36.3459C360.914 36.5849 360.766 36.9061 360.766 37.2407C360.766 37.5753 360.914 37.8966 361.178 38.1355C361.442 38.3745 361.802 38.512 362.18 38.5187H381.228C381.606 38.512 381.966 38.3745 382.23 38.1355C382.494 37.8966 382.642 37.5753 382.642 37.2407C382.642 36.9061 382.494 36.5849 382.23 36.3459C381.966 36.107 381.606 35.9694 381.228 35.9628Z"
      fill="#3F3D56" />
    <path
      d="M286.229 74.3103H258.948C258.381 74.3103 257.819 74.4092 257.295 74.6015C256.772 74.7937 256.296 75.0755 255.895 75.4307C255.494 75.786 255.176 76.2077 254.959 76.6718C254.742 77.1359 254.63 77.6334 254.63 78.1358V102.308C254.63 103.323 255.085 104.296 255.895 105.013C256.704 105.731 257.803 106.134 258.948 106.134H286.229C287.375 106.134 288.473 105.731 289.282 105.013C290.092 104.296 290.547 103.323 290.547 102.308V78.1357C290.547 77.1212 290.092 76.1481 289.282 75.4307C288.473 74.7133 287.375 74.3103 286.229 74.3103ZM281.107 82.4712H277.978C275.842 82.4712 275.426 83.3674 275.426 84.6905V87.496H280.521L279.859 91.901H275.417V103.388C273.517 103.703 271.568 103.699 269.67 103.375V91.901H265.596V87.496H269.746V84.2384C269.746 80.344 272.799 78.217 276.73 78.217C278.621 78.217 280.644 78.3426 281.107 78.4011V82.4712Z"
      fill="#9C7EFF" />
    <path
      d="M217.987 74.3103H190.706C189.56 74.3103 188.462 74.7133 187.653 75.4308C186.843 76.1482 186.388 77.1212 186.388 78.1358V102.308C186.388 103.323 186.843 104.296 187.653 105.013C188.462 105.731 189.56 106.134 190.706 106.134H217.987C219.132 106.134 220.231 105.731 221.04 105.013C221.85 104.296 222.305 103.323 222.305 102.308V78.1357C222.305 77.1212 221.85 76.1481 221.04 75.4307C220.231 74.7133 219.132 74.3103 217.987 74.3103ZM204.346 98.7083C202.452 98.7083 200.6 98.2106 199.025 97.2781C197.45 96.3457 196.222 95.0203 195.498 93.4696C194.773 91.9189 194.583 90.2127 194.953 88.5665C195.322 86.9203 196.234 85.4082 197.574 84.2214C198.913 83.0345 200.62 82.2263 202.478 81.8988C204.336 81.5714 206.262 81.7395 208.012 82.3818C209.762 83.0241 211.258 84.1118 212.31 85.5073C213.362 86.9029 213.924 88.5436 213.924 90.2221C213.924 92.4728 212.915 94.6313 211.119 96.2227C209.323 97.8142 206.887 98.7083 204.346 98.7083ZM215.121 81.7358C214.648 81.7358 214.185 81.6114 213.791 81.3782C213.397 81.1451 213.09 80.8138 212.909 80.4261C212.728 80.0384 212.681 79.6119 212.773 79.2003C212.865 78.7888 213.093 78.4107 213.428 78.114C213.763 77.8173 214.19 77.6153 214.654 77.5334C215.119 77.4515 215.6 77.4936 216.038 77.6541C216.475 77.8147 216.849 78.0867 217.112 78.4355C217.375 78.7844 217.516 79.1946 217.516 79.6142C217.516 80.1769 217.264 80.7165 216.815 81.1144C216.366 81.5122 215.756 81.7358 215.121 81.7358Z"
      fill="#9C7EFF" />
    <path
      d="M292.802 131.404C293.58 131.409 294.347 131.565 295.05 131.861C295.753 132.157 296.373 132.586 296.869 133.117C297.364 133.649 297.722 134.27 297.917 134.938C298.111 135.605 298.139 136.302 297.997 136.98L308.19 142.857L305.67 149.216L291.407 140.738C290.138 140.451 289.031 139.762 288.298 138.8C287.564 137.839 287.253 136.672 287.425 135.522C287.597 134.371 288.24 133.317 289.231 132.558C290.222 131.799 291.492 131.388 292.802 131.404Z"
      fill="#FFB6B6" />
    <path
      d="M296.433 146.857L303.708 139.414L313.109 143.277L332.319 156.823C334.837 157.084 353.947 159.269 353.596 165.487C353.587 166.214 353.401 166.93 353.05 167.587C352.7 168.244 352.192 168.826 351.564 169.293C348.548 171.499 343.321 170.873 343.125 170.847L330.619 170.293C329.965 170.433 323.176 171.814 319.583 169.837C318.493 169.237 296.433 146.857 296.433 146.857Z"
      fill="#3F3D56" />
    <path d="M317.414 336.953L311.455 336.952L308.621 316.589H317.414L317.414 336.953Z" fill="#FFB6B6" />
    <path
      d="M318.933 342.071L299.72 342.07V341.855C299.72 340.097 300.508 338.412 301.91 337.169C303.313 335.927 305.215 335.229 307.198 335.229L310.708 332.87L317.256 335.229L318.934 335.229L318.933 342.071Z"
      fill="#2F2E41" />
    <path d="M382.815 332.821L377.071 334.227L368.22 315.266L376.697 313.192L382.815 332.821Z" fill="#FFB6B6" />
    <path
      d="M385.818 337.395L367.298 341.928L367.233 341.72C366.706 340.026 366.959 338.216 367.937 336.687C368.915 335.159 370.539 334.037 372.451 333.569L375.125 330.467L382.146 331.197L383.762 330.801L385.818 337.395Z"
      fill="#2F2E41" />
    <path
      d="M317.676 213.713L362.701 215.748L362.716 215.784C365.413 222.422 366.043 229.581 364.539 236.509L365.918 246.686L372.809 278.438L381.998 319.146C381.998 319.146 393.943 321.996 378.322 326.881C362.701 331.766 365.918 328.916 368.215 325.252C370.512 321.589 356.958 280.27 356.958 280.27L340.419 247.297L324.338 281.491L322.5 319.35C322.5 319.35 327.325 324.438 313.541 326.474C299.758 328.509 300.447 324.642 303.663 321.792C306.879 318.943 309.636 281.084 309.636 281.084L312.852 245.261C312.852 245.261 311.933 224.5 317.676 213.713Z"
      fill="#2F2E41" />
    <path
      d="M361.702 167.205L358.082 158.792L346.424 148.619L331.66 147.592L320.809 156.2L317.74 164.763C321.765 181.274 321.682 196.48 315.98 211.213C315.575 212.231 315.426 213.315 315.542 214.39C315.659 215.465 316.039 216.505 316.655 217.436C317.272 218.368 318.11 219.169 319.112 219.783C320.114 220.398 321.256 220.812 322.457 220.996C339.183 223.486 370.329 227.22 368.183 220.112C365.345 210.708 355.472 190.467 359.129 179.764C360.46 176.045 361.298 172.202 361.625 168.312L361.702 167.205Z"
      fill="#3F3D56" />
    <path
      d="M336.56 144.309C343.837 144.309 349.737 139.081 349.737 132.633C349.737 126.185 343.837 120.958 336.56 120.958C329.282 120.958 323.383 126.185 323.383 132.633C323.383 139.081 329.282 144.309 336.56 144.309Z"
      fill="#FFB6B6" />
    <path
      d="M332.964 143.695L343.008 143.241C344.295 143.183 345.7 143.082 346.636 142.298C347.139 141.813 347.527 141.243 347.774 140.622C348.703 138.711 349.632 136.799 350.536 134.879C351.788 132.224 353.017 129.419 352.698 126.555C352.623 125.247 352.004 124.01 350.96 123.083C350.427 122.636 349.743 122.358 349.013 122.293C348.283 122.227 347.549 122.378 346.926 122.721C346.771 121.815 346.386 120.952 345.8 120.197C345.213 119.443 344.441 118.816 343.541 118.365C341.723 117.475 339.647 117.086 337.579 117.245C334.577 117.417 331.711 118.418 329.384 120.107C328.73 120.642 328.031 121.133 327.293 121.575C326.923 121.794 326.505 121.945 326.066 122.017C325.628 122.089 325.177 122.081 324.742 121.993C324.311 121.891 323.936 121.654 323.687 121.326C323.438 120.999 323.331 120.602 323.387 120.21C322.679 120.678 322.194 121.364 322.026 122.132C321.858 122.9 322.019 123.697 322.478 124.365C321.956 124.559 321.387 124.63 320.826 124.571C320.265 124.512 319.73 124.326 319.274 124.03C318.785 124.244 318.353 124.547 318.004 124.919C317.655 125.29 317.397 125.722 317.248 126.187C317.098 126.652 317.06 127.139 317.135 127.618C317.211 128.096 317.398 128.556 317.685 128.966C317.972 129.377 318.353 129.73 318.804 130.003C319.254 130.276 319.763 130.463 320.299 130.551C320.836 130.639 321.387 130.627 321.918 130.516C322.448 130.404 322.947 130.196 323.382 129.904C323.991 130.661 323.764 131.689 323.685 132.616C323.605 133.543 323.886 134.694 324.894 134.951C326.258 135.297 327.362 133.67 328.78 133.688C329.13 133.713 329.468 133.814 329.763 133.983C330.058 134.151 330.301 134.382 330.472 134.653C330.806 135.2 331.035 135.792 331.149 136.405L332.964 143.645"
      fill="#2F2E41" />
    <path
      d="M265.683 162.272C260.666 162.275 255.756 160.985 251.551 158.56L249.434 157.341L251.943 157.588C252.6 157.652 253.308 157.69 254.046 157.7C257.427 157.702 260.738 156.84 263.58 155.217C261.891 154.893 260.327 154.183 259.042 153.159C257.758 152.135 256.797 150.831 256.256 149.377L255.942 148.519L256.94 148.693C257.394 148.772 257.854 148.818 258.317 148.83C256.734 148.109 255.406 147.015 254.477 145.67C253.548 144.325 253.055 142.779 253.051 141.203V140.294L253.943 140.644C254.473 140.908 255.033 141.119 255.615 141.273C254.239 139.905 253.384 138.188 253.172 136.365C252.961 134.542 253.403 132.706 254.435 131.118L254.872 130.451L255.419 131.049C259.404 135.419 265.115 138.283 271.394 139.062C271.567 139.084 271.742 139.072 271.909 139.028C272.075 138.984 272.229 138.908 272.36 138.806C272.493 138.704 272.601 138.577 272.674 138.434C272.747 138.291 272.785 138.136 272.785 137.98C272.77 136.284 273.326 134.623 274.381 133.208C275.435 131.793 276.942 130.689 278.708 130.035C280.474 129.382 282.419 129.209 284.297 129.54C286.174 129.87 287.898 130.688 289.248 131.889C291.096 131.532 292.868 130.915 294.496 130.063L295.871 129.342L295.37 130.685C294.906 131.932 294.127 133.068 293.093 134.008C294.011 133.796 294.908 133.521 295.776 133.183L297.637 132.458L296.516 133.961C295.327 135.556 293.842 136.961 292.124 138.116V138.883C292.124 150.38 282.254 162.272 265.737 162.272L265.683 162.272Z"
      fill="#9C7EFF" />
    <path
      d="M277.516 154.085C278.293 154.057 279.068 154.18 279.786 154.446C280.504 154.711 281.147 155.113 281.671 155.623C282.195 156.133 282.586 156.739 282.817 157.397C283.048 158.055 283.113 158.75 283.008 159.433L293.509 164.868L291.338 171.327L276.63 163.468C275.347 163.236 274.204 162.594 273.419 161.666C272.634 160.737 272.26 159.585 272.37 158.428C272.479 157.272 273.063 156.191 274.012 155.39C274.96 154.59 276.207 154.126 277.516 154.085Z"
      fill="#FFB6B6" />
    <path
      d="M289.881 174.365L282.037 166.845L287.475 159.642L293.334 163.999L299.741 165.357L308.781 168.394C310.04 166.444 319.805 151.726 326.123 154.452C326.874 154.744 327.544 155.177 328.089 155.72C328.633 156.264 329.039 156.905 329.277 157.601C330.384 160.924 327.683 164.939 327.58 165.088L322.098 175.063C321.987 175.651 320.758 181.726 317.296 183.879C316.806 184.196 316.248 184.419 315.656 184.535C315.064 184.651 314.451 184.657 313.857 184.552C303.097 182.749 295.516 179.961 291.647 176.414C290.965 175.798 290.372 175.11 289.881 174.365Z"
      fill="#3F3D56" />
    <path
      d="M150.37 145.291C149.163 142.991 151.079 140.422 151.762 137.945C153.038 133.323 149.443 128.319 144.57 126.718C139.697 125.116 134.097 126.455 129.911 129.257C125.808 132.005 122.923 133.299 120.096 137.18C119.149 138.482 118.145 142.523 117.965 144.082C117.786 145.641 118.696 147.427 120.356 147.769C120.197 148.047 120.127 148.359 120.154 148.67C120.181 148.981 120.304 149.279 120.509 149.532C120.714 149.786 120.993 149.984 121.317 150.107C121.64 150.229 121.996 150.271 122.344 150.227C125.521 149.683 131.355 151.177 131.355 151.177C136.795 151.453 142.234 151.729 147.674 152.005C149.067 152.076 150.514 152.14 151.766 151.458C152.113 151.278 152.411 151.034 152.641 150.742C152.871 150.451 153.027 150.119 153.098 149.769C153.416 147.943 151.202 146.878 150.37 145.291Z"
      fill="#2F2E41" />
    <path
      d="M154.477 165.422L153.287 172.442L151.4 183.564L151.08 187.685L148.731 217.888L142.261 222.297C138.515 224.85 133.84 226.092 129.126 225.786C124.413 225.479 119.992 223.646 116.707 220.636L108.851 217.285C113.061 213.614 112.278 196.605 112.278 196.605L112.231 163.197L122.881 160.024L126.388 153.905H138.973L142.119 160.409L147.829 162.723L150.429 163.782L154.477 165.422Z"
      fill="#DCD3FB" />
    <path
      d="M133.2 150.767C139.077 150.767 143.84 146.547 143.84 141.34C143.84 136.133 139.077 131.913 133.2 131.913C127.324 131.913 122.56 136.133 122.56 141.34C122.56 146.547 127.324 150.767 133.2 150.767Z"
      fill="#9E616A" />
    <path
      d="M127.121 138.383C124.31 138.387 121.567 137.62 119.267 136.187L119.191 136.14C119.191 134.936 119.458 133.743 119.978 132.631C120.498 131.518 121.261 130.507 122.222 129.656C123.183 128.804 124.324 128.129 125.579 127.668C126.835 127.207 128.181 126.97 129.54 126.97H133.765C135.115 126.971 136.451 127.208 137.698 127.668C138.944 128.128 140.076 128.801 141.029 129.648C141.982 130.496 142.736 131.502 143.249 132.609C143.763 133.715 144.025 134.9 144.02 136.097C144.011 136.643 143.762 137.164 143.326 137.55C142.89 137.936 142.301 138.155 141.685 138.162L127.364 138.381C127.283 138.382 127.202 138.383 127.121 138.383Z"
      fill="#2F2E41" />
    <path
      d="M158.267 184.803L148.629 184.873L147.921 200.073L140.09 208.567C139.137 208.709 138.248 209.082 137.519 209.644C136.79 210.206 136.251 210.935 135.961 211.752C135.671 212.568 135.642 213.44 135.875 214.27C136.109 215.101 136.598 215.858 137.287 216.457C137.976 217.057 138.839 217.477 139.78 217.67C140.721 217.862 141.704 217.821 142.62 217.55C143.537 217.279 144.35 216.788 144.972 216.133C145.593 215.478 145.998 214.683 146.142 213.837L156.93 200.587L158.267 184.803Z"
      fill="#9E616A" />
    <path
      d="M107.449 185.258L97.5689 181.166L86.7807 193L74.7799 195.689C73.9193 195.3 72.9541 195.13 71.991 195.197C71.028 195.263 70.1045 195.565 69.3226 196.067C68.5407 196.57 67.9308 197.254 67.5604 198.045C67.1899 198.835 67.0732 199.701 67.2233 200.547C67.3733 201.392 67.7842 202.185 68.4105 202.836C69.0369 203.488 69.8543 203.973 70.7726 204.239C71.6908 204.505 72.6741 204.541 73.6139 204.343C74.5536 204.144 75.4132 203.72 76.0978 203.116L93.6708 198.168L107.449 185.258Z"
      fill="#9E616A" />
    <path
      d="M138.524 150.04L142.208 145.968C142.606 145.611 142.865 145.151 142.947 144.655C142.966 144.157 142.437 143.624 141.903 143.78C141.408 143.925 138.553 137.587 138.031 137.589C137.49 137.59 137.314 136.951 137.307 136.472C137.281 134.657 138.946 136.606 139.497 134.857C140.048 133.109 142.194 134.612 144.044 133.831C145.893 133.05 148.407 133.405 149.55 134.911C150.398 136.028 150.367 137.48 150.254 138.822C149.993 141.937 149.464 145.03 148.672 148.074C148.477 148.822 148.187 149.657 147.41 149.995C146.982 150.145 146.52 150.206 146.061 150.174L140.39 150.149"
      fill="#2F2E41" />
    <path
      d="M147.362 132.534C150.258 132.534 152.606 130.454 152.606 127.889C152.606 125.323 150.258 123.243 147.362 123.243C144.466 123.243 142.119 125.323 142.119 127.889C142.119 130.454 144.466 132.534 147.362 132.534Z"
      fill="#2F2E41" />
    <path
      d="M159.155 184.656C158.588 185.53 157.382 185.878 156.281 186.147C154.792 186.514 154.357 186.886 152.868 187.253C152.275 187.402 151.678 187.55 151.08 187.685C150.099 187.919 149.102 188.101 148.096 188.229C147.252 188.336 146.256 188.336 145.705 187.755C145.34 187.256 145.193 186.657 145.291 186.068C145.506 178.932 145.723 171.796 145.941 164.66L146.397 164.8C146.603 164.68 146.816 164.571 147.037 164.475C148.087 164.001 149.252 163.763 150.43 163.782C151.104 163.787 151.773 163.88 152.417 164.056C153.416 164.338 154.335 164.808 155.108 165.436C155.881 166.063 156.491 166.832 156.895 167.689C157.418 168.984 157.667 170.352 157.629 171.727C157.634 171.936 157.634 172.145 157.639 172.354C157.671 174.138 156.648 175.922 156.68 177.706C156.656 178.208 156.734 178.71 156.91 179.188C157.12 179.662 157.529 180.057 157.686 180.549C157.844 181.037 157.587 181.706 157.015 181.743C157.419 181.705 157.827 181.767 158.194 181.921C158.56 182.076 158.872 182.317 159.093 182.618C159.315 182.92 159.437 183.27 159.448 183.63C159.459 183.989 159.358 184.344 159.155 184.656Z"
      fill="#DCD3FB" />
    <path
      d="M112.275 163.237C113.324 163.293 114.345 163.554 115.267 164C116.189 164.446 116.989 165.067 117.608 165.818C118.228 166.569 118.653 167.433 118.853 168.347C119.053 169.26 119.023 170.202 118.765 171.104C118.216 172.611 117.355 174.014 116.224 175.241L112.7 179.587C112.343 179.976 112.068 180.42 111.888 180.896C111.74 181.389 111.799 181.923 111.596 182.4C111.392 182.878 110.738 183.278 110.253 183.004C110.602 183.187 110.889 183.451 111.079 183.769C111.27 184.087 111.358 184.445 111.334 184.804C111.309 185.163 111.173 185.509 110.941 185.804C110.708 186.099 110.388 186.331 110.016 186.475C108.97 186.879 107.769 186.518 106.703 186.157L102.376 184.689C100.836 184.203 99.3365 183.624 97.8864 182.956C97.1373 182.591 96.3377 182.067 96.2844 181.311C96.2429 180.723 96.8044 180.271 97.0859 179.737C100.611 173.051 105.794 167.731 112.231 163.197L112.275 163.237Z"
      fill="#DCD3FB" />
    <path
      d="M117.339 203.486C117.339 199.747 114.229 196.735 110.339 196.735C105.13 196.514 99.8301 196.434 94.4106 196.434H92.7208C87.3113 196.434 81.9917 196.514 76.7922 196.735C72.9625 196.735 69.8528 199.756 69.8528 203.504C69.6128 206.472 69.5128 209.431 69.5228 212.363C69.5328 215.296 69.6128 218.29 69.8428 221.223C69.8428 224.971 72.9525 228.009 76.7821 228.009C82.2417 228.231 87.8512 228.328 93.5507 228.328C99.2502 228.328 104.85 228.24 110.329 228.009C114.169 228.009 117.329 224.971 117.329 221.223C117.549 218.255 117.659 215.296 117.649 212.319C117.639 209.342 117.559 206.401 117.338 203.459L117.339 203.486ZM89.0111 220.558V204.204L102.63 212.372L89.0111 220.558Z"
      fill="#9C7EFF" />
    <path
      d="M472.127 343.8L0.873018 344C0.641925 343.999 0.420519 343.918 0.257348 343.773C0.0941762 343.628 0.00256348 343.431 0.00256348 343.227C0.00256348 343.022 0.0941762 342.825 0.257348 342.68C0.420519 342.535 0.641925 342.454 0.873018 342.453L472.127 342.253C472.358 342.254 472.58 342.336 472.743 342.481C472.906 342.626 472.998 342.822 472.998 343.027C472.998 343.232 472.906 343.428 472.743 343.573C472.58 343.718 472.358 343.8 472.127 343.8Z"
      fill="#CACACA" />
  </g>
  <defs>
    <clipPath id="clip0_232_449">
      <rect width="473" height="344" fill="white" />
    </clipPath>
  </defs>
</svg>