<svg width="566" height="371" viewBox="0 0 566 371" fill="none" xmlns="http://www.w3.org/2000/svg">
  <g clip-path="url(#clip0_232_383)">
    <path
      d="M326.169 18.0567C331.024 27.0279 320.737 29.569 308.952 34.3774C297.168 39.1858 288.349 44.4408 283.494 35.4696C278.639 26.4984 274.7 8.69221 291.371 1.88982C308.617 -5.14691 321.315 9.08546 326.169 18.0567Z"
      fill="#2F2E41" />
    <path
      d="M302.126 35.6994C310.888 35.6994 317.99 29.5319 317.99 21.9239C317.99 14.3158 310.888 8.14832 302.126 8.14832C293.364 8.14832 286.261 14.3158 286.261 21.9239C286.261 29.5319 293.364 35.6994 302.126 35.6994Z"
      fill="#FFB8B8" />
    <path
      d="M380.721 83.0155C380.172 82.393 379.623 81.7816 379.068 81.1871C378.351 80.4131 377.629 79.6634 376.904 78.938C368.681 70.6989 359.935 65.5108 350.305 64.9555H350.292L350.15 64.9443L330.96 81.1871L324.436 86.7061L324.578 87.0089L328.098 94.62H389.777C386.998 90.615 383.975 86.7414 380.721 83.0155Z"
      fill="#2F2E41" />
    <path
      d="M284.875 27.4699L290.553 25.1527L289.762 18.039L293.56 23.9261L296.274 22.8185L295.813 18.6689L298.028 22.1029L318.196 13.8735C316.302 10.3732 312.884 7.66962 308.694 6.35758C304.504 5.04553 299.886 5.2325 295.855 6.87732L292.932 8.07C288.9 9.71484 285.787 12.6828 284.276 16.321C282.765 19.9592 282.98 23.9696 284.875 27.4699Z"
      fill="#2F2E41" />
    <path
      d="M416.311 277.518H85.0594C82.2338 277.516 79.5248 276.54 77.5268 274.805C75.5288 273.07 74.4049 270.718 74.4017 268.264V95.4299C74.404 93.6324 75.2274 91.9091 76.6911 90.638C78.1548 89.367 80.1394 88.652 82.2095 88.6499H419.026C421.132 88.652 423.151 89.3793 424.64 90.6724C426.129 91.9654 426.967 93.7185 426.969 95.5471V268.264C426.966 270.718 425.842 273.07 423.844 274.805C421.846 276.54 419.137 277.516 416.311 277.518Z"
      fill="#152B70" />
    <path
      d="M95.3941 268.264H405.977C408.718 268.264 411.346 267.319 413.284 265.636C415.222 263.953 416.311 261.67 416.311 259.29V112.596C416.311 110.216 415.222 107.933 413.284 106.25C411.346 104.567 408.718 103.622 405.977 103.622H95.3941C92.6532 103.622 90.0245 104.567 88.0864 106.25C86.1483 107.933 85.0594 110.216 85.0594 112.596V259.29C85.0594 261.67 86.1483 263.953 88.0864 265.636C90.0245 267.319 92.6532 268.264 95.3941 268.264Z"
      fill="#051245" />
    <path
      d="M426.821 94.9005H74.2522V90.189C74.2563 87.7273 75.3848 85.3675 77.3901 83.6274C79.3953 81.8872 82.1136 80.9088 84.9486 80.9067H416.124C418.959 80.9088 421.677 81.8872 423.683 83.6273C425.688 85.3675 426.816 87.7273 426.821 90.189V94.9005Z"
      fill="#9C7EFF" />
    <path
      d="M93.6914 90.32C95.2194 90.32 96.4581 89.2444 96.4581 87.9176C96.4581 86.5907 95.2194 85.5151 93.6914 85.5151C92.1633 85.5151 90.9246 86.5907 90.9246 87.9176C90.9246 89.2444 92.1633 90.32 93.6914 90.32Z"
      fill="#DCD3FB" />
    <path
      d="M104.193 90.32C105.721 90.32 106.96 89.2444 106.96 87.9176C106.96 86.5907 105.721 85.5151 104.193 85.5151C102.665 85.5151 101.426 86.5907 101.426 87.9176C101.426 89.2444 102.665 90.32 104.193 90.32Z"
      fill="#DCD3FB" />
    <path
      d="M114.695 90.32C116.223 90.32 117.462 89.2444 117.462 87.9176C117.462 86.5907 116.223 85.5151 114.695 85.5151C113.167 85.5151 111.928 86.5907 111.928 87.9176C111.928 89.2444 113.167 90.32 114.695 90.32Z"
      fill="#DCD3FB" />
    <path
      d="M260.376 236.451H232.602C230.975 236.449 229.415 235.887 228.265 234.889C227.115 233.89 226.467 232.535 226.466 231.123V207.005C226.467 205.593 227.115 204.238 228.265 203.239C229.415 202.24 230.975 201.679 232.602 201.677H260.376C262.003 201.679 263.563 202.24 264.713 203.239C265.864 204.238 266.511 205.593 266.513 207.005V231.123C266.511 232.535 265.864 233.89 264.713 234.889C263.563 235.887 262.003 236.449 260.376 236.451ZM232.602 202.799C231.317 202.8 230.086 203.244 229.178 204.032C228.27 204.821 227.759 205.89 227.757 207.005V231.123C227.759 232.238 228.27 233.307 229.178 234.096C230.086 234.884 231.317 235.328 232.602 235.329H260.376C261.661 235.328 262.892 234.884 263.8 234.096C264.708 233.307 265.219 232.238 265.221 231.123V207.005C265.219 205.89 264.708 204.821 263.8 204.032C262.892 203.244 261.661 202.8 260.376 202.799H232.602Z"
      fill="#617389" />
    <path
      d="M254.886 229.721H238.092C237.578 229.72 237.086 229.543 236.723 229.227C236.359 228.912 236.155 228.484 236.154 228.038V210.09C236.155 209.644 236.359 209.216 236.723 208.901C237.086 208.585 237.578 208.408 238.092 208.407H250.261C250.702 208.408 251.13 208.539 251.475 208.779L256.1 212.006C256.326 212.163 256.509 212.363 256.634 212.59C256.76 212.817 256.824 213.065 256.824 213.317V228.038C256.823 228.484 256.619 228.912 256.256 229.227C255.892 229.543 255.4 229.72 254.886 229.721ZM238.092 209.529C237.921 209.529 237.757 209.589 237.636 209.694C237.515 209.799 237.446 209.941 237.446 210.09V228.038C237.446 228.187 237.515 228.329 237.636 228.434C237.757 228.539 237.921 228.599 238.092 228.599H254.886C255.057 228.599 255.221 228.539 255.343 228.434C255.464 228.329 255.532 228.187 255.532 228.038V213.317C255.532 213.233 255.511 213.15 255.469 213.075C255.427 212.999 255.366 212.933 255.291 212.88L250.665 209.653C250.55 209.573 250.408 209.529 250.261 209.529H238.092Z"
      fill="#617389" />
    <path
      d="M251.656 216.26H241.322C241.15 216.26 240.986 216.201 240.865 216.095C240.744 215.99 240.676 215.848 240.676 215.699C240.676 215.55 240.744 215.407 240.865 215.302C240.986 215.197 241.15 215.138 241.322 215.138H251.656C251.828 215.138 251.992 215.197 252.113 215.302C252.234 215.407 252.302 215.55 252.302 215.699C252.302 215.848 252.234 215.99 252.113 216.095C251.992 216.201 251.828 216.26 251.656 216.26Z"
      fill="#617389" />
    <path
      d="M251.656 219.625H241.322C241.15 219.625 240.986 219.566 240.865 219.461C240.744 219.355 240.676 219.213 240.676 219.064C240.676 218.915 240.744 218.773 240.865 218.667C240.986 218.562 241.15 218.503 241.322 218.503H251.656C251.828 218.503 251.992 218.562 252.113 218.667C252.234 218.773 252.302 218.915 252.302 219.064C252.302 219.213 252.234 219.355 252.113 219.461C251.992 219.566 251.828 219.625 251.656 219.625Z"
      fill="#617389" />
    <path
      d="M251.656 222.99H241.322C241.15 222.99 240.986 222.931 240.865 222.826C240.744 222.721 240.676 222.578 240.676 222.429C240.676 222.28 240.744 222.138 240.865 222.033C240.986 221.927 241.15 221.868 241.322 221.868H251.656C251.828 221.868 251.992 221.927 252.113 222.033C252.234 222.138 252.302 222.28 252.302 222.429C252.302 222.578 252.234 222.721 252.113 222.826C251.992 222.931 251.828 222.99 251.656 222.99Z"
      fill="#617389" />
    <path
      d="M326.26 236.451H298.486C296.859 236.449 295.299 235.887 294.149 234.889C292.998 233.89 292.351 232.535 292.349 231.123V207.005C292.351 205.593 292.998 204.238 294.149 203.239C295.299 202.24 296.859 201.679 298.486 201.677H326.26C327.887 201.679 329.447 202.24 330.597 203.239C331.747 204.238 332.394 205.593 332.396 207.005V231.123C332.394 232.535 331.747 233.89 330.597 234.889C329.447 235.887 327.887 236.449 326.26 236.451ZM298.486 202.799C297.201 202.8 295.97 203.244 295.062 204.032C294.153 204.821 293.643 205.89 293.641 207.005V231.123C293.643 232.238 294.153 233.307 295.062 234.096C295.97 234.884 297.201 235.328 298.486 235.329H326.26C327.544 235.328 328.776 234.884 329.684 234.096C330.592 233.307 331.103 232.238 331.104 231.123V207.005C331.103 205.89 330.592 204.821 329.684 204.032C328.776 203.244 327.544 202.8 326.26 202.799H298.486Z"
      fill="#617389" />
    <path
      d="M321.416 225.234H303.33C302.816 225.233 302.324 225.056 301.96 224.74C301.597 224.425 301.393 223.997 301.392 223.551V214.577C301.393 214.131 301.597 213.703 301.96 213.388C302.324 213.072 302.816 212.895 303.33 212.894H321.416C321.929 212.895 322.422 213.072 322.785 213.388C323.148 213.703 323.353 214.131 323.353 214.577V223.551C323.353 223.997 323.148 224.425 322.785 224.74C322.422 225.056 321.929 225.233 321.416 225.234ZM303.33 214.016C303.159 214.016 302.994 214.075 302.873 214.181C302.752 214.286 302.684 214.428 302.684 214.577V223.551C302.684 223.7 302.752 223.842 302.873 223.947C302.994 224.053 303.159 224.112 303.33 224.112H321.416C321.587 224.112 321.751 224.053 321.872 223.947C321.993 223.842 322.061 223.7 322.062 223.551V214.577C322.061 214.428 321.993 214.286 321.872 214.181C321.751 214.075 321.587 214.016 321.416 214.016H303.33Z"
      fill="#617389" />
    <path
      d="M312.373 220.544C312.01 220.544 311.654 220.456 311.346 220.29L301.696 215.053C301.551 214.974 301.448 214.848 301.409 214.703C301.371 214.558 301.401 214.406 301.491 214.28C301.582 214.154 301.727 214.065 301.893 214.031C302.06 213.998 302.235 214.023 302.381 214.101L312.031 219.338C312.134 219.394 312.252 219.423 312.373 219.423C312.494 219.423 312.613 219.394 312.715 219.338L322.365 214.101C322.51 214.023 322.685 213.998 322.852 214.031C323.019 214.065 323.163 214.154 323.254 214.28C323.345 214.406 323.374 214.558 323.336 214.703C323.298 214.848 323.195 214.974 323.05 215.053L313.4 220.29C313.092 220.456 312.736 220.544 312.373 220.544Z"
      fill="#617389" />
    <path
      d="M194.493 236.451H166.718C165.091 236.449 163.532 235.887 162.381 234.889C161.231 233.89 160.584 232.535 160.582 231.123V207.005C160.584 205.593 161.231 204.238 162.381 203.239C163.532 202.24 165.091 201.679 166.718 201.677H194.493C196.119 201.679 197.679 202.24 198.83 203.239C199.98 204.238 200.627 205.593 200.629 207.005V231.123C200.627 232.535 199.98 233.89 198.83 234.889C197.679 235.887 196.119 236.449 194.493 236.451ZM166.718 202.799C165.434 202.8 164.202 203.244 163.294 204.032C162.386 204.821 161.875 205.89 161.874 207.005V231.123C161.875 232.238 162.386 233.307 163.294 234.096C164.202 234.884 165.434 235.328 166.718 235.329H194.493C195.777 235.328 197.008 234.884 197.917 234.096C198.825 233.307 199.336 232.238 199.337 231.123V207.005C199.336 205.89 198.825 204.821 197.917 204.032C197.008 203.244 195.777 202.8 194.493 202.799H166.718Z"
      fill="#617389" />
    <path
      d="M189.648 225.234H171.563C171.049 225.233 170.556 225.056 170.193 224.74C169.83 224.425 169.625 223.997 169.625 223.551V214.577C169.625 214.131 169.83 213.703 170.193 213.388C170.556 213.072 171.049 212.895 171.563 212.894H189.648C190.162 212.895 190.655 213.072 191.018 213.388C191.381 213.703 191.585 214.131 191.586 214.577V223.551C191.585 223.997 191.381 224.425 191.018 224.74C190.655 225.056 190.162 225.233 189.648 225.234ZM171.563 214.016C171.391 214.016 171.227 214.075 171.106 214.181C170.985 214.286 170.917 214.428 170.917 214.577V223.551C170.917 223.7 170.985 223.842 171.106 223.947C171.227 224.053 171.391 224.112 171.563 224.112H189.648C189.819 224.112 189.984 224.053 190.105 223.947C190.226 223.842 190.294 223.7 190.294 223.551V214.577C190.294 214.428 190.226 214.286 190.105 214.181C189.984 214.075 189.819 214.016 189.648 214.016H171.563Z"
      fill="#617389" />
    <path
      d="M186.782 225.234H173.783C173.556 225.234 173.334 225.182 173.137 225.083C172.941 224.985 172.778 224.843 172.664 224.673C172.551 224.502 172.491 224.309 172.491 224.112C172.491 223.915 172.551 223.721 172.665 223.551L176.58 217.662C176.693 217.491 176.856 217.35 177.053 217.251C177.249 217.153 177.472 217.101 177.699 217.101C177.925 217.101 178.148 217.153 178.345 217.251C178.541 217.35 178.704 217.491 178.817 217.662L181.346 221.465L182.811 219.262C182.925 219.091 183.088 218.95 183.284 218.851C183.481 218.753 183.703 218.701 183.93 218.701C184.157 218.701 184.38 218.753 184.576 218.851C184.772 218.95 184.936 219.091 185.049 219.262L187.901 223.551C188.014 223.721 188.074 223.915 188.074 224.112C188.074 224.309 188.014 224.502 187.901 224.673C187.787 224.843 187.624 224.985 187.428 225.083C187.231 225.182 187.008 225.234 186.782 225.234ZM186.782 224.112L183.93 219.823L181.906 222.867C181.849 222.953 181.768 223.023 181.669 223.073C181.571 223.122 181.46 223.148 181.346 223.148C181.233 223.148 181.121 223.122 181.023 223.073C180.925 223.023 180.843 222.953 180.787 222.867L177.699 218.223L173.783 224.112H186.782Z"
      fill="#617389" />
    <path
      d="M187.71 217.381C188.424 217.381 189.002 216.879 189.002 216.259C189.002 215.64 188.424 215.138 187.71 215.138C186.997 215.138 186.419 215.64 186.419 216.259C186.419 216.879 186.997 217.381 187.71 217.381Z"
      fill="#617389" />
    <path d="M496.598 363.528L488.679 363.527L484.912 337.005L496.6 337.005L496.598 363.528Z" fill="#FFB8B8" />
    <path
      d="M498.618 370.193L473.084 370.192V369.912C473.084 368.778 473.341 367.656 473.841 366.609C474.34 365.562 475.072 364.611 475.995 363.809C476.918 363.008 478.014 362.372 479.219 361.939C480.425 361.505 481.717 361.282 483.023 361.282H483.023L498.618 361.283L498.618 370.193Z"
      fill="#2F2E41" />
    <path d="M528.894 363.528L520.975 363.527L517.208 337.005L528.896 337.005L528.894 363.528Z" fill="#FFB8B8" />
    <path
      d="M530.914 370.193L505.38 370.192V369.912C505.38 368.778 505.637 367.656 506.137 366.609C506.636 365.562 507.368 364.611 508.291 363.809C509.214 363.008 510.309 362.372 511.515 361.939C512.721 361.505 514.013 361.282 515.318 361.282H515.319L530.914 361.283L530.914 370.193Z"
      fill="#2F2E41" />
    <path
      d="M526.52 352.03L519.186 350.093C518.64 349.949 518.154 349.668 517.79 349.286C517.426 348.903 517.201 348.436 517.141 347.943L510.304 291.673C510.298 291.605 510.264 291.541 510.206 291.495C510.149 291.448 510.073 291.422 509.995 291.422C509.916 291.416 509.838 291.436 509.776 291.479C509.715 291.522 509.675 291.584 509.665 291.652L498.212 346.168C498.143 346.498 497.998 346.814 497.786 347.095C497.574 347.377 497.299 347.619 496.978 347.807C496.657 347.995 496.296 348.125 495.917 348.19C495.537 348.256 495.146 348.254 494.766 348.187L485.393 346.51C484.706 346.385 484.093 346.049 483.668 345.564C483.243 345.078 483.034 344.476 483.08 343.867L490.046 254.514L537.287 250.088L530.267 349.769C530.222 350.41 529.897 351.012 529.359 351.452C528.821 351.892 528.11 352.138 527.371 352.14C527.083 352.14 526.796 352.103 526.52 352.03Z"
      fill="#2F2E41" />
    <path
      d="M526.475 176.701C535.237 176.701 542.34 170.533 542.34 162.925C542.34 155.317 535.237 149.15 526.475 149.15C517.714 149.15 510.611 155.317 510.611 162.925C510.611 170.533 517.714 176.701 526.475 176.701Z"
      fill="#FFB8B8" />
    <path
      d="M489.973 255.038L500.216 199.035C500.761 196.057 502.03 193.215 503.938 190.696C505.846 188.177 508.351 186.04 511.284 184.427C514.218 182.814 517.513 181.762 520.951 181.341C524.389 180.92 527.891 181.139 531.224 181.985C537.051 183.448 542.041 186.745 545.218 191.232C548.395 195.719 549.532 201.074 548.406 206.249L537.69 256.263L489.973 255.038Z"
      fill="#9C7EFF" />
    <path
      d="M530.855 265.059C531.647 264.605 532.315 264.005 532.812 263.302C533.309 262.599 533.622 261.811 533.729 260.991C533.837 260.172 533.736 259.342 533.435 258.561C533.133 257.779 532.638 257.064 531.983 256.466L542.574 238.658L530.647 239.763L522.419 256.505C521.335 257.526 520.721 258.856 520.692 260.244C520.663 261.632 521.221 262.981 522.261 264.036C523.301 265.09 524.75 265.777 526.334 265.965C527.918 266.154 529.527 265.831 530.855 265.059Z"
      fill="#FFB8B8" />
    <path
      d="M533.123 253.325C532.537 253.253 531.99 253.028 531.556 252.68L527.504 249.429C527.066 249.076 526.763 248.615 526.637 248.108C526.511 247.601 526.567 247.072 526.798 246.594L534.897 229.926L533.748 196.992C533.913 195.933 534.317 194.913 534.936 193.99C535.556 193.067 536.378 192.259 537.358 191.612C538.337 190.965 539.453 190.492 540.643 190.22C541.833 189.948 543.073 189.883 544.292 190.027C545.511 190.172 546.685 190.523 547.748 191.062C548.81 191.601 549.74 192.316 550.484 193.167C551.228 194.018 551.772 194.988 552.084 196.021C552.396 197.054 552.47 198.131 552.303 199.19L554.267 219.893C554.864 226.176 552.813 232.434 548.494 237.502L535.865 252.327C535.622 252.612 535.313 252.849 534.957 253.024C534.602 253.198 534.208 253.305 533.801 253.339C533.575 253.358 533.348 253.353 533.123 253.325Z"
      fill="#9C7EFF" />
    <path
      d="M435.117 155.42C435.29 156.231 435.665 156.999 436.217 157.67C436.769 158.341 437.483 158.899 438.31 159.304C439.137 159.71 440.056 159.953 441.003 160.016C441.949 160.08 442.901 159.962 443.789 159.672L458.546 175.084L462.024 165.116L447.478 152.009C446.818 150.745 445.646 149.735 444.185 149.171C442.725 148.606 441.076 148.527 439.553 148.947C438.029 149.368 436.736 150.259 435.919 151.452C435.101 152.645 434.816 154.057 435.117 155.42Z"
      fill="#FFB8B8" />
    <path
      d="M446.676 161.808C446.981 161.368 447.433 161.018 447.972 160.807L453 158.834C453.545 158.622 454.152 158.56 454.738 158.657C455.325 158.753 455.864 159.004 456.281 159.376L470.8 172.35L506.174 184.272C507.233 184.817 508.158 185.537 508.895 186.392C509.633 187.248 510.169 188.221 510.474 189.256C510.778 190.291 510.844 191.369 510.669 192.426C510.493 193.484 510.08 194.501 509.451 195.42C508.822 196.338 507.992 197.14 507.006 197.78C506.02 198.419 504.899 198.884 503.706 199.147C502.513 199.41 501.273 199.466 500.055 199.313C498.837 199.159 497.666 198.799 496.609 198.252L473.888 191.751C466.991 189.778 461.155 185.698 457.464 180.269L446.666 164.39C446.458 164.085 446.327 163.745 446.281 163.393C446.235 163.04 446.274 162.683 446.397 162.345C446.466 162.157 446.559 161.977 446.676 161.808Z"
      fill="#9C7EFF" />
    <path opacity="0.1" d="M539.343 210.692L538.697 228.64L526.798 246.594L536.734 226.586L539.343 210.692Z"
      fill="black" />
    <path
      d="M524.658 165.514C523.661 165.627 522.652 165.421 521.817 164.936C520.981 164.451 520.377 163.719 520.117 162.877C519.865 161.907 519.314 161.015 518.523 160.296C517.733 159.578 516.731 159.059 515.627 158.797C512.717 158.22 509.16 159.409 507.028 157.495C506.571 157.058 506.241 156.533 506.064 155.963C505.887 155.393 505.868 154.795 506.01 154.218C506.403 152.357 507.935 150.952 509.603 149.828C513.113 147.473 517.361 146.095 521.789 145.873C524.081 145.816 526.375 145.915 528.65 146.17C531.031 146.3 533.386 146.674 535.667 147.283C538.265 148.134 540.574 149.541 542.38 151.372C544.187 153.203 545.433 155.4 546.002 157.76C546.524 160.127 546.444 162.565 545.768 164.903C545.092 167.24 543.837 169.421 542.09 171.294C539.999 173.556 537.302 175.338 534.235 176.487C533.505 176.787 532.668 176.823 531.906 176.59C529.996 175.93 530.308 173.876 531.179 172.505C532.111 171.039 533.545 169.619 532.796 167.834C532.42 167.006 531.699 166.332 530.776 165.946C528.877 165.105 526.753 165.304 524.711 165.509L524.658 165.514Z"
      fill="#2F2E41" />
    <path
      d="M429.816 173.293H233.456C230.631 173.291 227.922 172.315 225.924 170.58C223.926 168.845 222.802 166.493 222.799 164.039V127.582C222.802 125.129 223.926 122.777 225.924 121.042C227.922 119.307 230.631 118.331 233.456 118.328H429.816C432.641 118.331 435.35 119.307 437.348 121.042C439.346 122.777 440.47 125.129 440.473 127.582V164.039C440.47 166.493 439.346 168.845 437.348 170.58C435.35 172.315 432.641 173.291 429.816 173.293Z"
      fill="#DCD3FB" />
    <path
      d="M429.815 173.574H233.456C230.545 173.571 227.754 172.566 225.695 170.778C223.637 168.991 222.479 166.567 222.476 164.039V127.583C222.479 125.055 223.637 122.631 225.695 120.844C227.754 119.056 230.545 118.051 233.456 118.048H429.815C432.727 118.051 435.518 119.056 437.576 120.844C439.635 122.631 440.793 125.055 440.796 127.583V164.039C440.793 166.567 439.635 168.991 437.576 170.778C435.518 172.566 432.727 173.571 429.815 173.574ZM233.456 119.169C230.888 119.172 228.425 120.059 226.608 121.636C224.792 123.214 223.77 125.352 223.767 127.583V164.039C223.77 166.27 224.792 168.408 226.608 169.985C228.425 171.562 230.888 172.45 233.456 172.452H429.815C432.384 172.45 434.847 171.562 436.663 169.985C438.48 168.408 439.501 166.27 439.504 164.039V127.583C439.501 125.352 438.48 123.214 436.663 121.636C434.847 120.059 432.384 119.172 429.815 119.169H233.456Z"
      fill="#3F3D56" />
    <path
      d="M405.917 164.319H257.355C254.53 164.317 251.821 163.341 249.823 161.606C247.825 159.871 246.701 157.519 246.698 155.065V135.996C246.701 133.542 247.825 131.19 249.823 129.455C251.821 127.72 254.53 126.744 257.355 126.741H405.917C408.742 126.744 411.451 127.72 413.449 129.455C415.447 131.19 416.571 133.542 416.574 135.996V155.065C416.571 157.519 415.447 159.871 413.449 161.606C411.451 163.341 408.742 164.317 405.917 164.319Z"
      fill="#DCD3FB" />
    <path
      d="M289.325 154.041C296.364 154.041 302.07 149.086 302.07 142.974C302.07 136.862 296.364 131.907 289.325 131.907C282.286 131.907 276.579 136.862 276.579 142.974C276.579 149.086 282.286 154.041 289.325 154.041Z"
      fill="#FF6584" />
    <path
      d="M396.684 163.203L378.694 150.101L361.014 137.225C360.548 136.886 359.958 136.7 359.349 136.701C358.74 136.702 358.151 136.89 357.686 137.231L340.063 150.166L335.759 153.325L329.268 148.598L309.544 134.234C309.077 133.894 308.488 133.709 307.879 133.71C307.27 133.711 306.681 133.898 306.216 134.24L286.555 148.67L266.585 163.327C266.484 163.402 266.412 163.501 266.378 163.612C266.344 163.723 266.35 163.841 266.396 163.949C266.442 164.057 266.524 164.15 266.633 164.216C266.742 164.282 266.871 164.317 267.004 164.317L307.946 164.248L320.906 164.226L320.779 164.32L359.41 164.255L396.271 164.193C396.403 164.193 396.532 164.158 396.641 164.091C396.749 164.025 396.832 163.932 396.877 163.824C396.922 163.716 396.928 163.598 396.893 163.487C396.859 163.376 396.786 163.277 396.684 163.203Z"
      fill="#3F3D56" />
    <path
      d="M565.354 371H441.338C441.166 371 441.002 370.941 440.881 370.836C440.76 370.731 440.692 370.588 440.692 370.439C440.692 370.29 440.76 370.148 440.881 370.043C441.002 369.937 441.166 369.878 441.338 369.878H565.354C565.525 369.878 565.69 369.937 565.811 370.043C565.932 370.148 566 370.29 566 370.439C566 370.588 565.932 370.731 565.811 370.836C565.69 370.941 565.525 371 565.354 371Z"
      fill="#617389" />
    <path
      d="M390.171 73.9856C389.655 73.2576 388.974 72.6286 388.169 72.1368C387.363 71.645 386.451 71.3008 385.488 71.1251C385.135 71.0607 384.776 71.0213 384.416 71.0073L335.203 32.8009C334.237 31.9382 332.947 31.4032 331.567 31.2922C331.295 31.265 331.02 31.2575 330.746 31.2697C329.611 31.3145 328.515 31.6456 327.593 32.2226C326.671 32.7995 325.962 33.5973 325.554 34.5184C325.145 35.4394 325.055 36.4438 325.293 37.4088C325.532 38.3738 326.089 39.2576 326.897 39.952L345.738 54.2149L376.678 77.6312C376.703 78.0722 376.779 78.51 376.904 78.938C377.274 80.1781 378.07 81.2911 379.185 82.1295C380.301 82.9679 381.683 83.492 383.15 83.6325C384.487 83.7682 385.842 83.5738 387.058 83.0716C388.022 82.6801 388.877 82.1118 389.564 81.4059C389.635 81.333 389.699 81.2656 389.764 81.1871C390.667 80.1651 391.19 78.9282 391.263 77.6415C391.335 76.3548 390.955 75.0794 390.171 73.9856Z"
      fill="#FFB8B8" />
    <path
      d="M305.995 110.807L305.536 94.62L305.149 81.1871L304.884 71.787L304.361 53.4633C304.257 52.4823 303.827 51.5486 303.123 50.7763C302.418 50.004 301.47 49.4265 300.394 49.1142C299.318 48.802 298.161 48.7685 297.063 49.0179C295.965 49.2674 294.975 49.7889 294.213 50.5188C294.034 50.6856 293.872 50.8657 293.729 51.0572C292.934 52.0462 292.576 53.2509 292.721 54.4505L293.871 81.1871L294.446 94.62L295.182 111.755C294.97 112.006 294.778 112.271 294.607 112.545C294.148 113.302 293.871 114.131 293.792 114.983C293.713 115.836 293.834 116.693 294.149 117.503C294.477 118.353 295.009 119.133 295.709 119.791C296.409 120.45 297.262 120.972 298.212 121.323C299.162 121.674 300.186 121.847 301.218 121.83C302.25 121.812 303.266 121.605 304.199 121.222C305.283 120.777 306.224 120.107 306.939 119.271C307.654 118.436 308.12 117.46 308.298 116.43C308.475 115.401 308.358 114.349 307.957 113.368C307.555 112.388 306.881 111.508 305.995 110.807Z"
      fill="#FFB8B8" />
    <path
      d="M350.305 64.9557L345.738 54.215L338.349 36.8168C337.816 35.5509 336.961 34.4056 335.849 33.4657C334.736 32.5258 333.394 31.8155 331.922 31.3876C331.806 31.3539 331.683 31.3203 331.567 31.2922C330.141 30.9164 328.638 30.8131 327.162 30.9893C325.686 31.1655 324.271 31.6171 323.015 32.313L298.128 46.0207C295.848 47.2732 294.219 49.2459 293.584 51.5222C292.949 53.7985 293.357 56.2001 294.724 58.2196C297.836 62.8926 301.227 67.4213 304.884 71.787C307.784 75.2139 313.184 75.5785 314.121 81.1872H332.471L351.048 66.7055L350.305 64.9557Z"
      fill="#617389" />
    <path
      d="M65.3441 196.222C73.6101 196.222 80.3111 190.404 80.3111 183.226C80.3111 176.048 73.6101 170.23 65.3441 170.23C57.078 170.23 50.3771 176.048 50.3771 183.226C50.3771 190.404 57.078 196.222 65.3441 196.222Z"
      fill="#A0616A" />
    <path
      d="M102.088 174.28C102.236 174.382 102.379 174.49 102.517 174.604C103.205 175.167 103.748 175.849 104.11 176.606C104.473 177.364 104.647 178.179 104.622 178.999C104.597 179.819 104.372 180.625 103.963 181.364C103.554 182.103 102.969 182.759 102.248 183.289C102.08 183.411 101.904 183.526 101.722 183.633L102.735 213.328C102.764 214.3 102.431 215.254 101.786 216.049C101.141 216.844 100.217 217.437 99.1534 217.74L99.0917 217.752L71.3245 220.319C70.5696 220.389 69.8062 220.328 69.0786 220.14C68.3509 219.953 67.6733 219.641 67.0849 219.225C66.4964 218.808 66.0089 218.295 65.6503 217.714C65.2918 217.133 65.0694 216.496 64.9959 215.84C64.9224 215.183 64.9994 214.521 65.2223 213.891C65.4452 213.261 65.8097 212.675 66.2947 212.168C66.7797 211.661 67.3756 211.242 68.0479 210.936C68.7203 210.63 69.4559 210.443 70.2121 210.385L90.0058 208.871L93.4289 183.155C93.205 182.983 92.9953 182.797 92.8014 182.599C91.7281 181.496 91.1652 180.087 91.222 178.643C91.2787 177.2 91.9511 175.827 93.1085 174.79C94.266 173.753 95.8259 173.127 97.4853 173.033C99.1447 172.938 100.785 173.383 102.088 174.28Z"
      fill="#A0616A" />
    <path d="M89.9945 364.102H97.4659L101.02 339.08H89.9932L89.9945 364.102Z" fill="#A0616A" />
    <path
      d="M88.0892 361.984L102.802 361.984C104.033 361.983 105.253 362.194 106.391 362.603C107.528 363.012 108.562 363.612 109.433 364.368C110.303 365.124 110.994 366.022 111.465 367.009C111.936 367.997 112.179 369.056 112.179 370.125V370.39L88.0896 370.39L88.0892 361.984Z"
      fill="#2F2E41" />
    <path d="M15.7385 355.133L22.1576 358.451L39.9546 338.531L30.4803 333.633L15.7385 355.133Z" fill="#A0616A" />
    <path
      d="M15.3489 352.466L27.9906 359.002C29.0486 359.549 29.9726 360.272 30.709 361.129C31.4453 361.986 31.9801 362.96 32.2828 363.997C32.5854 365.033 32.65 366.111 32.4728 367.169C32.2957 368.227 31.8803 369.244 31.2503 370.163L31.0944 370.39L10.3963 359.689L15.3489 352.466Z"
      fill="#2F2E41" />
    <path
      d="M99.2285 355.264H90.8628C90.1854 355.265 89.5317 355.048 89.028 354.655C88.5244 354.261 88.2066 353.72 88.1361 353.135L79.7022 284.295C79.6809 284.122 79.5946 283.959 79.4565 283.833C79.3184 283.706 79.1362 283.623 78.938 283.595C78.7399 283.568 78.5368 283.597 78.36 283.68C78.1833 283.763 78.0427 283.893 77.9601 284.052L62.7452 313.306L35.8081 351.447C35.4594 351.936 34.9196 352.299 34.2875 352.471C33.6554 352.643 32.9733 352.611 32.366 352.381L21.6049 348.27C21.2491 348.134 20.9306 347.934 20.6706 347.683C20.4107 347.432 20.2151 347.136 20.0969 346.814C19.9788 346.493 19.9407 346.153 19.9852 345.817C20.0297 345.482 20.1558 345.159 20.3552 344.869L45.1178 308.866L52.7123 278.531C50.3237 265.376 60.5634 245.817 60.6673 245.621L60.718 245.525L88.9236 235.953L89.0651 236.103C100.189 267.8 106.967 301.911 101.962 353.082C101.9 353.676 101.586 354.228 101.081 354.632C100.575 355.035 99.915 355.261 99.2285 355.264Z"
      fill="#2F2E41" />
    <path
      d="M59.5816 248.731L59.4502 248.491C59.3875 248.376 53.1157 236.89 48.281 224.614C47.3518 222.24 47.0006 219.724 47.2495 217.226C47.4984 214.728 48.342 212.303 49.7269 210.102C51.1299 207.88 53.0492 205.934 55.3633 204.389C57.6774 202.844 60.3358 201.733 63.1702 201.126C68.0908 200.102 73.2713 200.647 77.768 202.662C82.2647 204.676 85.7782 208.027 87.6684 212.102C91.5034 220.43 90.2812 229.318 89.131 236.308L89.1081 236.448L88.9614 236.509L59.5816 248.731Z"
      fill="#3F3D56" />
    <path
      d="M83.4912 175.885H59.7253V166.889C64.9417 165.09 70.0461 163.56 73.1317 166.889C75.8792 166.89 78.5141 167.837 80.4569 169.524C82.3997 171.211 83.4912 173.499 83.4912 175.885Z"
      fill="#2F2E41" />
    <path
      d="M58.4096 165.302C44.2019 165.302 40.2252 180.766 40.2252 189.49C40.2252 194.355 42.7591 196.095 46.7409 196.684L48.1471 190.172L51.4407 196.964C52.5591 196.969 53.7342 196.95 54.9523 196.931L56.069 194.934L58.5592 196.895C68.5328 196.908 76.5937 198.17 76.5937 189.49C76.5937 180.766 73.1061 165.302 58.4096 165.302Z"
      fill="#2F2E41" />
    <path
      d="M124.662 371H0.645918C0.47461 371 0.310318 370.941 0.189185 370.836C0.0680514 370.731 0 370.588 0 370.439C0 370.29 0.0680514 370.148 0.189185 370.043C0.310318 369.937 0.47461 369.878 0.645918 369.878H124.662C124.834 369.878 124.998 369.937 125.119 370.043C125.24 370.148 125.308 370.29 125.308 370.439C125.308 370.588 125.24 370.731 125.119 370.836C124.998 370.941 124.834 371 124.662 371Z"
      fill="#617389" />
    <path
      d="M126.994 186.474H99.2197C97.5928 186.472 96.0331 185.91 94.8828 184.911C93.7324 183.913 93.0853 182.558 93.0834 181.146V157.028C93.0853 155.616 93.7324 154.261 94.8828 153.262C96.0331 152.263 97.5928 151.702 99.2197 151.7H126.994C128.621 151.702 130.181 152.263 131.331 153.262C132.481 154.261 133.129 155.616 133.13 157.028V181.146C133.129 182.558 132.481 183.913 131.331 184.911C130.181 185.91 128.621 186.472 126.994 186.474Z"
      fill="#DCD3FB" />
    <path
      d="M126.994 186.474H99.2197C97.5928 186.472 96.0331 185.91 94.8828 184.911C93.7324 183.913 93.0853 182.558 93.0834 181.146V157.028C93.0853 155.616 93.7324 154.261 94.8828 153.262C96.0331 152.263 97.5928 151.702 99.2197 151.7H126.994C128.621 151.702 130.181 152.263 131.331 153.262C132.481 154.261 133.129 155.616 133.13 157.028V181.146C133.129 182.558 132.481 183.913 131.331 184.911C130.181 185.91 128.621 186.472 126.994 186.474ZM99.2197 152.822C97.9353 152.823 96.7039 153.267 95.7957 154.055C94.8876 154.844 94.3767 155.913 94.3753 157.028V181.146C94.3767 182.261 94.8876 183.33 95.7957 184.119C96.7039 184.907 97.9353 185.351 99.2197 185.352H126.994C128.279 185.351 129.51 184.907 130.418 184.119C131.326 183.33 131.837 182.261 131.839 181.146V157.028C131.837 155.913 131.326 154.844 130.418 154.055C129.51 153.267 128.279 152.823 126.994 152.822H99.2197Z"
      fill="#3F3D56" />
    <path
      d="M122.15 176.659H104.064C103.55 176.658 103.058 176.481 102.694 176.165C102.331 175.85 102.127 175.422 102.126 174.976V163.198C102.127 162.752 102.331 162.324 102.694 162.009C103.058 161.693 103.55 161.516 104.064 161.515H109.155C109.487 161.514 109.812 161.587 110.102 161.727C110.391 161.868 110.633 162.07 110.806 162.316L112.226 164.319H122.15C122.664 164.32 123.156 164.497 123.519 164.813C123.883 165.128 124.087 165.556 124.088 166.002V174.976C124.087 175.422 123.883 175.85 123.519 176.165C123.156 176.481 122.664 176.658 122.15 176.659Z"
      fill="#9C7EFF" />
    <path
      d="M121.562 182.609C121.652 182.753 121.735 182.9 121.812 183.052C122.194 183.802 122.39 184.614 122.386 185.434C122.382 186.254 122.178 187.065 121.788 187.812C121.398 188.559 120.831 189.226 120.124 189.769C119.416 190.313 118.584 190.72 117.683 190.965C117.473 191.022 117.26 191.068 117.045 191.105L104.708 218.815C104.3 219.721 103.567 220.488 102.617 221.003C101.667 221.518 100.551 221.754 99.4351 221.675L99.3731 221.665L72.6342 214.675C71.9072 214.485 71.2308 214.172 70.644 213.753C70.0572 213.335 69.5717 212.82 69.2155 212.238C68.8592 211.656 68.6394 211.018 68.5686 210.361C68.4978 209.705 68.5774 209.043 68.8029 208.414C69.0284 207.784 69.3953 207.2 69.8824 206.694C70.3696 206.188 70.9672 205.771 71.6409 205.467C72.3146 205.163 73.051 204.978 73.8075 204.923C74.564 204.867 75.3257 204.942 76.0486 205.144L94.9677 210.418L109.615 187.87C109.485 187.636 109.375 187.395 109.285 187.147C108.788 185.769 108.9 184.28 109.597 182.969C110.294 181.658 111.528 180.619 113.058 180.053C114.588 179.488 116.305 179.436 117.877 179.908C119.448 180.381 120.761 181.343 121.562 182.609Z"
      fill="#A0616A" />
  </g>
  <defs>
    <clipPath id="clip0_232_383">
      <rect width="566" height="371" fill="white" />
    </clipPath>
  </defs>
</svg>