<svg width="535" height="554" viewBox="0 0 535 554" fill="none" xmlns="http://www.w3.org/2000/svg">
  <g filter="url(#filter0_d_364_8)">
    <rect x="42" width="447" height="546" rx="63.3063" fill="url(#paint0_linear_364_8)" />
    <rect x="42.6206" y="0.62065" width="445.759" height="544.759" rx="62.6856" stroke="#051245"
      stroke-width="1.2413" />
  </g>
  <rect y="129" width="535" height="83" rx="14.8956" fill="#051245" />
  <path
    d="M77.8897 162.922V171.629C77.8897 172.706 77.5595 173.558 76.8991 174.183C76.2504 174.809 75.393 175.122 74.3272 175.122C73.2613 175.122 72.3982 174.809 71.7378 174.183C71.089 173.558 70.7646 172.706 70.7646 171.629H72.7631C72.7747 172.162 72.908 172.584 73.1628 172.897C73.4293 173.21 73.8174 173.366 74.3272 173.366C74.8369 173.366 75.225 173.21 75.4915 172.897C75.758 172.573 75.8912 172.15 75.8912 171.629V162.922H77.8897ZM85.2659 175.156C84.3623 175.156 83.5455 174.954 82.8156 174.548C82.0857 174.131 81.5122 173.552 81.0952 172.81C80.6781 172.057 80.4695 171.188 80.4695 170.204C80.4695 169.23 80.6839 168.367 81.1125 167.614C81.5412 166.861 82.1263 166.282 82.8677 165.876C83.6092 165.471 84.4376 165.268 85.3528 165.268C86.2681 165.268 87.0964 165.471 87.8379 165.876C88.5794 166.282 89.1644 166.861 89.5931 167.614C90.0218 168.367 90.2361 169.23 90.2361 170.204C90.2361 171.177 90.016 172.04 89.5757 172.793C89.1355 173.546 88.533 174.131 87.7684 174.548C87.0153 174.954 86.1812 175.156 85.2659 175.156ZM85.2659 173.436C85.7757 173.436 86.2507 173.314 86.6909 173.071C87.1428 172.828 87.5077 172.463 87.7858 171.976C88.0638 171.49 88.2028 170.899 88.2028 170.204C88.2028 169.508 88.0696 168.923 87.8031 168.448C87.5367 167.962 87.1833 167.597 86.7431 167.354C86.3028 167.11 85.8278 166.989 85.3181 166.989C84.8083 166.989 84.3333 167.11 83.893 167.354C83.4644 167.597 83.1226 167.962 82.8677 168.448C82.6129 168.923 82.4854 169.508 82.4854 170.204C82.4854 171.235 82.7461 172.034 83.2674 172.602C83.8004 173.158 84.4665 173.436 85.2659 173.436ZM94.1756 166.85C94.5116 166.386 94.9692 166.01 95.5485 165.72C96.1394 165.419 96.794 165.268 97.5123 165.268C98.358 165.268 99.1226 165.471 99.8062 165.876C100.49 166.282 101.028 166.861 101.422 167.614C101.816 168.356 102.013 169.207 102.013 170.169C102.013 171.13 101.816 171.994 101.422 172.758C101.028 173.511 100.484 174.102 99.7888 174.531C99.1053 174.948 98.3464 175.156 97.5123 175.156C96.7708 175.156 96.1104 175.012 95.5311 174.722C94.9635 174.432 94.5116 174.062 94.1756 173.61V175H92.1945V162.14H94.1756V166.85ZM99.9973 170.169C99.9973 169.508 99.8583 168.941 99.5803 168.466C99.3138 167.979 98.9546 167.614 98.5028 167.371C98.0626 167.116 97.5876 166.989 97.0778 166.989C96.5796 166.989 96.1046 167.116 95.6528 167.371C95.2125 167.626 94.8534 167.997 94.5753 168.483C94.3089 168.97 94.1756 169.543 94.1756 170.204C94.1756 170.864 94.3089 171.443 94.5753 171.941C94.8534 172.428 95.2125 172.799 95.6528 173.054C96.1046 173.309 96.5796 173.436 97.0778 173.436C97.5876 173.436 98.0626 173.309 98.5028 173.054C98.9546 172.787 99.3138 172.405 99.5803 171.907C99.8583 171.409 99.9973 170.829 99.9973 170.169ZM120.282 172.532H115.225L114.356 175H112.288L116.616 162.905H118.909L123.237 175H121.151L120.282 172.532ZM119.726 170.916L117.762 165.303L115.781 170.916H119.726ZM127.099 162.14V175H125.118V162.14H127.099ZM138.476 169.978C138.476 170.337 138.453 170.661 138.407 170.951H131.09C131.148 171.716 131.432 172.33 131.942 172.793C132.452 173.256 133.077 173.488 133.819 173.488C134.885 173.488 135.638 173.042 136.078 172.15H138.216C137.926 173.03 137.399 173.755 136.634 174.322C135.881 174.878 134.943 175.156 133.819 175.156C132.904 175.156 132.081 174.954 131.351 174.548C130.633 174.131 130.065 173.552 129.648 172.81C129.243 172.057 129.04 171.188 129.04 170.204C129.04 169.219 129.237 168.356 129.631 167.614C130.036 166.861 130.598 166.282 131.316 165.876C132.046 165.471 132.88 165.268 133.819 165.268C134.722 165.268 135.528 165.465 136.234 165.859C136.941 166.253 137.491 166.809 137.885 167.527C138.279 168.234 138.476 169.051 138.476 169.978ZM136.408 169.352C136.397 168.622 136.136 168.037 135.626 167.597C135.116 167.157 134.485 166.937 133.732 166.937C133.048 166.937 132.463 167.157 131.977 167.597C131.49 168.026 131.201 168.611 131.108 169.352H136.408ZM142.407 166.815C142.697 166.328 143.079 165.952 143.554 165.685C144.04 165.407 144.614 165.268 145.274 165.268V167.319H144.77C143.994 167.319 143.403 167.516 142.998 167.91C142.604 168.304 142.407 168.987 142.407 169.96V175H140.426V165.425H142.407V166.815ZM149.407 167.041V172.341C149.407 172.7 149.488 172.961 149.65 173.123C149.824 173.274 150.113 173.349 150.519 173.349H151.735V175H150.171C149.279 175 148.596 174.791 148.121 174.374C147.646 173.957 147.408 173.28 147.408 172.341V167.041H146.279V165.425H147.408V163.044H149.407V165.425H151.735V167.041H149.407ZM157.037 175.156C156.284 175.156 155.606 175.023 155.004 174.757C154.413 174.479 153.944 174.108 153.596 173.645C153.248 173.169 153.063 172.642 153.04 172.063H155.091C155.125 172.469 155.316 172.81 155.664 173.088C156.023 173.355 156.469 173.488 157.002 173.488C157.558 173.488 157.987 173.384 158.288 173.175C158.601 172.955 158.757 172.677 158.757 172.341C158.757 171.982 158.584 171.716 158.236 171.542C157.9 171.368 157.361 171.177 156.62 170.968C155.902 170.771 155.316 170.58 154.865 170.395C154.413 170.209 154.019 169.926 153.683 169.543C153.359 169.161 153.196 168.657 153.196 168.031C153.196 167.522 153.347 167.058 153.648 166.641C153.949 166.212 154.378 165.876 154.934 165.633C155.502 165.39 156.151 165.268 156.881 165.268C157.97 165.268 158.844 165.546 159.505 166.102C160.177 166.647 160.536 167.394 160.582 168.344H158.601C158.566 167.915 158.392 167.574 158.08 167.319C157.767 167.064 157.344 166.937 156.811 166.937C156.29 166.937 155.89 167.035 155.612 167.232C155.334 167.429 155.195 167.69 155.195 168.014C155.195 168.269 155.288 168.483 155.473 168.657C155.658 168.831 155.884 168.97 156.151 169.074C156.417 169.167 156.811 169.288 157.332 169.439C158.027 169.624 158.595 169.816 159.035 170.012C159.487 170.198 159.875 170.476 160.2 170.847C160.524 171.217 160.692 171.71 160.704 172.324C160.704 172.868 160.553 173.355 160.252 173.784C159.951 174.212 159.522 174.548 158.966 174.791C158.421 175.035 157.778 175.156 157.037 175.156Z"
    fill="white" />
  <path
    d="M205.726 165.914V164.236H209.083V176H207.227V165.914H205.726ZM220.53 166.963C221.229 166.963 221.853 167.109 222.402 167.399C222.961 167.69 223.397 168.12 223.709 168.69C224.021 169.26 224.177 169.949 224.177 170.756V176H222.353V171.03C222.353 170.234 222.154 169.626 221.756 169.206C221.358 168.776 220.815 168.561 220.126 168.561C219.438 168.561 218.889 168.776 218.48 169.206C218.082 169.626 217.883 170.234 217.883 171.03V176H216.044V167.109H217.883V168.125C218.185 167.759 218.566 167.474 219.029 167.27C219.502 167.066 220.003 166.963 220.53 166.963ZM234.672 171.336C234.672 171.67 234.651 171.971 234.608 172.24H227.814C227.868 172.95 228.132 173.52 228.605 173.951C229.078 174.381 229.659 174.596 230.348 174.596C231.337 174.596 232.037 174.182 232.445 173.354H234.43C234.161 174.171 233.672 174.844 232.962 175.371C232.263 175.887 231.391 176.145 230.348 176.145C229.498 176.145 228.734 175.957 228.056 175.58C227.389 175.193 226.862 174.655 226.475 173.967C226.098 173.267 225.91 172.461 225.91 171.546C225.91 170.632 226.093 169.83 226.459 169.142C226.835 168.443 227.357 167.905 228.024 167.528C228.702 167.152 229.476 166.963 230.348 166.963C231.187 166.963 231.934 167.146 232.591 167.512C233.247 167.878 233.758 168.394 234.124 169.061C234.489 169.717 234.672 170.476 234.672 171.336ZM232.752 170.756C232.741 170.078 232.499 169.534 232.026 169.126C231.553 168.717 230.966 168.512 230.267 168.512C229.632 168.512 229.089 168.717 228.637 169.126C228.185 169.524 227.916 170.067 227.83 170.756H232.752ZM248.424 167.109L245.665 176H243.728L241.937 169.432L240.146 176H238.209L235.434 167.109H237.306L239.161 174.257L241.049 167.109H242.97L244.777 174.225L246.617 167.109H248.424ZM254.927 165.931C254.593 165.931 254.313 165.818 254.087 165.592C253.861 165.366 253.749 165.086 253.749 164.753C253.749 164.419 253.861 164.139 254.087 163.913C254.313 163.688 254.593 163.575 254.927 163.575C255.249 163.575 255.524 163.688 255.75 163.913C255.975 164.139 256.088 164.419 256.088 164.753C256.088 165.086 255.975 165.366 255.75 165.592C255.524 165.818 255.249 165.931 254.927 165.931ZM255.83 177.743C255.83 178.614 255.61 179.244 255.169 179.631C254.738 180.029 254.109 180.228 253.281 180.228H252.328V178.679H252.958C253.334 178.679 253.598 178.603 253.749 178.453C253.91 178.313 253.991 178.076 253.991 177.743V167.109H255.83V177.743ZM262.102 176.145C261.263 176.145 260.505 175.957 259.827 175.58C259.149 175.193 258.617 174.655 258.229 173.967C257.842 173.267 257.648 172.461 257.648 171.546C257.648 170.643 257.847 169.841 258.245 169.142C258.643 168.443 259.187 167.905 259.875 167.528C260.564 167.152 261.333 166.963 262.183 166.963C263.033 166.963 263.802 167.152 264.49 167.528C265.179 167.905 265.722 168.443 266.12 169.142C266.518 169.841 266.717 170.643 266.717 171.546C266.717 172.45 266.513 173.251 266.104 173.951C265.695 174.65 265.136 175.193 264.426 175.58C263.727 175.957 262.952 176.145 262.102 176.145ZM262.102 174.548C262.576 174.548 263.017 174.435 263.425 174.209C263.845 173.983 264.184 173.644 264.442 173.192C264.7 172.74 264.829 172.192 264.829 171.546C264.829 170.901 264.706 170.357 264.458 169.916C264.211 169.465 263.883 169.126 263.474 168.9C263.065 168.674 262.624 168.561 262.151 168.561C261.677 168.561 261.236 168.674 260.827 168.9C260.429 169.126 260.112 169.465 259.875 169.916C259.639 170.357 259.52 170.901 259.52 171.546C259.52 172.504 259.762 173.246 260.246 173.773C260.741 174.289 261.36 174.548 262.102 174.548ZM270.375 168.432C270.687 168.001 271.112 167.652 271.65 167.383C272.199 167.103 272.807 166.963 273.474 166.963C274.259 166.963 274.969 167.152 275.604 167.528C276.239 167.905 276.739 168.443 277.105 169.142C277.47 169.83 277.653 170.621 277.653 171.514C277.653 172.407 277.47 173.208 277.105 173.918C276.739 174.618 276.233 175.166 275.588 175.564C274.953 175.952 274.248 176.145 273.474 176.145C272.785 176.145 272.172 176.011 271.634 175.742C271.107 175.473 270.687 175.129 270.375 174.709V176H268.536V164.059H270.375V168.432ZM275.781 171.514C275.781 170.901 275.652 170.374 275.394 169.933C275.147 169.481 274.813 169.142 274.394 168.916C273.985 168.679 273.544 168.561 273.07 168.561C272.608 168.561 272.167 168.679 271.747 168.916C271.338 169.153 271.005 169.497 270.747 169.949C270.499 170.4 270.375 170.933 270.375 171.546C270.375 172.159 270.499 172.697 270.747 173.16C271.005 173.612 271.338 173.956 271.747 174.193C272.167 174.429 272.608 174.548 273.07 174.548C273.544 174.548 273.985 174.429 274.394 174.193C274.813 173.945 275.147 173.59 275.394 173.128C275.652 172.665 275.781 172.127 275.781 171.514ZM287.392 168.609H285.746V176H283.89V168.609H282.841V167.109H283.89V166.479C283.89 165.457 284.159 164.715 284.697 164.252C285.246 163.779 286.101 163.542 287.263 163.542V165.075C286.703 165.075 286.311 165.183 286.085 165.398C285.859 165.602 285.746 165.963 285.746 166.479V167.109H287.392V168.609ZM292.879 176.145C292.04 176.145 291.281 175.957 290.604 175.58C289.926 175.193 289.393 174.655 289.006 173.967C288.619 173.267 288.425 172.461 288.425 171.546C288.425 170.643 288.624 169.841 289.022 169.142C289.42 168.443 289.963 167.905 290.652 167.528C291.34 167.152 292.11 166.963 292.96 166.963C293.809 166.963 294.579 167.152 295.267 167.528C295.956 167.905 296.499 168.443 296.897 169.142C297.295 169.841 297.494 170.643 297.494 171.546C297.494 172.45 297.29 173.251 296.881 173.951C296.472 174.65 295.913 175.193 295.203 175.58C294.503 175.957 293.729 176.145 292.879 176.145ZM292.879 174.548C293.352 174.548 293.793 174.435 294.202 174.209C294.622 173.983 294.961 173.644 295.219 173.192C295.477 172.74 295.606 172.192 295.606 171.546C295.606 170.901 295.482 170.357 295.235 169.916C294.987 169.465 294.659 169.126 294.25 168.9C293.842 168.674 293.401 168.561 292.927 168.561C292.454 168.561 292.013 168.674 291.604 168.9C291.206 169.126 290.889 169.465 290.652 169.916C290.415 170.357 290.297 170.901 290.297 171.546C290.297 172.504 290.539 173.246 291.023 173.773C291.518 174.289 292.137 174.548 292.879 174.548ZM301.152 168.4C301.421 167.948 301.776 167.598 302.217 167.351C302.669 167.092 303.202 166.963 303.815 166.963V168.867H303.347C302.626 168.867 302.077 169.05 301.701 169.416C301.335 169.782 301.152 170.417 301.152 171.32V176H299.313V167.109H301.152V168.4ZM313.425 168.609H311.779V176H309.923V168.609H308.875V167.109H309.923V166.479C309.923 165.457 310.192 164.715 310.73 164.252C311.279 163.779 312.134 163.542 313.296 163.542V165.075C312.737 165.075 312.344 165.183 312.118 165.398C311.892 165.602 311.779 165.963 311.779 166.479V167.109H313.425V168.609ZM316.895 168.4C317.164 167.948 317.519 167.598 317.96 167.351C318.412 167.092 318.944 166.963 319.558 166.963V168.867H319.09C318.369 168.867 317.82 169.05 317.444 169.416C317.078 169.782 316.895 170.417 316.895 171.32V176H315.055V167.109H316.895V168.4ZM325.105 176.145C324.266 176.145 323.508 175.957 322.83 175.58C322.152 175.193 321.62 174.655 321.233 173.967C320.845 173.267 320.652 172.461 320.652 171.546C320.652 170.643 320.851 169.841 321.249 169.142C321.647 168.443 322.19 167.905 322.878 167.528C323.567 167.152 324.336 166.963 325.186 166.963C326.036 166.963 326.805 167.152 327.494 167.528C328.182 167.905 328.725 168.443 329.123 169.142C329.521 169.841 329.721 170.643 329.721 171.546C329.721 172.45 329.516 173.251 329.107 173.951C328.699 174.65 328.139 175.193 327.429 175.58C326.73 175.957 325.955 176.145 325.105 176.145ZM325.105 174.548C325.579 174.548 326.02 174.435 326.429 174.209C326.848 173.983 327.187 173.644 327.445 173.192C327.703 172.74 327.833 172.192 327.833 171.546C327.833 170.901 327.709 170.357 327.461 169.916C327.214 169.465 326.886 169.126 326.477 168.9C326.068 168.674 325.627 168.561 325.154 168.561C324.68 168.561 324.239 168.674 323.831 168.9C323.433 169.126 323.115 169.465 322.878 169.916C322.642 170.357 322.523 170.901 322.523 171.546C322.523 172.504 322.766 173.246 323.25 173.773C323.744 174.289 324.363 174.548 325.105 174.548ZM336.025 166.963C336.724 166.963 337.348 167.109 337.897 167.399C338.456 167.69 338.892 168.12 339.204 168.69C339.516 169.26 339.672 169.949 339.672 170.756V176H337.849V171.03C337.849 170.234 337.65 169.626 337.252 169.206C336.853 168.776 336.31 168.561 335.622 168.561C334.933 168.561 334.385 168.776 333.976 169.206C333.578 169.626 333.379 170.234 333.379 171.03V176H331.539V167.109H333.379V168.125C333.68 167.759 334.062 167.474 334.524 167.27C334.998 167.066 335.498 166.963 336.025 166.963ZM344.165 168.609V173.531C344.165 173.865 344.24 174.107 344.391 174.257C344.552 174.397 344.821 174.467 345.198 174.467H346.327V176H344.875C344.046 176 343.412 175.806 342.971 175.419C342.53 175.032 342.309 174.402 342.309 173.531V168.609H341.26V167.109H342.309V164.898H344.165V167.109H346.327V168.609H344.165ZM354.849 169.384V170.933H348.216V169.384H354.849ZM365.611 171.336C365.611 171.67 365.59 171.971 365.547 172.24H358.753C358.807 172.95 359.07 173.52 359.544 173.951C360.017 174.381 360.598 174.596 361.287 174.596C362.276 174.596 362.976 174.182 363.384 173.354H365.369C365.1 174.171 364.611 174.844 363.901 175.371C363.201 175.887 362.33 176.145 361.287 176.145C360.437 176.145 359.673 175.957 358.995 175.58C358.328 175.193 357.801 174.655 357.414 173.967C357.037 173.267 356.849 172.461 356.849 171.546C356.849 170.632 357.032 169.83 357.398 169.142C357.774 168.443 358.296 167.905 358.963 167.528C359.641 167.152 360.415 166.963 361.287 166.963C362.126 166.963 362.873 167.146 363.53 167.512C364.186 167.878 364.697 168.394 365.063 169.061C365.428 169.717 365.611 170.476 365.611 171.336ZM363.691 170.756C363.68 170.078 363.438 169.534 362.965 169.126C362.491 168.717 361.905 168.512 361.206 168.512C360.571 168.512 360.028 168.717 359.576 169.126C359.124 169.524 358.855 170.067 358.769 170.756H363.691ZM371.908 166.963C372.607 166.963 373.231 167.109 373.78 167.399C374.339 167.69 374.775 168.12 375.087 168.69C375.399 169.26 375.555 169.949 375.555 170.756V176H373.731V171.03C373.731 170.234 373.532 169.626 373.134 169.206C372.736 168.776 372.193 168.561 371.504 168.561C370.816 168.561 370.267 168.776 369.858 169.206C369.46 169.626 369.261 170.234 369.261 171.03V176H367.422V167.109H369.261V168.125C369.562 167.759 369.944 167.474 370.407 167.27C370.88 167.066 371.381 166.963 371.908 166.963ZM377.288 171.514C377.288 170.621 377.471 169.83 377.837 169.142C378.213 168.453 378.719 167.921 379.353 167.544C379.999 167.157 380.714 166.963 381.5 166.963C382.081 166.963 382.651 167.092 383.21 167.351C383.78 167.598 384.232 167.932 384.566 168.351V164.059H386.421V176H384.566V174.661C384.264 175.091 383.845 175.446 383.307 175.726C382.78 176.005 382.172 176.145 381.483 176.145C380.709 176.145 379.999 175.952 379.353 175.564C378.719 175.166 378.213 174.618 377.837 173.918C377.471 173.208 377.288 172.407 377.288 171.514ZM384.566 171.546C384.566 170.933 384.437 170.4 384.178 169.949C383.931 169.497 383.603 169.153 383.194 168.916C382.785 168.679 382.344 168.561 381.871 168.561C381.397 168.561 380.956 168.679 380.548 168.916C380.139 169.142 379.805 169.481 379.547 169.933C379.3 170.374 379.176 170.901 379.176 171.514C379.176 172.127 379.3 172.665 379.547 173.128C379.805 173.59 380.139 173.945 380.548 174.193C380.967 174.429 381.408 174.548 381.871 174.548C382.344 174.548 382.785 174.429 383.194 174.193C383.603 173.956 383.931 173.612 384.178 173.16C384.437 172.697 384.566 172.159 384.566 171.546ZM397.096 179.001C396.042 177.99 395.229 176.705 394.659 175.145C394.1 173.585 393.82 171.912 393.82 170.126C393.82 168.297 394.121 166.571 394.724 164.946C395.337 163.322 396.235 161.982 397.419 160.928H399.323V161.106C398.086 162.246 397.155 163.612 396.531 165.204C395.907 166.797 395.595 168.437 395.595 170.126C395.595 171.751 395.886 173.321 396.467 174.838C397.048 176.355 397.892 177.684 399 178.824V179.001H397.096ZM404.699 168.609H403.053V176H401.198V168.609H400.149V167.109H401.198V166.479C401.198 165.457 401.467 164.715 402.005 164.252C402.553 163.779 403.408 163.542 404.57 163.542V165.075C404.011 165.075 403.618 165.183 403.392 165.398C403.166 165.602 403.053 165.963 403.053 166.479V167.109H404.699V168.609ZM414.382 167.109V176H412.542V174.951C412.252 175.317 411.87 175.607 411.397 175.822C410.934 176.027 410.439 176.129 409.912 176.129C409.213 176.129 408.584 175.984 408.024 175.693C407.475 175.403 407.04 174.973 406.717 174.402C406.405 173.832 406.249 173.144 406.249 172.337V167.109H408.073V172.063C408.073 172.859 408.272 173.472 408.67 173.902C409.068 174.322 409.611 174.532 410.299 174.532C410.988 174.532 411.531 174.322 411.929 173.902C412.338 173.472 412.542 172.859 412.542 172.063V167.109H414.382ZM418.649 164.059V176H416.809V164.059H418.649ZM422.904 164.059V176H421.064V164.059H422.904ZM431.657 168.609V173.531C431.657 173.865 431.732 174.107 431.883 174.257C432.044 174.397 432.313 174.467 432.69 174.467H433.819V176H432.367C431.539 176 430.904 175.806 430.463 175.419C430.022 175.032 429.801 174.402 429.801 173.531V168.609H428.752V167.109H429.801V164.898H431.657V167.109H433.819V168.609H431.657ZM436.451 165.931C436.117 165.931 435.838 165.818 435.612 165.592C435.386 165.366 435.273 165.086 435.273 164.753C435.273 164.419 435.386 164.139 435.612 163.913C435.838 163.688 436.117 163.575 436.451 163.575C436.774 163.575 437.048 163.688 437.274 163.913C437.5 164.139 437.613 164.419 437.613 164.753C437.613 165.086 437.5 165.366 437.274 165.592C437.048 165.818 436.774 165.931 436.451 165.931ZM437.354 167.109V176H435.515V167.109H437.354ZM450.533 166.963C451.232 166.963 451.856 167.109 452.405 167.399C452.964 167.69 453.4 168.12 453.712 168.69C454.035 169.26 454.196 169.949 454.196 170.756V176H452.373V171.03C452.373 170.234 452.174 169.626 451.776 169.206C451.378 168.776 450.834 168.561 450.146 168.561C449.457 168.561 448.909 168.776 448.5 169.206C448.102 169.626 447.903 170.234 447.903 171.03V176H446.079V171.03C446.079 170.234 445.88 169.626 445.482 169.206C445.084 168.776 444.541 168.561 443.852 168.561C443.164 168.561 442.615 168.776 442.206 169.206C441.808 169.626 441.609 170.234 441.609 171.03V176H439.77V167.109H441.609V168.125C441.911 167.759 442.292 167.474 442.755 167.27C443.218 167.066 443.712 166.963 444.24 166.963C444.95 166.963 445.584 167.114 446.144 167.415C446.703 167.716 447.134 168.152 447.435 168.722C447.704 168.184 448.123 167.759 448.693 167.447C449.264 167.125 449.877 166.963 450.533 166.963ZM457.279 176.113C456.946 176.113 456.666 176 456.44 175.774C456.214 175.548 456.101 175.268 456.101 174.935C456.101 174.601 456.214 174.322 456.44 174.096C456.666 173.87 456.946 173.757 457.279 173.757C457.602 173.757 457.876 173.87 458.102 174.096C458.328 174.322 458.441 174.601 458.441 174.935C458.441 175.268 458.328 175.548 458.102 175.774C457.876 176 457.602 176.113 457.279 176.113ZM461.172 176.113C460.838 176.113 460.558 176 460.333 175.774C460.107 175.548 459.994 175.268 459.994 174.935C459.994 174.601 460.107 174.322 460.333 174.096C460.558 173.87 460.838 173.757 461.172 173.757C461.494 173.757 461.769 173.87 461.995 174.096C462.221 174.322 462.333 174.601 462.333 174.935C462.333 175.268 462.221 175.548 461.995 175.774C461.769 176 461.494 176.113 461.172 176.113Z"
    fill="white" />
  <rect x="20" y="158" width="26" height="26" rx="6.2065" fill="url(#paint1_linear_364_8)" />
  <path d="M28.5499 171.513L31.4463 173.996L37.239 167.789" stroke="#FFFEFF" stroke-width="1.86195"
    stroke-linecap="round" stroke-linejoin="round" />
  <rect y="370" width="535" height="83" rx="14.8956" fill="#051245" />
  <path
    d="M77.8897 403.922V412.629C77.8897 413.706 77.5595 414.558 76.8991 415.183C76.2504 415.809 75.393 416.122 74.3272 416.122C73.2613 416.122 72.3982 415.809 71.7378 415.183C71.089 414.558 70.7646 413.706 70.7646 412.629H72.7631C72.7747 413.162 72.908 413.584 73.1628 413.897C73.4293 414.21 73.8174 414.366 74.3272 414.366C74.8369 414.366 75.225 414.21 75.4915 413.897C75.758 413.573 75.8912 413.15 75.8912 412.629V403.922H77.8897ZM85.2659 416.156C84.3623 416.156 83.5455 415.954 82.8156 415.548C82.0857 415.131 81.5122 414.552 81.0952 413.81C80.6781 413.057 80.4695 412.188 80.4695 411.204C80.4695 410.23 80.6839 409.367 81.1125 408.614C81.5412 407.861 82.1263 407.282 82.8677 406.876C83.6092 406.471 84.4376 406.268 85.3528 406.268C86.2681 406.268 87.0964 406.471 87.8379 406.876C88.5794 407.282 89.1644 407.861 89.5931 408.614C90.0218 409.367 90.2361 410.23 90.2361 411.204C90.2361 412.177 90.016 413.04 89.5757 413.793C89.1355 414.546 88.533 415.131 87.7684 415.548C87.0153 415.954 86.1812 416.156 85.2659 416.156ZM85.2659 414.436C85.7757 414.436 86.2507 414.314 86.6909 414.071C87.1428 413.828 87.5077 413.463 87.7858 412.976C88.0638 412.49 88.2028 411.899 88.2028 411.204C88.2028 410.508 88.0696 409.923 87.8031 409.448C87.5367 408.962 87.1833 408.597 86.7431 408.354C86.3028 408.11 85.8278 407.989 85.3181 407.989C84.8083 407.989 84.3333 408.11 83.893 408.354C83.4644 408.597 83.1226 408.962 82.8677 409.448C82.6129 409.923 82.4854 410.508 82.4854 411.204C82.4854 412.235 82.7461 413.034 83.2674 413.602C83.8004 414.158 84.4665 414.436 85.2659 414.436ZM94.1756 407.85C94.5116 407.386 94.9692 407.01 95.5485 406.72C96.1394 406.419 96.794 406.268 97.5123 406.268C98.358 406.268 99.1226 406.471 99.8062 406.876C100.49 407.282 101.028 407.861 101.422 408.614C101.816 409.356 102.013 410.207 102.013 411.169C102.013 412.13 101.816 412.994 101.422 413.758C101.028 414.511 100.484 415.102 99.7888 415.531C99.1053 415.948 98.3464 416.156 97.5123 416.156C96.7708 416.156 96.1104 416.012 95.5311 415.722C94.9635 415.432 94.5116 415.062 94.1756 414.61V416H92.1945V403.14H94.1756V407.85ZM99.9973 411.169C99.9973 410.508 99.8583 409.941 99.5803 409.466C99.3138 408.979 98.9546 408.614 98.5028 408.371C98.0626 408.116 97.5876 407.989 97.0778 407.989C96.5796 407.989 96.1046 408.116 95.6528 408.371C95.2125 408.626 94.8534 408.997 94.5753 409.483C94.3089 409.97 94.1756 410.543 94.1756 411.204C94.1756 411.864 94.3089 412.443 94.5753 412.941C94.8534 413.428 95.2125 413.799 95.6528 414.054C96.1046 414.309 96.5796 414.436 97.0778 414.436C97.5876 414.436 98.0626 414.309 98.5028 414.054C98.9546 413.787 99.3138 413.405 99.5803 412.907C99.8583 412.409 99.9973 411.829 99.9973 411.169ZM120.282 413.532H115.225L114.356 416H112.288L116.616 403.905H118.909L123.237 416H121.151L120.282 413.532ZM119.726 411.916L117.762 406.303L115.781 411.916H119.726ZM127.099 403.14V416H125.118V403.14H127.099ZM138.476 410.978C138.476 411.337 138.453 411.661 138.407 411.951H131.09C131.148 412.716 131.432 413.33 131.942 413.793C132.452 414.256 133.077 414.488 133.819 414.488C134.885 414.488 135.638 414.042 136.078 413.15H138.216C137.926 414.03 137.399 414.755 136.634 415.322C135.881 415.878 134.943 416.156 133.819 416.156C132.904 416.156 132.081 415.954 131.351 415.548C130.633 415.131 130.065 414.552 129.648 413.81C129.243 413.057 129.04 412.188 129.04 411.204C129.04 410.219 129.237 409.356 129.631 408.614C130.036 407.861 130.598 407.282 131.316 406.876C132.046 406.471 132.88 406.268 133.819 406.268C134.722 406.268 135.528 406.465 136.234 406.859C136.941 407.253 137.491 407.809 137.885 408.527C138.279 409.234 138.476 410.051 138.476 410.978ZM136.408 410.352C136.397 409.622 136.136 409.037 135.626 408.597C135.116 408.157 134.485 407.937 133.732 407.937C133.048 407.937 132.463 408.157 131.977 408.597C131.49 409.026 131.201 409.611 131.108 410.352H136.408ZM142.407 407.815C142.697 407.328 143.079 406.952 143.554 406.685C144.04 406.407 144.614 406.268 145.274 406.268V408.319H144.77C143.994 408.319 143.403 408.516 142.998 408.91C142.604 409.304 142.407 409.987 142.407 410.96V416H140.426V406.425H142.407V407.815ZM149.407 408.041V413.341C149.407 413.7 149.488 413.961 149.65 414.123C149.824 414.274 150.113 414.349 150.519 414.349H151.735V416H150.171C149.279 416 148.596 415.791 148.121 415.374C147.646 414.957 147.408 414.28 147.408 413.341V408.041H146.279V406.425H147.408V404.044H149.407V406.425H151.735V408.041H149.407ZM157.037 416.156C156.284 416.156 155.606 416.023 155.004 415.757C154.413 415.479 153.944 415.108 153.596 414.645C153.248 414.169 153.063 413.642 153.04 413.063H155.091C155.125 413.469 155.316 413.81 155.664 414.088C156.023 414.355 156.469 414.488 157.002 414.488C157.558 414.488 157.987 414.384 158.288 414.175C158.601 413.955 158.757 413.677 158.757 413.341C158.757 412.982 158.584 412.716 158.236 412.542C157.9 412.368 157.361 412.177 156.62 411.968C155.902 411.771 155.316 411.58 154.865 411.395C154.413 411.209 154.019 410.926 153.683 410.543C153.359 410.161 153.196 409.657 153.196 409.031C153.196 408.522 153.347 408.058 153.648 407.641C153.949 407.212 154.378 406.876 154.934 406.633C155.502 406.39 156.151 406.268 156.881 406.268C157.97 406.268 158.844 406.546 159.505 407.102C160.177 407.647 160.536 408.394 160.582 409.344H158.601C158.566 408.915 158.392 408.574 158.08 408.319C157.767 408.064 157.344 407.937 156.811 407.937C156.29 407.937 155.89 408.035 155.612 408.232C155.334 408.429 155.195 408.69 155.195 409.014C155.195 409.269 155.288 409.483 155.473 409.657C155.658 409.831 155.884 409.97 156.151 410.074C156.417 410.167 156.811 410.288 157.332 410.439C158.027 410.624 158.595 410.816 159.035 411.012C159.487 411.198 159.875 411.476 160.2 411.847C160.524 412.217 160.692 412.71 160.704 413.324C160.704 413.868 160.553 414.355 160.252 414.784C159.951 415.212 159.522 415.548 158.966 415.791C158.421 416.035 157.778 416.156 157.037 416.156Z"
    fill="white" />
  <path
    d="M206.985 413.499C208.018 412.606 208.83 411.874 209.422 411.304C210.024 410.723 210.524 410.121 210.922 409.497C211.32 408.873 211.519 408.249 211.519 407.625C211.519 406.979 211.363 406.474 211.051 406.108C210.75 405.742 210.271 405.559 209.615 405.559C208.98 405.559 208.486 405.764 208.131 406.173C207.786 406.571 207.603 407.109 207.582 407.786H205.807C205.839 406.56 206.205 405.624 206.904 404.979C207.614 404.322 208.512 403.994 209.599 403.994C210.772 403.994 211.686 404.317 212.342 404.962C213.009 405.608 213.343 406.468 213.343 407.544C213.343 408.319 213.144 409.067 212.746 409.787C212.358 410.497 211.89 411.137 211.342 411.708C210.804 412.267 210.115 412.918 209.276 413.66L208.55 414.306H213.666V415.839H205.823V414.499L206.985 413.499ZM224.202 406.963C224.901 406.963 225.525 407.109 226.073 407.399C226.633 407.69 227.069 408.12 227.38 408.69C227.692 409.26 227.848 409.949 227.848 410.756V416H226.025V411.03C226.025 410.234 225.826 409.626 225.428 409.206C225.03 408.776 224.487 408.561 223.798 408.561C223.11 408.561 222.561 408.776 222.152 409.206C221.754 409.626 221.555 410.234 221.555 411.03V416H219.715V407.109H221.555V408.125C221.856 407.759 222.238 407.474 222.701 407.27C223.174 407.066 223.674 406.963 224.202 406.963ZM238.344 411.336C238.344 411.67 238.323 411.971 238.28 412.24H231.486C231.54 412.95 231.803 413.52 232.277 413.951C232.75 414.381 233.331 414.596 234.019 414.596C235.009 414.596 235.708 414.182 236.117 413.354H238.102C237.833 414.171 237.344 414.844 236.634 415.371C235.934 415.887 235.063 416.145 234.019 416.145C233.17 416.145 232.406 415.957 231.728 415.58C231.061 415.193 230.534 414.655 230.147 413.967C229.77 413.267 229.582 412.461 229.582 411.546C229.582 410.632 229.765 409.83 230.13 409.142C230.507 408.443 231.029 407.905 231.696 407.528C232.373 407.152 233.148 406.963 234.019 406.963C234.859 406.963 235.606 407.146 236.262 407.512C236.919 407.878 237.43 408.394 237.795 409.061C238.161 409.717 238.344 410.476 238.344 411.336ZM236.424 410.756C236.413 410.078 236.171 409.534 235.698 409.126C235.224 408.717 234.638 408.512 233.939 408.512C233.304 408.512 232.761 408.717 232.309 409.126C231.857 409.524 231.588 410.067 231.502 410.756H236.424ZM252.096 407.109L249.336 416H247.4L245.609 409.432L243.818 416H241.881L239.106 407.109H240.977L242.833 414.257L244.721 407.109H246.641L248.449 414.225L250.288 407.109H252.096ZM258.598 405.931C258.265 405.931 257.985 405.818 257.759 405.592C257.533 405.366 257.42 405.086 257.42 404.753C257.42 404.419 257.533 404.139 257.759 403.913C257.985 403.688 258.265 403.575 258.598 403.575C258.921 403.575 259.195 403.688 259.421 403.913C259.647 404.139 259.76 404.419 259.76 404.753C259.76 405.086 259.647 405.366 259.421 405.592C259.195 405.818 258.921 405.931 258.598 405.931ZM259.502 417.743C259.502 418.614 259.281 419.244 258.84 419.631C258.41 420.029 257.781 420.228 256.952 420.228H256V418.679H256.63C257.006 418.679 257.27 418.603 257.42 418.453C257.582 418.313 257.662 418.076 257.662 417.743V407.109H259.502V417.743ZM265.774 416.145C264.935 416.145 264.176 415.957 263.499 415.58C262.821 415.193 262.288 414.655 261.901 413.967C261.514 413.267 261.32 412.461 261.32 411.546C261.32 410.643 261.519 409.841 261.917 409.142C262.315 408.443 262.859 407.905 263.547 407.528C264.236 407.152 265.005 406.963 265.855 406.963C266.704 406.963 267.474 407.152 268.162 407.528C268.851 407.905 269.394 408.443 269.792 409.142C270.19 409.841 270.389 410.643 270.389 411.546C270.389 412.45 270.185 413.251 269.776 413.951C269.367 414.65 268.808 415.193 268.098 415.58C267.398 415.957 266.624 416.145 265.774 416.145ZM265.774 414.548C266.247 414.548 266.688 414.435 267.097 414.209C267.517 413.983 267.856 413.644 268.114 413.192C268.372 412.74 268.501 412.192 268.501 411.546C268.501 410.901 268.377 410.357 268.13 409.916C267.882 409.465 267.554 409.126 267.146 408.9C266.737 408.674 266.296 408.561 265.822 408.561C265.349 408.561 264.908 408.674 264.499 408.9C264.101 409.126 263.784 409.465 263.547 409.916C263.31 410.357 263.192 410.901 263.192 411.546C263.192 412.504 263.434 413.246 263.918 413.773C264.413 414.289 265.032 414.548 265.774 414.548ZM274.047 408.432C274.359 408.001 274.784 407.652 275.322 407.383C275.871 407.103 276.479 406.963 277.146 406.963C277.931 406.963 278.641 407.152 279.276 407.528C279.91 407.905 280.411 408.443 280.776 409.142C281.142 409.83 281.325 410.621 281.325 411.514C281.325 412.407 281.142 413.208 280.776 413.918C280.411 414.618 279.905 415.166 279.259 415.564C278.625 415.952 277.92 416.145 277.146 416.145C276.457 416.145 275.844 416.011 275.306 415.742C274.779 415.473 274.359 415.129 274.047 414.709V416H272.208V404.059H274.047V408.432ZM279.453 411.514C279.453 410.901 279.324 410.374 279.066 409.933C278.818 409.481 278.485 409.142 278.065 408.916C277.657 408.679 277.215 408.561 276.742 408.561C276.28 408.561 275.838 408.679 275.419 408.916C275.01 409.153 274.677 409.497 274.418 409.949C274.171 410.4 274.047 410.933 274.047 411.546C274.047 412.159 274.171 412.697 274.418 413.16C274.677 413.612 275.01 413.956 275.419 414.193C275.838 414.429 276.28 414.548 276.742 414.548C277.215 414.548 277.657 414.429 278.065 414.193C278.485 413.945 278.818 413.59 279.066 413.128C279.324 412.665 279.453 412.127 279.453 411.514ZM291.064 408.609H289.418V416H287.562V408.609H286.513V407.109H287.562V406.479C287.562 405.457 287.831 404.715 288.369 404.252C288.917 403.779 289.773 403.542 290.934 403.542V405.075C290.375 405.075 289.982 405.183 289.756 405.398C289.531 405.602 289.418 405.963 289.418 406.479V407.109H291.064V408.609ZM296.551 416.145C295.712 416.145 294.953 415.957 294.275 415.58C293.598 415.193 293.065 414.655 292.678 413.967C292.29 413.267 292.097 412.461 292.097 411.546C292.097 410.643 292.296 409.841 292.694 409.142C293.092 408.443 293.635 407.905 294.324 407.528C295.012 407.152 295.781 406.963 296.631 406.963C297.481 406.963 298.25 407.152 298.939 407.528C299.627 407.905 300.171 408.443 300.569 409.142C300.967 409.841 301.166 410.643 301.166 411.546C301.166 412.45 300.961 413.251 300.553 413.951C300.144 414.65 299.584 415.193 298.874 415.58C298.175 415.957 297.401 416.145 296.551 416.145ZM296.551 414.548C297.024 414.548 297.465 414.435 297.874 414.209C298.293 413.983 298.632 413.644 298.89 413.192C299.149 412.74 299.278 412.192 299.278 411.546C299.278 410.901 299.154 410.357 298.907 409.916C298.659 409.465 298.331 409.126 297.922 408.9C297.513 408.674 297.072 408.561 296.599 408.561C296.126 408.561 295.685 408.674 295.276 408.9C294.878 409.126 294.56 409.465 294.324 409.916C294.087 410.357 293.969 410.901 293.969 411.546C293.969 412.504 294.211 413.246 294.695 413.773C295.19 414.289 295.808 414.548 296.551 414.548ZM304.824 408.4C305.093 407.948 305.448 407.598 305.889 407.351C306.341 407.092 306.873 406.963 307.487 406.963V408.867H307.019C306.298 408.867 305.749 409.05 305.373 409.416C305.007 409.782 304.824 410.417 304.824 411.32V416H302.984V407.109H304.824V408.4ZM312.756 411.514C312.756 410.621 312.939 409.83 313.305 409.142C313.681 408.453 314.187 407.921 314.822 407.544C315.467 407.157 316.183 406.963 316.968 406.963C317.549 406.963 318.119 407.092 318.678 407.351C319.249 407.598 319.7 407.932 320.034 408.351V404.059H321.89V416H320.034V414.661C319.733 415.091 319.313 415.446 318.775 415.726C318.248 416.005 317.64 416.145 316.952 416.145C316.177 416.145 315.467 415.952 314.822 415.564C314.187 415.166 313.681 414.618 313.305 413.918C312.939 413.208 312.756 412.407 312.756 411.514ZM320.034 411.546C320.034 410.933 319.905 410.4 319.647 409.949C319.399 409.497 319.071 409.153 318.662 408.916C318.253 408.679 317.812 408.561 317.339 408.561C316.866 408.561 316.425 408.679 316.016 408.916C315.607 409.142 315.273 409.481 315.015 409.933C314.768 410.374 314.644 410.901 314.644 411.514C314.644 412.127 314.768 412.665 315.015 413.128C315.273 413.59 315.607 413.945 316.016 414.193C316.435 414.429 316.876 414.548 317.339 414.548C317.812 414.548 318.253 414.429 318.662 414.193C319.071 413.956 319.399 413.612 319.647 413.16C319.905 412.697 320.034 412.159 320.034 411.546ZM332.455 411.336C332.455 411.67 332.433 411.971 332.39 412.24H325.597C325.651 412.95 325.914 413.52 326.387 413.951C326.861 414.381 327.442 414.596 328.13 414.596C329.12 414.596 329.819 414.182 330.228 413.354H332.213C331.944 414.171 331.454 414.844 330.744 415.371C330.045 415.887 329.174 416.145 328.13 416.145C327.28 416.145 326.517 415.957 325.839 415.58C325.172 415.193 324.645 414.655 324.257 413.967C323.881 413.267 323.693 412.461 323.693 411.546C323.693 410.632 323.876 409.83 324.241 409.142C324.618 408.443 325.14 407.905 325.807 407.528C326.484 407.152 327.259 406.963 328.13 406.963C328.969 406.963 329.717 407.146 330.373 407.512C331.03 407.878 331.541 408.394 331.906 409.061C332.272 409.717 332.455 410.476 332.455 411.336ZM330.535 410.756C330.524 410.078 330.282 409.534 329.809 409.126C329.335 408.717 328.749 408.512 328.05 408.512C327.415 408.512 326.872 408.717 326.42 409.126C325.968 409.524 325.699 410.067 325.613 410.756H330.535ZM337.493 416.145C336.793 416.145 336.164 416.022 335.605 415.774C335.056 415.516 334.62 415.172 334.298 414.741C333.975 414.3 333.803 413.811 333.781 413.273H335.685C335.718 413.649 335.895 413.967 336.218 414.225C336.551 414.472 336.966 414.596 337.46 414.596C337.977 414.596 338.375 414.499 338.655 414.306C338.945 414.101 339.09 413.843 339.09 413.531C339.09 413.198 338.929 412.95 338.606 412.789C338.294 412.627 337.794 412.45 337.105 412.256C336.438 412.073 335.895 411.896 335.476 411.724C335.056 411.552 334.69 411.288 334.378 410.933C334.077 410.578 333.926 410.11 333.926 409.529C333.926 409.056 334.066 408.625 334.346 408.238C334.626 407.84 335.024 407.528 335.54 407.302C336.067 407.076 336.67 406.963 337.347 406.963C338.359 406.963 339.171 407.222 339.784 407.738C340.408 408.244 340.742 408.937 340.785 409.82H338.945C338.913 409.422 338.751 409.104 338.461 408.867C338.17 408.631 337.778 408.512 337.283 408.512C336.799 408.512 336.428 408.604 336.169 408.787C335.911 408.97 335.782 409.212 335.782 409.513C335.782 409.75 335.868 409.949 336.04 410.11C336.213 410.271 336.422 410.4 336.67 410.497C336.917 410.583 337.283 410.696 337.767 410.836C338.413 411.008 338.94 411.186 339.348 411.369C339.768 411.541 340.128 411.799 340.43 412.143C340.731 412.488 340.887 412.945 340.898 413.515C340.898 414.021 340.758 414.472 340.478 414.87C340.198 415.268 339.8 415.58 339.284 415.806C338.778 416.032 338.181 416.145 337.493 416.145ZM343.821 405.931C343.488 405.931 343.208 405.818 342.982 405.592C342.756 405.366 342.643 405.086 342.643 404.753C342.643 404.419 342.756 404.139 342.982 403.913C343.208 403.688 343.488 403.575 343.821 403.575C344.144 403.575 344.418 403.688 344.644 403.913C344.87 404.139 344.983 404.419 344.983 404.753C344.983 405.086 344.87 405.366 344.644 405.592C344.418 405.818 344.144 405.931 343.821 405.931ZM344.725 407.109V416H342.885V407.109H344.725ZM350.723 406.963C351.411 406.963 352.019 407.103 352.546 407.383C353.084 407.652 353.503 407.991 353.805 408.4V407.109H355.66V416.145C355.66 416.963 355.488 417.689 355.144 418.324C354.8 418.969 354.3 419.475 353.643 419.841C352.998 420.206 352.223 420.389 351.32 420.389C350.115 420.389 349.114 420.104 348.318 419.534C347.522 418.975 347.07 418.211 346.963 417.243H348.786C348.926 417.705 349.222 418.076 349.674 418.356C350.136 418.646 350.685 418.792 351.32 418.792C352.062 418.792 352.659 418.566 353.111 418.114C353.573 417.662 353.805 417.006 353.805 416.145V414.661C353.493 415.08 353.068 415.435 352.53 415.726C352.003 416.005 351.4 416.145 350.723 416.145C349.948 416.145 349.238 415.952 348.592 415.564C347.958 415.166 347.452 414.618 347.076 413.918C346.71 413.208 346.527 412.407 346.527 411.514C346.527 410.621 346.71 409.83 347.076 409.142C347.452 408.453 347.958 407.921 348.592 407.544C349.238 407.157 349.948 406.963 350.723 406.963ZM353.805 411.546C353.805 410.933 353.676 410.4 353.417 409.949C353.17 409.497 352.842 409.153 352.433 408.916C352.024 408.679 351.583 408.561 351.11 408.561C350.636 408.561 350.195 408.679 349.787 408.916C349.378 409.142 349.044 409.481 348.786 409.933C348.539 410.374 348.415 410.901 348.415 411.514C348.415 412.127 348.539 412.665 348.786 413.128C349.044 413.59 349.378 413.945 349.787 414.193C350.206 414.429 350.647 414.548 351.11 414.548C351.583 414.548 352.024 414.429 352.433 414.193C352.842 413.956 353.17 413.612 353.417 413.16C353.676 412.697 353.805 412.159 353.805 411.546ZM362.563 406.963C363.262 406.963 363.886 407.109 364.435 407.399C364.994 407.69 365.43 408.12 365.742 408.69C366.054 409.26 366.21 409.949 366.21 410.756V416H364.386V411.03C364.386 410.234 364.187 409.626 363.789 409.206C363.391 408.776 362.848 408.561 362.159 408.561C361.471 408.561 360.922 408.776 360.513 409.206C360.115 409.626 359.916 410.234 359.916 411.03V416H358.077V407.109H359.916V408.125C360.218 407.759 360.599 407.474 361.062 407.27C361.535 407.066 362.036 406.963 362.563 406.963ZM376.815 419.001C375.76 417.99 374.948 416.705 374.378 415.145C373.818 413.585 373.539 411.912 373.539 410.126C373.539 408.297 373.84 406.571 374.442 404.946C375.056 403.322 375.954 401.982 377.137 400.928H379.041V401.106C377.804 402.246 376.874 403.612 376.25 405.204C375.626 406.797 375.314 408.437 375.314 410.126C375.314 411.751 375.604 413.321 376.185 414.838C376.766 416.355 377.611 417.684 378.719 418.824V419.001H376.815ZM384.418 408.609H382.772V416H380.916V408.609H379.867V407.109H380.916V406.479C380.916 405.457 381.185 404.715 381.723 404.252C382.272 403.779 383.127 403.542 384.289 403.542V405.075C383.73 405.075 383.337 405.183 383.111 405.398C382.885 405.602 382.772 405.963 382.772 406.479V407.109H384.418V408.609ZM394.101 407.109V416H392.261V414.951C391.971 415.317 391.589 415.607 391.115 415.822C390.653 416.027 390.158 416.129 389.631 416.129C388.931 416.129 388.302 415.984 387.743 415.693C387.194 415.403 386.758 414.973 386.436 414.402C386.124 413.832 385.968 413.144 385.968 412.337V407.109H387.791V412.063C387.791 412.859 387.99 413.472 388.388 413.902C388.786 414.322 389.33 414.532 390.018 414.532C390.707 414.532 391.25 414.322 391.648 413.902C392.057 413.472 392.261 412.859 392.261 412.063V407.109H394.101ZM398.367 404.059V416H396.528V404.059H398.367ZM402.622 404.059V416H400.783V404.059H402.622ZM411.376 408.609V413.531C411.376 413.865 411.451 414.107 411.601 414.257C411.763 414.397 412.032 414.467 412.408 414.467H413.538V416H412.086C411.257 416 410.623 415.806 410.181 415.419C409.74 415.032 409.52 414.402 409.52 413.531V408.609H408.471V407.109H409.52V404.898H411.376V407.109H413.538V408.609H411.376ZM416.169 405.931C415.836 405.931 415.556 405.818 415.33 405.592C415.104 405.366 414.991 405.086 414.991 404.753C414.991 404.419 415.104 404.139 415.33 403.913C415.556 403.688 415.836 403.575 416.169 403.575C416.492 403.575 416.766 403.688 416.992 403.913C417.218 404.139 417.331 404.419 417.331 404.753C417.331 405.086 417.218 405.366 416.992 405.592C416.766 405.818 416.492 405.931 416.169 405.931ZM417.073 407.109V416H415.233V407.109H417.073ZM430.252 406.963C430.951 406.963 431.575 407.109 432.123 407.399C432.683 407.69 433.119 408.12 433.431 408.69C433.753 409.26 433.915 409.949 433.915 410.756V416H432.091V411.03C432.091 410.234 431.892 409.626 431.494 409.206C431.096 408.776 430.553 408.561 429.864 408.561C429.176 408.561 428.627 408.776 428.218 409.206C427.82 409.626 427.621 410.234 427.621 411.03V416H425.798V411.03C425.798 410.234 425.599 409.626 425.201 409.206C424.803 408.776 424.259 408.561 423.571 408.561C422.882 408.561 422.334 408.776 421.925 409.206C421.527 409.626 421.328 410.234 421.328 411.03V416H419.488V407.109H421.328V408.125C421.629 407.759 422.011 407.474 422.474 407.27C422.936 407.066 423.431 406.963 423.958 406.963C424.668 406.963 425.303 407.114 425.862 407.415C426.422 407.716 426.852 408.152 427.153 408.722C427.422 408.184 427.842 407.759 428.412 407.447C428.982 407.125 429.595 406.963 430.252 406.963ZM436.998 416.113C436.664 416.113 436.385 416 436.159 415.774C435.933 415.548 435.82 415.268 435.82 414.935C435.82 414.601 435.933 414.322 436.159 414.096C436.385 413.87 436.664 413.757 436.998 413.757C437.321 413.757 437.595 413.87 437.821 414.096C438.047 414.322 438.16 414.601 438.16 414.935C438.16 415.268 438.047 415.548 437.821 415.774C437.595 416 437.321 416.113 436.998 416.113ZM440.89 416.113C440.557 416.113 440.277 416 440.051 415.774C439.825 415.548 439.712 415.268 439.712 414.935C439.712 414.601 439.825 414.322 440.051 414.096C440.277 413.87 440.557 413.757 440.89 413.757C441.213 413.757 441.487 413.87 441.713 414.096C441.939 414.322 442.052 414.601 442.052 414.935C442.052 415.268 441.939 415.548 441.713 415.774C441.487 416 441.213 416.113 440.89 416.113Z"
    fill="white" />
  <rect x="20" y="399" width="26" height="26" rx="6.2065" fill="url(#paint2_linear_364_8)" />
  <path d="M28.5499 412.325L31.4463 414.808L37.239 408.601" stroke="#FFFEFF" stroke-width="1.86195"
    stroke-linecap="round" stroke-linejoin="round" />
  <rect x="87" y="241" width="26" height="26" rx="6.2065" fill="url(#paint3_linear_364_8)" />
  <path d="M95.58 254.68L98.4764 257.163L104.269 250.956" stroke="#FFFEFF" stroke-width="1.86195" stroke-linecap="round"
    stroke-linejoin="round" />
  <rect x="87" y="317" width="26" height="26" rx="6.2065" fill="url(#paint4_linear_364_8)" />
  <path d="M95.58 330.4L98.4764 332.882L104.269 326.676" stroke="#FFFEFF" stroke-width="1.86195" stroke-linecap="round"
    stroke-linejoin="round" />
  <rect x="297" y="311" width="26" height="26" rx="6.2065" fill="url(#paint5_linear_364_8)" />
  <path d="M305.36 324.193L308.256 326.676L314.049 320.469" stroke="#FFFEFF" stroke-width="1.86195"
    stroke-linecap="round" stroke-linejoin="round" />
  <rect x="295" y="239" width="26" height="26" rx="6.2065" fill="url(#paint6_linear_364_8)" />
  <path d="M304.118 252.198L307.015 254.68L312.808 248.474" stroke="#FFFEFF" stroke-width="1.86195"
    stroke-linecap="round" stroke-linejoin="round" />
  <rect x="86" y="472" width="26" height="26" rx="6.2065" fill="url(#paint7_linear_364_8)" />
  <path d="M94.3387 485.562L97.2351 488.045L103.028 481.838" stroke="#FFFEFF" stroke-width="1.86195"
    stroke-linecap="round" stroke-linejoin="round" />
  <rect x="130" y="250" width="146" height="10" rx="5" fill="#EAE9E9" />
  <rect x="129" y="325" width="146" height="10" rx="5" fill="#EAE9E9" />
  <rect x="124" y="481" width="146" height="10" rx="5" fill="#EAE9E9" />
  <rect x="295" y="349" width="146" height="10" rx="5" fill="#EAE9E9" />
  <rect x="297" y="273" width="146" height="10" rx="5" fill="url(#paint8_linear_364_8)" />
  <rect x="290" y="481" width="146" height="10" rx="5" fill="#EAE9E9" />
  <rect x="89" y="47" width="353" height="55" rx="14.8956" fill="#152B70" />
  <circle cx="407.5" cy="74.5" r="14.5" fill="#02012D" />
  <rect x="112" y="68" width="12" height="2" fill="#02012D" />
  <rect x="112" y="73" width="12" height="2" fill="#02012D" />
  <rect x="112" y="78" width="12" height="2" fill="#02012D" />
  <path
    d="M223.056 80.112C222.235 80.112 221.499 79.9787 220.848 79.712C220.197 79.4453 219.675 79.0507 219.28 78.528C218.896 78.0053 218.693 77.376 218.672 76.64H221.584C221.627 77.056 221.771 77.376 222.016 77.6C222.261 77.8133 222.581 77.92 222.976 77.92C223.381 77.92 223.701 77.8293 223.936 77.648C224.171 77.456 224.288 77.1947 224.288 76.864C224.288 76.5867 224.192 76.3573 224 76.176C223.819 75.9947 223.589 75.8453 223.312 75.728C223.045 75.6107 222.661 75.4773 222.16 75.328C221.435 75.104 220.843 74.88 220.384 74.656C219.925 74.432 219.531 74.1013 219.2 73.664C218.869 73.2267 218.704 72.656 218.704 71.952C218.704 70.9067 219.083 70.0907 219.84 69.504C220.597 68.9067 221.584 68.608 222.8 68.608C224.037 68.608 225.035 68.9067 225.792 69.504C226.549 70.0907 226.955 70.912 227.008 71.968H224.048C224.027 71.6053 223.893 71.3227 223.648 71.12C223.403 70.9067 223.088 70.8 222.704 70.8C222.373 70.8 222.107 70.8907 221.904 71.072C221.701 71.2427 221.6 71.4933 221.6 71.824C221.6 72.1867 221.771 72.4693 222.112 72.672C222.453 72.8747 222.987 73.0933 223.712 73.328C224.437 73.5733 225.024 73.808 225.472 74.032C225.931 74.256 226.325 74.5813 226.656 75.008C226.987 75.4347 227.152 75.984 227.152 76.656C227.152 77.296 226.987 77.8773 226.656 78.4C226.336 78.9227 225.867 79.3387 225.248 79.648C224.629 79.9573 223.899 80.112 223.056 80.112ZM233.332 77.68V80H231.94C230.948 80 230.174 79.76 229.62 79.28C229.065 78.7893 228.788 77.9947 228.788 76.896V73.344H227.7V71.072H228.788V68.896H231.524V71.072H233.316V73.344H231.524V76.928C231.524 77.1947 231.588 77.3867 231.716 77.504C231.844 77.6213 232.057 77.68 232.356 77.68H233.332ZM233.832 75.52C233.832 74.6027 234.002 73.7973 234.344 73.104C234.696 72.4107 235.17 71.8773 235.768 71.504C236.365 71.1307 237.032 70.944 237.768 70.944C238.397 70.944 238.946 71.072 239.416 71.328C239.896 71.584 240.264 71.92 240.52 72.336V71.072H243.256V80H240.52V78.736C240.253 79.152 239.88 79.488 239.4 79.744C238.93 80 238.381 80.128 237.752 80.128C237.026 80.128 236.365 79.9413 235.768 79.568C235.17 79.184 234.696 78.6453 234.344 77.952C234.002 77.248 233.832 76.4373 233.832 75.52ZM240.52 75.536C240.52 74.8533 240.328 74.3147 239.944 73.92C239.57 73.5253 239.112 73.328 238.568 73.328C238.024 73.328 237.56 73.5253 237.176 73.92C236.802 74.304 236.616 74.8373 236.616 75.52C236.616 76.2027 236.802 76.7467 237.176 77.152C237.56 77.5467 238.024 77.744 238.568 77.744C239.112 77.744 239.57 77.5467 239.944 77.152C240.328 76.7573 240.52 76.2187 240.52 75.536ZM247.491 72.56C247.811 72.0693 248.211 71.6853 248.691 71.408C249.171 71.12 249.704 70.976 250.291 70.976V73.872H249.539C248.856 73.872 248.344 74.0213 248.003 74.32C247.662 74.608 247.491 75.12 247.491 75.856V80H244.755V71.072H247.491V72.56ZM256.095 77.68V80H254.703C253.711 80 252.938 79.76 252.383 79.28C251.828 78.7893 251.551 77.9947 251.551 76.896V73.344H250.463V71.072H251.551V68.896H254.287V71.072H256.079V73.344H254.287V76.928C254.287 77.1947 254.351 77.3867 254.479 77.504C254.607 77.6213 254.82 77.68 255.119 77.68H256.095ZM265.955 71.072V80H263.219V78.784C262.942 79.1787 262.563 79.4987 262.083 79.744C261.614 79.9787 261.091 80.096 260.515 80.096C259.832 80.096 259.23 79.9467 258.707 79.648C258.184 79.3387 257.779 78.896 257.491 78.32C257.203 77.744 257.059 77.0667 257.059 76.288V71.072H259.779V75.92C259.779 76.5173 259.934 76.9813 260.243 77.312C260.552 77.6427 260.968 77.808 261.491 77.808C262.024 77.808 262.446 77.6427 262.755 77.312C263.064 76.9813 263.219 76.5173 263.219 75.92V71.072H265.955ZM270.176 72.336C270.443 71.92 270.811 71.584 271.28 71.328C271.749 71.072 272.299 70.944 272.928 70.944C273.664 70.944 274.331 71.1307 274.928 71.504C275.525 71.8773 275.995 72.4107 276.336 73.104C276.688 73.7973 276.864 74.6027 276.864 75.52C276.864 76.4373 276.688 77.248 276.336 77.952C275.995 78.6453 275.525 79.184 274.928 79.568C274.331 79.9413 273.664 80.128 272.928 80.128C272.309 80.128 271.76 80 271.28 79.744C270.811 79.488 270.443 79.1573 270.176 78.752V84.256H267.44V71.072H270.176V72.336ZM274.08 75.52C274.08 74.8373 273.888 74.304 273.504 73.92C273.131 73.5253 272.667 73.328 272.112 73.328C271.568 73.328 271.104 73.5253 270.72 73.92C270.347 74.3147 270.16 74.8533 270.16 75.536C270.16 76.2187 270.347 76.7573 270.72 77.152C271.104 77.5467 271.568 77.744 272.112 77.744C272.656 77.744 273.12 77.5467 273.504 77.152C273.888 76.7467 274.08 76.2027 274.08 75.52ZM284.331 80L280.555 75.04V80H277.819V68.768H280.555V73.696L284.299 68.768H287.516L283.163 74.272L287.675 80H284.331ZM289.872 70.144C289.392 70.144 288.997 70.0053 288.688 69.728C288.389 69.44 288.24 69.088 288.24 68.672C288.24 68.2453 288.389 67.8933 288.688 67.616C288.997 67.328 289.392 67.184 289.872 67.184C290.341 67.184 290.725 67.328 291.024 67.616C291.333 67.8933 291.488 68.2453 291.488 68.672C291.488 69.088 291.333 69.44 291.024 69.728C290.725 70.0053 290.341 70.144 289.872 70.144ZM291.232 71.072V80H288.496V71.072H291.232ZM298.175 70.976C299.22 70.976 300.052 71.3173 300.671 72C301.3 72.672 301.615 73.6 301.615 74.784V80H298.895V75.152C298.895 74.5547 298.74 74.0907 298.431 73.76C298.121 73.4293 297.705 73.264 297.183 73.264C296.66 73.264 296.244 73.4293 295.935 73.76C295.625 74.0907 295.471 74.5547 295.471 75.152V80H292.735V71.072H295.471V72.256C295.748 71.8613 296.121 71.552 296.591 71.328C297.06 71.0933 297.588 70.976 298.175 70.976ZM306.428 70.944C307.057 70.944 307.606 71.072 308.076 71.328C308.556 71.584 308.924 71.92 309.18 72.336V71.072H311.916V79.984C311.916 80.8053 311.75 81.5467 311.42 82.208C311.1 82.88 310.604 83.4133 309.932 83.808C309.27 84.2027 308.444 84.4 307.452 84.4C306.129 84.4 305.057 84.0853 304.236 83.456C303.414 82.8373 302.945 81.9947 302.828 80.928H305.532C305.617 81.2693 305.82 81.536 306.14 81.728C306.46 81.9307 306.854 82.032 307.324 82.032C307.889 82.032 308.337 81.8667 308.668 81.536C309.009 81.216 309.18 80.6987 309.18 79.984V78.72C308.913 79.136 308.545 79.4773 308.076 79.744C307.606 80 307.057 80.128 306.428 80.128C305.692 80.128 305.025 79.9413 304.428 79.568C303.83 79.184 303.356 78.6453 303.004 77.952C302.662 77.248 302.492 76.4373 302.492 75.52C302.492 74.6027 302.662 73.7973 303.004 73.104C303.356 72.4107 303.83 71.8773 304.428 71.504C305.025 71.1307 305.692 70.944 306.428 70.944ZM309.18 75.536C309.18 74.8533 308.988 74.3147 308.604 73.92C308.23 73.5253 307.772 73.328 307.228 73.328C306.684 73.328 306.22 73.5253 305.836 73.92C305.462 74.304 305.276 74.8373 305.276 75.52C305.276 76.2027 305.462 76.7467 305.836 77.152C306.22 77.5467 306.684 77.744 307.228 77.744C307.772 77.744 308.23 77.5467 308.604 77.152C308.988 76.7573 309.18 76.2187 309.18 75.536ZM317.047 80.128C316.268 80.128 315.575 79.9947 314.967 79.728C314.359 79.4613 313.879 79.0987 313.527 78.64C313.175 78.1707 312.978 77.648 312.935 77.072H315.639C315.671 77.3813 315.815 77.632 316.071 77.824C316.327 78.016 316.642 78.112 317.015 78.112C317.356 78.112 317.618 78.048 317.799 77.92C317.991 77.7813 318.087 77.6053 318.087 77.392C318.087 77.136 317.954 76.9493 317.687 76.832C317.42 76.704 316.988 76.5653 316.391 76.416C315.751 76.2667 315.218 76.112 314.791 75.952C314.364 75.7813 313.996 75.52 313.687 75.168C313.378 74.8053 313.223 74.32 313.223 73.712C313.223 73.2 313.362 72.736 313.639 72.32C313.927 71.8933 314.343 71.5573 314.887 71.312C315.442 71.0667 316.098 70.944 316.855 70.944C317.975 70.944 318.855 71.2213 319.495 71.776C320.146 72.3307 320.519 73.0667 320.615 73.984H318.087C318.044 73.6747 317.906 73.4293 317.671 73.248C317.447 73.0667 317.148 72.976 316.775 72.976C316.455 72.976 316.21 73.04 316.039 73.168C315.868 73.2853 315.783 73.4507 315.783 73.664C315.783 73.92 315.916 74.112 316.183 74.24C316.46 74.368 316.887 74.496 317.463 74.624C318.124 74.7947 318.663 74.9653 319.079 75.136C319.495 75.296 319.858 75.5627 320.167 75.936C320.487 76.2987 320.652 76.7893 320.663 77.408C320.663 77.9307 320.514 78.4 320.215 78.816C319.927 79.2213 319.506 79.5413 318.951 79.776C318.407 80.0107 317.772 80.128 317.047 80.128Z"
    fill="#DCD3FB" />
  <defs>
    <filter id="filter0_d_364_8" x="38" y="0" width="455" height="554" filterUnits="userSpaceOnUse"
      color-interpolation-filters="sRGB">
      <feFlood flood-opacity="0" result="BackgroundImageFix" />
      <feColorMatrix in="SourceAlpha" type="matrix" values="0 0 0 0 0 0 0 0 0 0 0 0 0 0 0 0 0 0 127 0"
        result="hardAlpha" />
      <feOffset dy="4" />
      <feGaussianBlur stdDeviation="2" />
      <feComposite in2="hardAlpha" operator="out" />
      <feColorMatrix type="matrix" values="0 0 0 0 0 0 0 0 0 0 0 0 0 0 0 0 0 0 0.25 0" />
      <feBlend mode="normal" in2="BackgroundImageFix" result="effect1_dropShadow_364_8" />
      <feBlend mode="normal" in="SourceGraphic" in2="effect1_dropShadow_364_8" result="shape" />
    </filter>
    <linearGradient id="paint0_linear_364_8" x1="-8.23806" y1="38.8578" x2="556.959" y2="62.6013"
      gradientUnits="userSpaceOnUse">
      <stop stop-color="#05042F" />
      <stop offset="1" stop-color="#050E3E" />
    </linearGradient>
    <linearGradient id="paint1_linear_364_8" x1="33" y1="158" x2="33" y2="184" gradientUnits="userSpaceOnUse">
      <stop stop-color="#CE9FFC" />
      <stop offset="0.505208" stop-color="#A582F7" />
      <stop offset="1" stop-color="#7367F0" />
    </linearGradient>
    <linearGradient id="paint2_linear_364_8" x1="33" y1="399" x2="33" y2="425" gradientUnits="userSpaceOnUse">
      <stop stop-color="#CE9FFC" />
      <stop offset="0.505208" stop-color="#A582F7" />
      <stop offset="1" stop-color="#7367F0" />
    </linearGradient>
    <linearGradient id="paint3_linear_364_8" x1="100" y1="241" x2="100" y2="267" gradientUnits="userSpaceOnUse">
      <stop stop-color="#CE9FFC" />
      <stop offset="0.505208" stop-color="#A582F7" />
      <stop offset="1" stop-color="#7367F0" />
    </linearGradient>
    <linearGradient id="paint4_linear_364_8" x1="100" y1="317" x2="100" y2="343" gradientUnits="userSpaceOnUse">
      <stop stop-color="#CE9FFC" />
      <stop offset="0.505208" stop-color="#A582F7" />
      <stop offset="1" stop-color="#7367F0" />
    </linearGradient>
    <linearGradient id="paint5_linear_364_8" x1="310" y1="311" x2="310" y2="337" gradientUnits="userSpaceOnUse">
      <stop stop-color="#CE9FFC" />
      <stop offset="0.505208" stop-color="#A582F7" />
      <stop offset="1" stop-color="#7367F0" />
    </linearGradient>
    <linearGradient id="paint6_linear_364_8" x1="308" y1="239" x2="308" y2="265" gradientUnits="userSpaceOnUse">
      <stop stop-color="#CE9FFC" />
      <stop offset="0.505208" stop-color="#A582F7" />
      <stop offset="1" stop-color="#7367F0" />
    </linearGradient>
    <linearGradient id="paint7_linear_364_8" x1="99" y1="472" x2="99" y2="498" gradientUnits="userSpaceOnUse">
      <stop stop-color="#CE9FFC" />
      <stop offset="0.505208" stop-color="#A582F7" />
      <stop offset="1" stop-color="#7367F0" />
    </linearGradient>
    <linearGradient id="paint8_linear_364_8" x1="370" y1="273" x2="370" y2="283" gradientUnits="userSpaceOnUse">
      <stop stop-color="#CE9FFC" />
      <stop offset="0.505208" stop-color="#A582F7" />
      <stop offset="1" stop-color="#7367F0" />
    </linearGradient>
  </defs>
</svg>