<svg width="470" height="358" viewBox="0 0 470 358" fill="none" xmlns="http://www.w3.org/2000/svg">
<g clip-path="url(#clip0_232_524)">
<path d="M408.402 342C465.278 279.574 440.654 182.714 330.459 160.617C220.274 138.52 196.505 6.15831 96.298 33.7705C-3.9192 61.3713 -41.972 264.656 60.8732 342H408.402Z" fill="#051245"/>
<path d="M416.715 326.453H424.235V137.939H416.715V326.453Z" fill="#3B364D"/>
<path d="M154.47 342.473C154.47 345.204 130.545 347.419 101.027 347.419C71.5088 347.419 47.5847 345.204 47.5847 342.473C47.5847 339.742 71.5088 337.527 101.027 337.527C130.545 337.527 154.47 339.742 154.47 342.473Z" fill="#152B70"/>
<path d="M299.218 358C356.59 358 403.099 353.417 403.099 347.764C403.099 342.11 356.59 337.527 299.218 337.527C241.846 337.527 195.337 342.11 195.337 347.764C195.337 353.417 241.846 358 299.218 358Z" fill="#152B70"/>
<path d="M160.373 0H15.4871C8.67487 0 3.15247 5.52839 3.15247 12.348V138.123C3.15247 144.943 8.67487 150.471 15.4871 150.471H160.373C167.185 150.471 172.708 144.943 172.708 138.123V12.348C172.708 5.52839 167.185 0 160.373 0Z" fill="#AAB2C8"/>
<path d="M161.199 12.4399H14.6388V138.031H161.199V12.4399Z" fill="#E0E7FF"/>
<path d="M87.9244 12.4399V138.031" stroke="#AAB2C8" stroke-miterlimit="10"/>
<path d="M161.21 75.2354H14.6388" stroke="#AAB2C8" stroke-miterlimit="10"/>
<path opacity="0.54" d="M78.7652 12.4399L29.61 137.94H51.3447L101.027 12.4399H78.7652Z" fill="white"/>
<path opacity="0.54" d="M116.766 12.4399L67.6112 137.94H89.3573L139.04 12.4399H116.766Z" fill="white"/>
<path d="M466.24 131.203H321.916V144.676H466.24V131.203Z" fill="#773C4D"/>
<path d="M466.24 131.203H374.189V144.676H466.24V131.203Z" fill="#965363"/>
<path d="M353.153 109.56H426.771V131.203H353.153C350.597 131.203 348.511 129.126 348.511 126.555V114.207C348.511 111.648 350.586 109.56 353.153 109.56Z" fill="#61648A"/>
<path d="M428.032 114.127H354.197V126.624H428.032V114.127Z" fill="#EDF1FC"/>
<path d="M406.722 114.127H354.013V126.624H406.722V114.127Z" fill="#E0E7FF"/>
<path d="M341.071 87.9165H414.689V109.56H341.071C338.515 109.56 336.428 107.483 336.428 104.912V92.5642C336.428 90.0051 338.503 87.9165 341.071 87.9165Z" fill="#FFC55A"/>
<path d="M415.767 92.4839H341.931V104.981H415.767V92.4839Z" fill="#EDF1FC"/>
<path d="M395.006 92.4839H341.931V104.981H395.006V92.4839Z" fill="#E0E7FF"/>
<path d="M357.762 66.2729H431.38V87.9164H357.762C355.205 87.9164 353.119 85.8392 353.119 83.2687V70.9207C353.119 68.3615 355.194 66.2729 357.762 66.2729Z" fill="#AF2F48"/>
<path d="M432.709 70.8403H358.874V83.3375H432.709V70.8403Z" fill="#EDF1FC"/>
<path d="M408.384 70.8403H358.621V83.3375H408.384V70.8403Z" fill="#E0E7FF"/>
<path d="M349.394 242.656C349.497 258.757 347.972 274.1 343.822 287.917C343.822 287.917 343.822 287.94 343.822 287.951C332.176 326.614 299.78 353.26 224.041 350.793C121.249 347.442 102.575 251.757 93.9544 162.291C86.9503 89.695 108.754 36.275 174.187 18.694C189.399 14.6086 206.984 12.4512 227.113 12.4512C319.623 12.4512 349.015 181.444 349.405 242.668L349.394 242.656Z" fill="#14E410"/>
<path d="M343.811 287.94C332.164 326.602 299.768 353.249 224.03 350.782C121.237 347.431 102.563 251.745 93.9427 162.28C86.9385 89.6836 108.742 36.2636 174.175 18.6826C117.981 52.9724 104.019 115.458 126.992 210.501C149.953 305.544 207.9 333.189 245.42 333.247C282.94 333.315 330.032 321.059 343.811 287.94Z" fill="#D67F04"/>
<path d="M201.045 102.158C127.725 115.229 159.708 220.072 175.918 249.439C192.127 278.794 199.028 313.566 236.479 315.115C273.93 316.664 321.778 299.657 326.409 287.297C331.04 274.938 309.856 210.501 309.856 210.501C309.856 210.501 306.921 145.295 286.631 128.162C266.341 111.04 225.394 97.8199 201.045 102.158Z" fill="#F49947"/>
<path d="M299.218 278.989C285.829 304.052 240.17 312.866 224.534 308.895C215.329 306.554 204.278 298.188 194.236 286.173C187.817 274.858 182.681 261.672 175.929 249.439C173.384 244.837 170.472 238.399 167.63 230.745C162.047 203.822 162.207 171.851 172.708 160.96C186.968 146.191 200.805 135.782 201.802 126.636C202.57 119.452 194.431 109.984 196.07 103.248C197.664 102.835 199.326 102.479 201.057 102.181C221.118 98.6003 252.424 106.932 274.193 119.555C276.291 127.496 276.475 138.135 281.393 141.589C288.97 146.868 300.674 179.987 303.643 195.548C306.601 211.098 299.23 279.012 299.23 279.012L299.218 278.989Z" fill="#F27C49"/>
<path d="M398.812 318.741C399.408 328.174 426.668 316.136 430.268 310.915C430.268 310.915 415.342 353.857 407.57 353.857C399.798 353.857 378.614 331.491 378.614 331.491L381.159 318.741H398.801H398.812Z" fill="#AF2F48"/>
<path d="M407.57 353.857C399.11 357.484 420.249 304.098 430.268 305.303C440.287 306.508 418.495 349.175 407.57 353.857Z" fill="#D35473"/>
<path d="M402.045 256.921C401.495 284.52 394.33 318.753 394.33 318.753H376.676C376.676 318.753 365.821 295.457 360.742 272.011C359.458 266.136 358.553 260.237 358.266 254.706C358.266 254.706 330.914 262.991 304.445 258.011C293.441 255.945 280.968 252.445 270.158 249.06C254.992 244.32 243.093 239.799 243.093 239.799L243.987 238.663L263.292 214.219L315.244 206.393L321.331 205.475L358.266 216.939C391.029 220.485 402.607 229.31 402.045 256.921Z" fill="#31344C"/>
<path opacity="0.54" d="M360.742 272.012C359.458 266.136 358.553 260.237 358.266 254.706C358.266 254.706 330.914 262.992 304.445 258.011C293.44 255.945 280.968 252.445 270.158 249.06L243.987 238.663L241.695 237.756L237.361 219.67L293.234 200.127L315.232 206.393L352.19 216.916C343.26 232.982 361.235 251.975 365.179 257.69C369.122 263.405 380.345 254.178 387.463 257.69C394.582 261.201 366.394 259.514 360.742 272V272.012Z" fill="#232433"/>
<path d="M371.174 334.199C379.29 351.849 391.315 360.284 397.735 357.472L394.926 328.174L383.302 323.159L371.174 334.199Z" fill="#AF2F48"/>
<path d="M397.735 357.472C383.451 359.859 386.111 332.179 386.913 318.741C387.716 305.303 398.938 306.508 400.142 316.939C401.346 327.371 407.352 355.865 397.735 357.472Z" fill="#D35473"/>
<path d="M383.302 323.159L371.174 334.199C321.537 319.843 292.317 274.582 292.317 274.582C264.748 306.6 233.865 313.783 209.012 274.582C209.012 274.582 210.583 257.162 230.736 243.724C234.645 241.107 239.253 238.64 244.698 236.494C266.249 227.956 294.908 226.292 312.573 226.188C323.234 226.131 333.219 231.33 339.363 240.04C349.749 254.74 359.653 272.975 367.425 288.617C376.974 307.85 383.302 323.148 383.302 323.148V323.159Z" fill="#383952"/>
<path opacity="0.54" d="M383.302 323.159L371.174 334.199C321.537 319.843 292.317 274.582 292.317 274.582C264.748 306.6 233.865 313.784 209.012 274.582C209.012 274.582 210.583 257.162 230.736 243.724L251.542 239.868C227.262 287.596 285.634 276.464 296.157 267.765C306.692 259.055 316.631 250.334 321.331 249.852C326.031 249.37 301.224 267.72 318.729 288.617C336.222 309.514 376.596 322.54 367.437 288.617C376.986 307.85 383.314 323.148 383.314 323.148L383.302 323.159Z" fill="#232433"/>
<path d="M262.34 85.449H261.595C261.595 85.449 254.247 113.622 241.706 124.123C239.448 126.016 237.018 127.336 234.438 127.818C217.518 130.951 202.788 111.66 200.002 98.4282C198.443 91.0263 201.194 86.4818 203.923 83.9342C206.066 81.8915 208.199 81.0997 208.199 81.0997C208.199 81.0997 209.311 60.2251 216.567 60.6039C223.548 60.9596 222.379 63.7368 222.287 63.9433C222.734 63.3466 237.935 43.1147 248.378 45.318C258.993 47.5558 251.542 63.1974 251.542 63.1974C251.542 63.1974 264.943 49.61 269.402 57.425C273.873 65.2516 260.655 74.7535 260.655 74.7535C260.655 74.7535 272.004 74.5699 273.127 78.6783C274.239 82.7637 272.566 86.6884 262.329 85.449H262.34Z" fill="#6D3744"/>
<path d="M241.706 124.122C239.448 126.016 237.018 127.336 234.438 127.818C217.518 130.951 202.788 111.66 200.002 98.4281C198.443 91.0261 201.194 86.4817 203.923 83.9341C206.445 87.2047 209.804 93.7689 217.495 85.4489H221.061L241.718 124.122H241.706Z" fill="#542633"/>
<path d="M286.631 207.942L209.391 279.62C205.631 276.235 202.364 272.712 199.544 269.039C194.293 262.257 190.522 255.016 187.84 247.465C185.833 241.796 184.435 235.955 183.518 229.999C181.397 216.411 181.695 202.216 182.543 188.112C184.55 155.084 194.523 133.028 234.129 132.477C234.129 132.477 252.287 127.393 265.722 134.646C276.291 140.338 283.181 182.42 285.634 200.127C286.299 204.924 286.643 207.942 286.643 207.942H286.631Z" fill="#61648A"/>
<path opacity="0.36" d="M270.181 175.294C229.521 190.556 212.681 160.949 212.681 160.949L199.532 208.264L227.663 216.939L276.647 211.833L270.17 175.294H270.181Z" fill="#383952"/>
<path opacity="0.36" d="M286.631 207.942L209.391 279.62C205.631 276.235 202.364 272.712 199.544 269.04C212.979 268.018 241.844 235.851 234.266 234.176C227.48 232.684 204.129 248.59 187.84 247.465C185.833 241.796 184.435 235.955 183.518 229.999L208.336 208.252L285.634 200.116C286.299 204.913 286.643 207.931 286.643 207.931L286.631 207.942Z" fill="#383952"/>
<path d="M243.093 198.417C252.161 192.278 262.73 197.396 266.467 200.127C270.216 202.858 266.467 210.019 266.467 210.019C266.467 210.019 262.375 207.632 261.022 207.288C259.658 206.944 253.089 212.062 240.021 210.019C226.953 207.977 243.093 198.429 243.093 198.429V198.417Z" fill="#F4B8AB"/>
<path d="M190.086 155.589C207.878 142.312 217.954 153.983 217.094 176.934L216.234 199.886C216.234 199.886 238.921 192.633 244.48 192.633C244.48 192.633 244.962 208.344 244.48 213.978C244.48 213.978 217.048 240.556 198.948 242.565C180.847 244.573 184.469 208.734 182.853 192.232C181.248 175.718 183.908 160.203 190.098 155.589H190.086Z" fill="#61648A"/>
<path d="M263.338 211.075L276.83 156.347C278.206 150.769 283.204 146.845 288.947 146.845H366.382C371.472 146.845 375.186 151.642 373.925 156.576L358.301 213.795L263.326 211.063L263.338 211.075Z" fill="#C3C9F4"/>
<path d="M268.76 211.075L282.252 156.347C283.628 150.769 288.626 146.845 294.369 146.845H371.805C376.894 146.845 380.608 151.642 379.347 156.576L363.723 213.795L268.748 211.063L268.76 211.075Z" fill="#E0E7FF"/>
<path d="M341.358 216.526H242.841C241.339 216.526 240.113 215.31 240.113 213.795C240.113 212.291 241.328 211.063 242.841 211.063H341.358C342.859 211.063 344.086 212.28 344.086 213.795C344.086 215.298 342.871 216.526 341.358 216.526Z" fill="#C3C9F4"/>
<path d="M364.583 216.526H266.066C264.564 216.526 263.338 215.31 263.338 213.795C263.338 212.291 264.553 211.063 266.066 211.063H364.583C366.084 211.063 367.311 212.28 367.311 213.795C367.311 215.298 366.096 216.526 364.583 216.526Z" fill="#E0E7FF"/>
<path d="M331.648 180.171C330.353 187.286 327.132 192.656 324.449 192.163C321.767 191.669 320.655 185.507 321.962 178.392C323.257 171.277 326.478 165.906 329.161 166.4C331.832 166.893 332.955 173.056 331.648 180.171Z" fill="#C3C9F4"/>
<path d="M266.754 90.0278C268.473 115.229 264.461 126.395 250.166 127.818V133.682C250.166 138.031 246.647 141.554 242.302 141.554C237.958 141.554 234.438 138.031 234.438 133.682V127.818C234.438 127.818 222.998 122.952 220.705 115.791C218.412 108.63 220.705 114.643 220.705 114.643L219.685 85.4375H267.121L266.754 90.0164V90.0278Z" fill="#F4B8AB"/>
<path d="M221.427 103.672C217.828 97.1083 213.598 99.8625 212.75 103.672C211.901 107.482 219.524 116.766 221.427 113.507C223.33 110.248 221.427 103.672 221.427 103.672Z" fill="#F4B8AB"/>
<path d="M213.541 82.2127C221.198 91.531 242.91 96.3738 250.762 94.1361C258.615 91.8983 247.449 84.6341 247.449 84.6341C247.449 84.6341 262.019 94.6984 268.691 91.3359C275.363 87.985 257.377 79.7798 257.377 79.7798L213.541 82.2012V82.2127Z" fill="#6D3744"/>
<path d="M239.551 102.158C239.551 103.5 239.31 104.602 239.012 104.602C238.714 104.602 238.474 103.512 238.474 102.158C238.474 100.804 238.714 99.7134 239.012 99.7134C239.31 99.7134 239.551 100.804 239.551 102.158Z" stroke="#191918" stroke-width="2" stroke-miterlimit="10"/>
<path d="M255.015 102.158C255.015 103.5 254.774 104.602 254.476 104.602C254.178 104.602 253.938 103.512 253.938 102.158C253.938 100.804 254.178 99.7134 254.476 99.7134C254.774 99.7134 255.015 100.804 255.015 102.158Z" stroke="#191918" stroke-width="2" stroke-miterlimit="10"/>
<path d="M248.791 115.768C241.385 115.94 235.642 110.604 235.642 110.604" stroke="#E56A85" stroke-miterlimit="10" stroke-linecap="round"/>
<path opacity="0.53" d="M250.166 127.818C243.827 128.392 236.49 128.151 236.49 128.151L250.166 133.682V127.818Z" fill="#DD6595"/>
<path opacity="0.53" d="M221.049 105.44C217.839 102.066 216.269 103.454 216.487 106.955C216.704 110.455 220.911 112.968 222.287 111.958C223.651 110.96 221.06 105.44 221.06 105.44H221.049Z" fill="#DD6595"/>
<path d="M95.6392 280.905C81.4131 275.672 73.5722 277.704 69.2275 271.897C69.2275 271.897 80.84 269.866 87.2251 271.897L95.6392 280.905Z" fill="#7C9E1E"/>
<path d="M87.2136 271.897C69.9268 262.854 64.8027 252.595 60.4122 245.503C56.0217 238.411 53.58 232.546 51.8719 232.064C50.1639 231.571 58.9563 233.281 67.2558 241.589C75.5553 249.898 78.9714 251.114 85.5629 257.713C92.1544 264.311 98.0122 274.02 98.7458 280.894H95.6507L87.2366 271.886L87.2136 271.897Z" fill="#B7AC15"/>
<path d="M92.1429 269.453C82.8002 255.108 91.1915 246.868 79.9344 230.595C66.7515 211.534 70.9012 192.473 72.85 180.503C72.85 180.503 69.9268 194.435 81.4017 208C92.8766 221.564 104.099 226.808 105.074 247.029C106.048 267.249 102.139 280.905 102.139 280.905H95.6164L92.1315 269.453H92.1429Z" fill="#7C9E1E"/>
<path d="M100.649 280.905C97.5193 267.467 103.618 244.527 104.111 221.805C104.604 199.083 91.9022 182.213 110.702 160.96C110.702 160.96 106.793 164.873 112.17 180.503C117.534 196.145 129.502 212.509 123.644 233.533C117.787 254.557 105.165 271.759 105.246 280.905H100.649Z" fill="#B7AC15"/>
<path d="M105.234 280.905C103.285 264.782 119.724 239.638 133.64 234.015C133.64 234.015 135.108 246.363 126.075 256.439C117.041 266.515 110.324 280.894 110.324 280.894H105.234V280.905Z" fill="#A88F14"/>
<path d="M110.324 280.905C110.931 270.187 120.217 266.423 129.731 263.669C129.731 263.669 118.257 275.259 116.308 280.905H110.324Z" fill="#426313"/>
<path opacity="0.36" d="M114.795 282.122C116.411 273.997 120.079 271.449 119.403 270.99C118.738 270.531 114.577 277.36 112.479 280.906C112.479 280.906 109.693 271.645 113.866 263.669C118.039 255.693 121.982 249.657 121.982 249.657C121.982 249.657 108.547 265.195 107.848 273.056C107.848 273.056 106.461 265.161 108.776 254.97C111.092 244.78 117.122 235.037 114.921 222.976C112.72 210.914 110.335 198.039 110.335 198.039C110.335 198.039 111.333 210.306 112.49 220.933C113.648 231.559 110.496 237.125 107.435 248.498C104.374 259.87 106.082 276.04 104.764 275.959C103.446 275.879 101.36 278.886 101.36 278.886C101.36 278.886 99.961 261.488 97.8746 246.639C95.7883 231.789 96.029 229.792 86.9844 220.933C77.9512 212.074 76.7934 206.657 76.7934 206.657C76.7934 206.657 82.892 218.798 87.9588 226.682C93.0141 234.566 94.6419 238.055 94.6419 251.963C94.6419 265.872 95.3412 273.71 96.499 275.937C97.6568 278.174 87.9244 262.705 80.2783 257.449C72.6322 252.193 66.3732 244.998 65.6739 243.839C64.9746 242.68 73.0907 257.288 79.109 261.236C85.1388 265.184 95.6393 278.633 95.6393 278.633L78.4212 273.997L97.8861 282.122H114.806H114.795Z" fill="#426313"/>
<path d="M130.144 285.232L120.985 338.055C120.87 338.697 120.652 339.283 120.343 339.822C119.414 341.417 117.683 342.473 115.735 342.473H82.7773C80.1636 342.473 77.9397 340.58 77.5156 337.997L68.9295 285.174C68.4022 281.927 70.9012 278.989 74.1912 278.989H124.882C128.195 278.989 130.694 281.972 130.133 285.232H130.144Z" fill="#3A3852"/>
<path opacity="0.54" d="M120.343 339.822C119.414 341.417 117.683 342.473 115.735 342.473H82.7773C80.1636 342.473 77.9397 340.58 77.5156 337.997L68.9295 285.174C68.4022 281.927 70.9012 278.989 74.1912 278.989H91.627C75.4636 304.121 102.426 333.327 120.343 339.834V339.822Z" fill="#232433"/>
<path d="M175.918 249.427C182.67 261.672 187.817 274.846 194.225 286.161C187.198 277.772 180.663 267.593 175.585 256.439C172.33 249.301 169.613 240.338 167.618 230.733C170.461 238.387 173.384 244.825 175.918 249.427Z" fill="#FFC55A"/>
</g>
<defs>
<clipPath id="clip0_232_524">
<rect width="470" height="358" fill="white"/>
</clipPath>
</defs>
</svg>
